<?xml version="1.0" encoding="UTF-8"?>
<svg id="Calque_1" data-name="Calque 1" xmlns="http://www.w3.org/2000/svg" viewBox="0 0 264.8 88.37">
  <defs>
    <style>
      .cls-1 {
        fill: #fff;
        font-family: FormaDJRBanner-Bold, 'Forma DJR Banner';
        font-size: 31.48px;
        font-weight: 700;
      }

      .cls-2 {
        letter-spacing: -.02em;
      }

      .cls-3 {
        letter-spacing: -.03em;
      }

      .cls-4 {
        fill: blue;
      }

      .cls-5 {
        fill: #ff007f;
      }

      .cls-6 {
        letter-spacing: 0em;
      }
    </style>
  </defs>
  <rect class="cls-5" x="24.95" y="24.02" width="239.85" height="64.35" rx="32.17" ry="32.17"/>
  <polygon class="cls-4" points="66.89 39.44 48.76 41.2 58.55 56.56 42.34 48.23 42.27 66.45 33.14 50.69 23.23 65.97 24.08 47.77 7.47 55.28 18.02 40.42 0 37.76 16.91 30.97 3.18 18.98 21.08 22.41 16.02 4.9 29.22 17.46 34.42 0 38.74 17.7 52.55 5.82 46.62 23.05 64.66 20.53 50.35 31.81 66.89 39.44"/>
  <text class="cls-1" transform="translate(62.48 67.75)"><tspan x="0" y="0">En sa</tspan><tspan class="cls-3" x="72" y="0">v</tspan><tspan x="87.12" y="0">oi</tspan><tspan class="cls-2" x="110.23" y="0">r</tspan><tspan class="cls-6" x="121.5" y="0" xml:space="preserve"> plus</tspan></text>
</svg>