<?xml version="1.0" encoding="UTF-8"?>
<svg id="Calque_1" data-name="Calque 1" xmlns="http://www.w3.org/2000/svg" viewBox="0 0 568.54 498.77">
  <defs>
    <style>
      .cls-1, .cls-2 {
        fill: lime;
      }

      .cls-3, .cls-4 {
        fill: blue;
      }

      .cls-5, .cls-6 {
        fill: #ff007f;
      }

      .cls-7 {
        font-size: 73.39px;
      }

      .cls-7, .cls-8, .cls-9 {
        fill: #fff;
      }

      .cls-7, .cls-8, .cls-9, .cls-6, .cls-4, .cls-2 {
        font-family: FormaDJRBanner-Black, 'Forma DJR Banner';
        font-weight: 800;
      }

      .cls-8 {
        font-size: 61.76px;
      }

      .cls-9 {
        font-size: 48.59px;
      }

      .cls-10 {
        letter-spacing: 0em;
      }

      .cls-11 {
        letter-spacing: 0em;
      }

      .cls-6, .cls-4, .cls-2 {
        font-size: 22.31px;
      }

      .cls-12 {
        letter-spacing: 0em;
      }
    </style>
  </defs>
  <g>
    <path class="cls-3" d="M389.33,355.6l-88.89,97.17,124.28-31.17,55.42,55.73,9.16-68.53c60.17-14.13,61.9-13.12,60.17-14.13-3.46-2.02-54.89-27.64-54.89-27.64l55.45-65.71-92.98,21.14,4.33-66.84-45.39,45.68-73.97-19.81,47.33,74.11Z"/>
    <polygon class="cls-5" points="356.16 236.53 257.86 231.53 297.99 321.41 217.99 264.06 203.16 361.36 166.87 269.87 101.79 343.71 120.73 247.12 26.05 274.05 94.2 203.03 0 174.5 95.73 151.6 31.9 76.67 124.81 109.16 111.63 11.62 172.23 89.19 213.87 0 222.91 98.01 306.16 45.5 260.78 132.84 359.21 133.67 273.81 182.62 356.16 236.53"/>
    <polygon class="cls-1" points="457.4 115.38 524.83 88.42 540.56 203.75 483.66 236.3 447.69 199.66 397.49 164.57 412.71 99.82 457.4 115.38"/>
    <text class="cls-9" transform="translate(406.47 388.45)"><tspan class="cls-12" x="0" y="0">7</tspan><tspan x="25.17" y="0">%</tspan></text>
    <text class="cls-7" transform="translate(130.25 215.05)"><tspan x="0" y="0">9%</tspan></text>
    <text class="cls-8" transform="translate(428.64 186.01)"><tspan x="0" y="0">5%</tspan></text>
  </g>
  <g>
    <rect class="cls-5" x="15.39" y="404.63" width="116.43" height="20.03" rx="10.01" ry="10.01"/>
    <rect class="cls-3" x="15.39" y="454.78" width="116.43" height="20.03" rx="10.01" ry="10.01"/>
    <rect class="cls-1" x="15.39" y="429.71" width="116.43" height="20.03" rx="10.01" ry="10.01"/>
    <text class="cls-6" transform="translate(153.17 423.83)"><tspan class="cls-10" x="0" y="0">2</tspan><tspan x="12.76" y="0">018</tspan></text>
    <text class="cls-2" transform="translate(153.33 450.65)"><tspan class="cls-10" x="0" y="0">2</tspan><tspan x="12.76" y="0">016</tspan></text>
    <text class="cls-4" transform="translate(154.93 476.94)"><tspan class="cls-10" x="0" y="0">2</tspan><tspan x="12.76" y="0">0</tspan><tspan class="cls-11" x="27.38" y="0">1</tspan><tspan x="36.3" y="0">1</tspan></text>
  </g>
</svg>