<?xml version="1.0" encoding="UTF-8"?>
<svg id="Calque_2" data-name="Calque 2" xmlns="http://www.w3.org/2000/svg" viewBox="0 0 715.71 287.81">
  <defs>
    <style>
      .cls-1 {
        fill: lime;
      }

      .cls-2 {
        fill: #1d1d1b;
      }
    </style>
  </defs>
  <g id="Calque_1-2" data-name="Calque 1">
    <g>
      <g>
        <path class="cls-1" d="M268.03,85.05c-2.85-6.38-6.18-12.56-9.95-18.47-2.52-3.96-5.22-7.8-8.13-11.51-3.62-4.62-7.54-9.05-11.74-13.22-2.95-2.94-6.04-5.76-9.26-8.45-5.38-4.48-11.13-8.61-17.24-12.33-.37-.23-.74-.44-1.12-.66-5.37-3.2-10.99-6.07-16.87-8.61-1.08-.46-2.16-.91-3.25-1.35-7.53-3.03-15.17-5.38-22.84-7.08C100.21-11.53,29.94,24.01,3.3,90.19l133.46,53.71L0,188.54c13.8,42.3,41.78,72.21,83.05,88.82,73.71,29.67,157.51-6.04,187.18-79.75,15.2-37.76,13.24-78.16-2.19-112.57Zm-95.35,99.09c-17.13,0-31.24-6.95-31.24-22,0-7.89,3.84-14.12,12.77-17.75-6.54-2.18-10.38-8.62-10.38-14.84,0-13.29,11.62-21.17,28.85-21.17s29.06,7.89,29.06,21.17c0,6.85-3.84,12.56-10.28,14.84,8.82,3.63,12.66,9.86,12.66,17.75,0,15.05-14.01,22-31.45,22Zm63.42,.31c-15.67,0-25.12-7.68-27.3-20.34-.1-.62,.31-.93,.83-.93h20.55c.52,0,.73,.21,.83,.73,.52,2.7,2.39,4.67,5.92,4.67,5.71,0,7.79-4.67,7.99-13.6-3.32,1.45-6.33,3.01-13.91,3.01-14.95,0-24.81-9.03-24.81-22.94,0-15.88,11.73-26.99,30-26.99,19.82,0,31.35,11.21,31.35,38.2,0,24.81-12.04,38.2-31.45,38.2Z"/>
        <path class="cls-1" d="M172.68,153c-4.98-.1-7.99,2.6-7.99,7.89s3.22,7.99,7.99,7.99,8.1-2.7,8.1-7.99-3.11-7.78-8.1-7.89Z"/>
        <path class="cls-1" d="M236.82,124.56c-4.98,0-7.47,3.01-7.58,9.13-.1,6.02,2.6,9.34,7.58,9.34s7.58-3.32,7.58-9.24-2.6-9.24-7.58-9.24Z"/>
        <path class="cls-1" d="M172.68,137.95c4.15,0,6.75-1.76,6.75-7.26,0-4.57-1.97-7.37-6.75-7.37s-6.75,2.8-6.64,7.37c.1,5.09,2.49,7.26,6.64,7.26Z"/>
      </g>
      <path class="cls-1" d="M287.27,129.13c0-13.29,8.93-20.24,22.94-20.24s22.73,6.95,22.73,20.14-8.82,19.31-22.73,19.31-22.94-5.92-22.94-19.2Zm86.98-18.16l-58.64,71.1c-.21,.31-.62,.52-1.04,.52h-15.67c-.62,0-.93-.52-.52-1.04l58.64-71.1c.21-.31,.62-.52,1.04-.52h15.67c.62,0,.93,.52,.52,1.04Zm-59.37,18.06c0-6.23-1.66-7.99-4.77-7.99s-4.67,1.76-4.67,7.99c0,5.29,1.35,7.06,4.77,7.06s4.67-1.45,4.67-7.06Zm24.5,34.46c0-13.29,8.93-19.31,22.73-19.31s22.94,5.92,22.94,19.2-8.82,20.24-22.84,20.24-22.83-6.95-22.83-20.14Zm27.61-.1c0-5.29-1.35-7.06-4.77-7.06s-4.67,1.45-4.67,7.06c0,6.23,1.66,7.99,4.77,7.99s4.67-1.76,4.67-7.99Z"/>
      <g>
        <path d="M402.47,124.56c-.07,0-.14-.07-.14-.14l.05-8.1-.05-7.68c0-.07,.07-.14,.14-.14h5.14c4.61,0,8.12,2.78,8.12,8.03s-3.78,8.03-8.07,8.03h-5.18Zm2.04-1.72h3.33c2.82,0,5.69-1.86,5.69-6.31s-2.61-6.31-5.78-6.31h-3.23s-.05,4.61-.05,6.05,.05,6.54,.05,6.56Z"/>
        <path d="M426.96,120.46c.07,0,.14,.07,.11,.14-.34,2.46-2.11,4.24-5.18,4.24-3.67,0-5.64-2.55-5.64-6.15s2.11-6.22,5.53-6.22,5.46,2.39,5.5,6.33c0,.07-.07,.14-.14,.14h-8.81c.07,2.84,1.26,4.36,3.58,4.36,1.74,0,2.82-.94,3.14-2.71,.02-.07,.09-.14,.16-.14h1.74Zm-5.16-6.47c-1.95,0-3.1,1.26-3.39,3.49h6.63c-.07-1.88-1.15-3.49-3.23-3.49Z"/>
        <path d="M432.76,124.81c-3.23,0-5.16-1.4-5.23-4.2,0-.07,.07-.14,.14-.14h1.74c.07,0,.14,.07,.14,.14,.05,1.9,1.19,2.75,3.33,2.75,1.74,0,2.89-.73,2.89-2.04,0-3.1-7.96-.6-7.96-5.37,0-2.27,1.86-3.46,4.66-3.46s4.79,1.17,4.93,3.67c0,.07-.07,.14-.14,.14h-1.67c-.07,0-.14-.07-.14-.14-.14-1.54-1.28-2.25-3-2.25-1.61,0-2.64,.6-2.64,1.9,0,2.94,7.96,.39,7.96,5.34,0,2.32-2.13,3.65-5,3.65Z"/>
        <path class="cls-1" d="M447.35,124.84c-3.51,0-5.6-1.4-5.69-4.06,0-.09,.09-.18,.18-.18h2.98c.09,0,.18,.07,.18,.18,.07,1.33,.94,1.93,2.57,1.93,1.35,0,2.09-.53,2.09-1.45,0-2.25-7.73-.07-7.73-5.02,0-2.45,1.97-3.76,5.16-3.76s5.21,1.24,5.39,3.74c.02,.09-.07,.18-.16,.18h-2.84c-.09,0-.18-.07-.21-.18-.18-1.01-.83-1.65-2.22-1.65-1.12,0-1.83,.41-1.83,1.42,0,2.25,7.73-.04,7.73,4.98,0,2.48-2.34,3.88-5.6,3.88Z"/>
        <path class="cls-1" d="M453.72,111.6c-.09,0-.18-.09-.18-.18v-2.73c0-.09,.09-.18,.18-.18h3.12c.09,0,.18,.09,.18,.18v2.73c0,.09-.09,.18-.18,.18h-3.12Zm0,12.96c-.09,0-.18-.09-.18-.18l.05-5.71-.05-5.73c0-.09,.09-.18,.18-.18h3.12c.09,0,.18,.09,.18,.18l-.05,5.73,.05,5.71c0,.09-.09,.18-.18,.18h-3.12Z"/>
        <path class="cls-1" d="M463.74,129.15c-3.12,.05-5.46-1.21-5.64-3.83,0-.09,.09-.18,.18-.18h3.03c.09,0,.18,.07,.21,.18,.14,.99,.94,1.56,2.34,1.56,1.49,0,2.52-.83,2.52-2.68v-1.35c-.78,1.03-1.93,1.65-3.39,1.65-3.51,0-5.34-2.59-5.34-5.92s1.97-5.99,5.18-5.99c1.47,0,2.61,.51,3.42,1.45l-.07-1.1c0-.09,.09-.18,.18-.18h3.07c.09,0,.18,.09,.18,.18l-.05,5.89v5.41c0,2.98-1.93,4.91-5.83,4.91Zm-.02-6.9c1.67,0,2.57-1.19,2.59-3.58,.02-2.45-.87-3.81-2.52-3.83-1.74-.05-2.64,1.24-2.64,3.6,0,2.55,.92,3.83,2.57,3.81Z"/>
        <path class="cls-1" d="M470.57,124.56c-.09,0-.18-.09-.18-.18l.05-5.48v-5.96c0-.09,.09-.18,.18-.18h2.96c.09,0,.18,.09,.18,.18l-.07,1.31c.8-1.03,2.16-1.77,3.81-1.77,2.5,0,4.13,1.7,4.13,4.59v2.48l.05,4.84c0,.09-.09,.18-.18,.18h-3.12c-.09,0-.18-.09-.18-.18l.05-4.84v-2.43c0-1.28-.76-2.11-1.79-2.11-1.24,0-2.57,1.15-2.57,3.67v.87l.05,4.84c0,.09-.09,.18-.18,.18h-3.17Z"/>
        <path class="cls-1" d="M490.84,124.56c-.09,0-.18-.09-.18-.18l.05-1.19c-.83,1.01-2,1.61-3.49,1.61-3.35,0-5.11-2.66-5.11-6.1s1.97-6.17,5.18-6.17c1.47,0,2.61,.53,3.42,1.49l-.07-1.08c0-.09,.09-.18,.18-.18h3.1c.09,0,.18,.09,.18,.18l-.05,5.73,.05,5.71c0,.09-.09,.18-.18,.18h-3.07Zm-2.66-2.06c1.67,0,2.57-1.26,2.59-3.76,.02-2.52-.87-3.9-2.52-3.92-1.74-.04-2.64,1.26-2.64,3.69,0,2.66,.92,4.01,2.57,3.99Z"/>
        <path class="cls-1" d="M495.17,124.56c-.09,0-.18-.09-.18-.18l.07-7.84-.07-7.84c0-.09,.09-.18,.18-.18h3.03c.09,0,.18,.09,.18,.18l-.07,7.84,.07,7.84c0,.09-.09,.18-.18,.18h-3.03Z"/>
        <path class="cls-1" d="M510.63,120.57c.09,0,.18,.09,.16,.18-.27,2.18-2.34,4.11-5.66,4.11-3.95,0-6.08-2.59-6.08-6.17,0-3.76,2.25-6.24,6.01-6.24s6.03,2.59,6.1,6.72c0,.09-.09,.18-.18,.18h-8.46c.14,2.22,1.01,3.21,2.66,3.21,1.17,0,2-.53,2.29-1.81,.02-.11,.14-.18,.23-.18h2.94Zm-5.55-5.85c-1.38,0-2.2,.83-2.48,2.46h4.84c-.14-1.26-.85-2.46-2.36-2.46Z"/>
        <path class="cls-1" d="M515.19,120.32l.05,4.06c0,.09-.09,.18-.18,.18h-3.17c-.09,0-.18-.09-.18-.18l.05-4.06v-7.38c0-.09,.09-.18,.18-.18h2.96c.09,0,.18,.09,.18,.18l-.07,1.31c.83-1.15,1.88-1.77,3.39-1.77,1.65,0,2.84,.71,3.39,2.22,1.01-1.79,2.18-2.22,3.58-2.22,2.38,0,3.76,1.45,3.76,4.59v3.26l.05,4.06c0,.09-.09,.18-.18,.18h-3.12c-.09,0-.18-.09-.18-.18l.05-4.06v-3.21c0-1.42-.57-2.11-1.51-2.11s-2.06,1.26-2.06,3.67v1.65l.05,4.06c0,.09-.09,.18-.18,.18h-3.12c-.09,0-.18-.09-.18-.18l.05-4.06v-3.21c0-1.42-.55-2.11-1.51-2.11s-2.06,1.26-2.06,3.67v1.65Z"/>
        <path class="cls-1" d="M541.19,120.57c.09,0,.18,.09,.16,.18-.27,2.18-2.34,4.11-5.66,4.11-3.95,0-6.08-2.59-6.08-6.17,0-3.76,2.25-6.24,6.01-6.24s6.03,2.59,6.1,6.72c0,.09-.09,.18-.18,.18h-8.46c.14,2.22,1.01,3.21,2.66,3.21,1.17,0,2-.53,2.29-1.81,.02-.11,.14-.18,.23-.18h2.94Zm-5.55-5.85c-1.38,0-2.2,.83-2.48,2.46h4.84c-.14-1.26-.85-2.46-2.36-2.46Z"/>
        <path class="cls-1" d="M542.45,124.56c-.09,0-.18-.09-.18-.18l.05-5.48v-5.96c0-.09,.09-.18,.18-.18h2.96c.09,0,.18,.09,.18,.18l-.07,1.31c.8-1.03,2.16-1.77,3.81-1.77,2.5,0,4.13,1.7,4.13,4.59v2.48l.05,4.84c0,.09-.09,.18-.18,.18h-3.12c-.09,0-.18-.09-.18-.18l.05-4.84v-2.43c0-1.28-.76-2.11-1.79-2.11-1.24,0-2.57,1.15-2.57,3.67v.87l.05,4.84c0,.09-.09,.18-.18,.18h-3.17Z"/>
        <path class="cls-1" d="M561.32,124.15c0,.11-.07,.21-.18,.25-.67,.21-1.42,.39-2.16,.39-2,0-3.9-1.01-3.9-3.69l.02-5.92h-1.35c-.09,0-.18-.09-.18-.18v-2.06c0-.09,.09-.18,.18-.18h1.35l-.02-2.77c0-.09,.09-.18,.18-.18h3.07c.09,0,.18,.09,.18,.18l-.02,2.77h2.66c.09,0,.18,.09,.18,.18v2.06c0,.09-.09,.18-.18,.18h-2.66l.02,5.83c0,1.01,.5,1.33,1.26,1.33,.57,0,1.01-.09,1.35-.21,.09-.02,.18,.05,.18,.14v1.88Z"/>
        <path class="cls-1" d="M567.26,124.84c-3.51,0-5.6-1.4-5.69-4.06,0-.09,.09-.18,.18-.18h2.98c.09,0,.18,.07,.18,.18,.07,1.33,.94,1.93,2.57,1.93,1.35,0,2.09-.53,2.09-1.45,0-2.25-7.73-.07-7.73-5.02,0-2.45,1.97-3.76,5.16-3.76s5.21,1.24,5.39,3.74c.02,.09-.07,.18-.16,.18h-2.84c-.09,0-.18-.07-.21-.18-.18-1.01-.83-1.65-2.22-1.65-1.12,0-1.83,.41-1.83,1.42,0,2.25,7.73-.04,7.73,4.98,0,2.48-2.34,3.88-5.6,3.88Z"/>
        <path d="M577.32,111.49c-.07,0-.14-.07-.14-.14v-1.99c0-.07,.07-.14,.14-.14h1.86c.07,0,.14,.07,.14,.14v1.99c0,.07-.07,.14-.14,.14h-1.86Zm0,13.07c-.07,0-.14-.07-.14-.14l.05-5.94-.05-5.6c0-.07,.07-.14,.14-.14h1.86c.07,0,.14,.07,.14,.14l-.05,5.57,.05,5.96c0,.07-.07,.14-.14,.14h-1.86Z"/>
        <path d="M580.6,124.56c-.07,0-.14-.07-.14-.14l.05-5.25-.02-6.28c0-.07,.07-.14,.14-.14h1.77c.07,0,.14,.07,.14,.14l-.05,1.86c.71-1.19,2.04-2.27,3.92-2.27,2.43,0,3.97,1.61,3.97,4.68v2.36l.05,4.91c0,.07-.07,.14-.14,.14h-1.86c-.07,0-.14-.07-.14-.14l.05-4.91v-2.27c0-2.13-1.01-3.1-2.5-3.1s-2.8,1.24-3.26,3.58v1.79l.05,4.91c0,.07-.07,.14-.14,.14h-1.88Z"/>
        <path d="M599.75,124.56c-.07,0-.14-.07-.14-.14l.04-1.72c-.78,1.31-2.06,2.09-3.76,2.09-3.19,0-4.88-2.66-4.88-6.1s1.81-6.17,4.93-6.17c1.63,0,2.89,.69,3.69,1.97l-.02-5.85c0-.07,.07-.14,.14-.14h1.83c.07,0,.14,.07,.14,.14l-.05,7.02,.05,8.76c0,.07-.07,.14-.14,.14h-1.83Zm-3.33-1.29c2.04,0,3.28-1.51,3.3-4.52,.02-2.98-1.17-4.72-3.26-4.75-2.27-.02-3.33,1.86-3.33,4.52,0,2.84,1.05,4.75,3.28,4.75Z"/>
        <path d="M613.14,120.46c.07,0,.14,.07,.12,.14-.34,2.46-2.11,4.24-5.18,4.24-3.67,0-5.64-2.55-5.64-6.15s2.11-6.22,5.53-6.22,5.46,2.39,5.5,6.33c0,.07-.07,.14-.14,.14h-8.81c.07,2.84,1.26,4.36,3.58,4.36,1.74,0,2.82-.94,3.14-2.71,.02-.07,.09-.14,.16-.14h1.74Zm-5.16-6.47c-1.95,0-3.1,1.26-3.39,3.49h6.63c-.07-1.88-1.15-3.49-3.23-3.49Z"/>
        <path d="M614.3,124.56c-.07,0-.14-.07-.14-.14l.05-5.25-.02-6.28c0-.07,.07-.14,.14-.14h1.77c.07,0,.14,.07,.14,.14l-.05,1.86c.71-1.19,2.04-2.27,3.92-2.27,2.43,0,3.97,1.61,3.97,4.68v2.36l.05,4.91c0,.07-.07,.14-.14,.14h-1.86c-.07,0-.14-.07-.14-.14l.05-4.91v-2.27c0-2.13-1.01-3.1-2.5-3.1s-2.8,1.24-3.26,3.58v1.79l.05,4.91c0,.07-.07,.14-.14,.14h-1.88Z"/>
        <path d="M630.91,124.29c0,.07-.07,.16-.14,.18-.48,.14-1.08,.3-1.65,.3-1.72,0-3.19-.89-3.19-3.46l.02-6.95h-1.4c-.07,0-.14-.07-.14-.14v-1.33c0-.07,.07-.14,.14-.14h1.4l-.02-2.82c0-.07,.07-.14,.14-.14h1.81c.07,0,.14,.07,.14,.14l-.02,2.82h2.8c.07,0,.14,.07,.14,.14v1.33c0,.07-.07,.14-.14,.14h-2.8l.02,6.9c0,1.42,.48,1.86,1.47,1.86,.48,0,.96-.07,1.29-.16,.07-.02,.14,.02,.14,.09v1.24Z"/>
        <path d="M631.75,111.49c-.07,0-.14-.07-.14-.14v-1.99c0-.07,.07-.14,.14-.14h1.86c.07,0,.14,.07,.14,.14v1.99c0,.07-.07,.14-.14,.14h-1.86Zm0,13.07c-.07,0-.14-.07-.14-.14l.05-5.94-.05-5.6c0-.07,.07-.14,.14-.14h1.86c.07,0,.14,.07,.14,.14l-.05,5.57,.05,5.96c0,.07-.07,.14-.14,.14h-1.86Z"/>
        <path d="M638.33,119.24l.07,5.18c0,.07-.07,.14-.14,.14h-1.88c-.07,0-.14-.07-.14-.14l.05-5.18v-4.88h-1.72c-.07,0-.14-.07-.14-.14v-1.33c0-.07,.07-.14,.14-.14h1.72v-1.03c0-2.59,1.61-3.51,3.12-3.51,.55,0,1.15,.07,1.58,.18,.07,0,.14,.09,.14,.16v1.31c0,.07-.07,.12-.14,.09-.32-.09-.71-.14-1.15-.14-.92,0-1.51,.57-1.51,2.06v.87h2.66c.07,0,.14,.07,.14,.14v1.33c0,.07-.07,.14-.14,.14h-2.66v4.88Z"/>
        <path d="M641.93,111.49c-.07,0-.14-.07-.14-.14v-1.99c0-.07,.07-.14,.14-.14h1.86c.07,0,.14,.07,.14,.14v1.99c0,.07-.07,.14-.14,.14h-1.86Zm0,13.07c-.07,0-.14-.07-.14-.14l.05-5.94-.05-5.6c0-.07,.07-.14,.14-.14h1.86c.07,0,.14,.07,.14,.14l-.05,5.57,.05,5.96c0,.07-.07,.14-.14,.14h-1.86Z"/>
        <path d="M655.44,120.46c.07,0,.14,.07,.11,.14-.34,2.46-2.11,4.24-5.18,4.24-3.67,0-5.64-2.55-5.64-6.15s2.11-6.22,5.53-6.22,5.46,2.39,5.5,6.33c0,.07-.07,.14-.14,.14h-8.81c.07,2.84,1.26,4.36,3.58,4.36,1.74,0,2.82-.94,3.14-2.71,.02-.07,.09-.14,.16-.14h1.74Zm-5.16-6.47c-1.95,0-3.1,1.26-3.39,3.49h6.63c-.07-1.88-1.15-3.49-3.23-3.49Zm-2.11-2.13c-.07,.02-.16-.02-.18-.09l-.37-.8c-.02-.07,.02-.16,.07-.21l5.09-2.38s.14,0,.16,.07l.48,1.4c.02,.07-.02,.16-.09,.18l-5.16,1.83Z"/>
        <path d="M661.24,124.81c-3.23,0-5.16-1.4-5.23-4.2,0-.07,.07-.14,.14-.14h1.74c.07,0,.14,.07,.14,.14,.04,1.9,1.19,2.75,3.33,2.75,1.74,0,2.89-.73,2.89-2.04,0-3.1-7.96-.6-7.96-5.37,0-2.27,1.86-3.46,4.66-3.46s4.79,1.17,4.93,3.67c0,.07-.07,.14-.14,.14h-1.67c-.07,0-.14-.07-.14-.14-.14-1.54-1.28-2.25-3-2.25-1.61,0-2.64,.6-2.64,1.9,0,2.94,7.96,.39,7.96,5.34,0,2.32-2.13,3.65-5,3.65Z"/>
        <path d="M407.43,152.35c-3.53,0-5.53-2.43-5.53-6.15s2-6.21,5.57-6.21c2.96,0,4.75,1.7,5,4.22,0,.07-.07,.14-.14,.14h-1.67c-.07,0-.14-.07-.16-.14-.28-1.7-1.35-2.66-3.03-2.66-2.34,0-3.44,1.7-3.44,4.63s1.1,4.61,3.44,4.63c1.86,0,3-1.15,3.16-3.05,0-.07,.07-.14,.14-.14h1.7c.07,0,.14,.07,.14,.14-.23,2.66-2.11,4.59-5.18,4.59Z"/>
        <path d="M418.5,152.35c-3.58,0-5.6-2.43-5.6-6.15s2.02-6.21,5.6-6.21,5.6,2.45,5.6,6.17-2,6.19-5.6,6.19Zm0-1.54c2.32,0,3.46-1.65,3.46-4.61s-1.15-4.68-3.46-4.68c-2.34,.02-3.49,1.72-3.49,4.68s1.17,4.61,3.49,4.61Z"/>
        <path d="M426.92,147.47l.05,4.47c0,.07-.07,.14-.14,.14h-1.88c-.07,0-.14-.07-.14-.14l.05-4.47-.02-7.06c0-.07,.07-.14,.14-.14h1.77c.07,0,.14,.07,.14,.14l-.05,1.86c.73-1.24,1.88-2.27,3.65-2.27,1.67,0,2.89,.78,3.39,2.48,.85-1.61,2.06-2.48,3.72-2.48,2.32,0,3.69,1.47,3.69,4.68v2.8l.05,4.47c0,.07-.07,.14-.14,.14h-1.86c-.07,0-.14-.07-.14-.14l.05-4.47v-2.71c0-2.2-.89-3.1-2.27-3.1-1.26,0-2.29,1.12-2.8,3.07v2.73l.02,4.47c0,.07-.07,.14-.14,.14h-1.83c-.07,0-.14-.07-.14-.14l.02-4.47v-2.71c0-2.2-.87-3.1-2.25-3.1s-2.48,1.31-2.94,3.58v2.22Z"/>
        <path d="M444.36,147.47l.05,4.47c0,.07-.07,.14-.14,.14h-1.88c-.07,0-.14-.07-.14-.14l.05-4.47-.02-7.06c0-.07,.07-.14,.14-.14h1.77c.07,0,.14,.07,.14,.14l-.05,1.86c.73-1.24,1.88-2.27,3.65-2.27,1.67,0,2.89,.78,3.39,2.48,.85-1.61,2.06-2.48,3.72-2.48,2.32,0,3.69,1.47,3.69,4.68v2.8l.05,4.47c0,.07-.07,.14-.14,.14h-1.86c-.07,0-.14-.07-.14-.14l.05-4.47v-2.71c0-2.2-.89-3.1-2.27-3.1-1.26,0-2.29,1.12-2.8,3.07v2.73l.02,4.47c0,.07-.07,.14-.14,.14h-1.83c-.07,0-.14-.07-.14-.14l.02-4.47v-2.71c0-2.2-.87-3.1-2.25-3.1s-2.48,1.31-2.94,3.58v2.22Z"/>
        <path d="M470.07,147.97c.07,0,.14,.07,.12,.14-.34,2.45-2.11,4.24-5.18,4.24-3.67,0-5.64-2.55-5.64-6.15s2.11-6.21,5.53-6.21,5.46,2.38,5.5,6.33c0,.07-.07,.14-.14,.14h-8.81c.07,2.84,1.26,4.36,3.58,4.36,1.74,0,2.82-.94,3.14-2.71,.02-.07,.09-.14,.16-.14h1.74Zm-5.16-6.47c-1.95,0-3.1,1.26-3.39,3.49h6.63c-.07-1.88-1.15-3.49-3.23-3.49Z"/>
        <path d="M480.27,152.3c-1.63,0-2.89-.69-3.69-1.97l.05,5.5c0,.07-.07,.14-.14,.14h-1.86c-.07,0-.14-.07-.14-.14l.05-8.9-.05-6.54c0-.07,.07-.14,.14-.14h1.83c.07,0,.14,.07,.14,.14l-.05,1.74c.8-1.31,2.09-2.11,3.76-2.11,3.19,0,4.88,2.66,4.88,6.1s-1.81,6.17-4.93,6.17Zm-.53-1.54c2.27,0,3.33-1.84,3.33-4.47,0-2.82-1.05-4.72-3.28-4.72-2.04,0-3.28,1.54-3.3,4.5-.02,2.98,1.17,4.7,3.26,4.7Z"/>
        <path d="M486.05,152.07c-.07,0-.14-.07-.14-.14l.07-5.89-.07-5.64c0-.07,.07-.14,.14-.14h1.81c.07,0,.14,.07,.14,.14l-.07,2.02c.83-1.47,2.36-2.27,4.01-2.27,.25,0,.53,.02,.73,.07,.07,.02,.14,.12,.14,.18v1.42c0,.07-.07,.12-.14,.09-.18-.02-.44-.04-.69-.04-2.04,0-3.83,1.26-4.01,3.92l.02,6.15c0,.07-.07,.14-.14,.14h-1.81Z"/>
        <path d="M497.7,152.35c-3.58,0-5.6-2.43-5.6-6.15s2.02-6.21,5.6-6.21,5.6,2.45,5.6,6.17-2,6.19-5.6,6.19Zm0-1.54c2.32,0,3.46-1.65,3.46-4.61s-1.15-4.68-3.46-4.68c-2.34,.02-3.49,1.72-3.49,4.68s1.17,4.61,3.49,4.61Z"/>
        <path d="M509.78,152.3c-1.67,0-2.94-.71-3.71-2.02l.05,1.65c0,.07-.07,.14-.14,.14h-1.83c-.07,0-.14-.07-.14-.14l.05-8.67-.05-7.11c0-.07,.07-.14,.14-.14h1.83c.07,0,.14,.07,.14,.14l-.02,5.92c.8-1.28,2.06-2.04,3.74-2.04,3.19,0,4.88,2.66,4.88,6.1s-1.81,6.17-4.93,6.17Zm-.53-1.56c2.25,.02,3.33-1.83,3.33-4.47,0-2.8-1.05-4.7-3.28-4.68-2.04,0-3.3,1.49-3.3,4.45-.02,2.98,1.17,4.7,3.26,4.7Z"/>
        <path d="M515.67,152.07c-.07,0-.14-.07-.14-.14l.07-7.98-.07-7.8c0-.07,.07-.14,.14-.14h1.81c.07,0,.14,.07,.14,.14l-.07,7.77,.07,8c0,.07-.07,.14-.14,.14h-1.81Z"/>
        <path d="M529.15,147.97c.07,0,.14,.07,.11,.14-.34,2.45-2.11,4.24-5.18,4.24-3.67,0-5.64-2.55-5.64-6.15s2.11-6.21,5.53-6.21,5.46,2.38,5.5,6.33c0,.07-.07,.14-.14,.14h-8.81c.07,2.84,1.26,4.36,3.58,4.36,1.74,0,2.82-.94,3.14-2.71,.02-.07,.09-.14,.16-.14h1.74Zm-5.16-6.47c-1.95,0-3.1,1.26-3.39,3.49h6.63c-.07-1.88-1.15-3.49-3.23-3.49Zm2.25-2.22c-.02,.07-.12,.11-.18,.09l-5.18-1.83c-.07-.02-.11-.11-.09-.18l.5-1.4c.02-.07,.11-.11,.16-.07l5.09,2.36s.09,.14,.07,.21l-.37,.83Z"/>
        <path d="M532.29,147.47l.05,4.47c0,.07-.07,.14-.14,.14h-1.88c-.07,0-.14-.07-.14-.14l.05-4.47-.02-7.06c0-.07,.07-.14,.14-.14h1.77c.07,0,.14,.07,.14,.14l-.05,1.86c.73-1.24,1.88-2.27,3.65-2.27,1.67,0,2.89,.78,3.39,2.48,.85-1.61,2.06-2.48,3.72-2.48,2.32,0,3.69,1.47,3.69,4.68v2.8l.05,4.47c0,.07-.07,.14-.14,.14h-1.86c-.07,0-.14-.07-.14-.14l.05-4.47v-2.71c0-2.2-.89-3.1-2.27-3.1-1.26,0-2.29,1.12-2.8,3.07v2.73l.02,4.47c0,.07-.07,.14-.14,.14h-1.83c-.07,0-.14-.07-.14-.14l.02-4.47v-2.71c0-2.2-.87-3.1-2.25-3.1s-2.48,1.31-2.94,3.58v2.22Z"/>
        <path d="M556.05,152.07c-.07,0-.14-.07-.14-.14l.05-1.74c-.8,1.33-2.09,2.11-3.78,2.11-3.19,0-4.88-2.68-4.88-6.1s1.81-6.17,4.93-6.17c1.67,0,2.94,.71,3.71,2.04l-.04-1.67c0-.07,.07-.14,.14-.14h1.83c.07,0,.14,.07,.14,.14l-.05,5.67,.05,5.87c0,.07-.07,.14-.14,.14h-1.81Zm-3.35-1.31c2.04,0,3.28-1.51,3.3-4.5,.02-2.89-1.1-4.59-3.05-4.7h-.34c-2.18,.05-3.19,1.86-3.19,4.47,0,2.82,1.05,4.72,3.28,4.72Z"/>
        <path d="M565.08,151.8c0,.07-.07,.16-.14,.18-.48,.14-1.08,.3-1.65,.3-1.72,0-3.19-.89-3.19-3.46l.02-6.95h-1.4c-.07,0-.14-.07-.14-.14v-1.33c0-.07,.07-.14,.14-.14h1.4l-.02-2.82c0-.07,.07-.14,.14-.14h1.81c.07,0,.14,.07,.14,.14l-.02,2.82h2.8c.07,0,.14,.07,.14,.14v1.33c0,.07-.07,.14-.14,.14h-2.8l.02,6.9c0,1.42,.48,1.86,1.47,1.86,.48,0,.96-.07,1.29-.16,.07-.02,.14,.02,.14,.09v1.24Z"/>
        <path d="M565.93,139c-.07,0-.14-.07-.14-.14v-2c0-.07,.07-.14,.14-.14h1.86c.07,0,.14,.07,.14,.14v2c0,.07-.07,.14-.14,.14h-1.86Zm0,13.07c-.07,0-.14-.07-.14-.14l.05-5.94-.05-5.6c0-.07,.07-.14,.14-.14h1.86c.07,0,.14,.07,.14,.14l-.05,5.57,.05,5.96c0,.07-.07,.14-.14,.14h-1.86Z"/>
        <path d="M579.43,155.84c0,.07-.07,.14-.14,.14h-1.83c-.07,0-.14-.07-.14-.14l.02-5.57c-.8,1.29-2.06,2.04-3.74,2.04-3.19,0-4.88-2.66-4.88-6.1s1.81-6.17,4.93-6.17c1.67,0,2.94,.71,3.71,2.04l-.04-1.67c0-.07,.07-.14,.14-.14h1.83c.07,0,.14,.07,.14,.14l-.05,7.04,.05,8.39Zm-5.3-5.07c2.04,0,3.28-1.49,3.3-4.47,.02-3-1.17-4.75-3.26-4.75-2.22,0-3.33,1.77-3.33,4.52s1.05,4.7,3.28,4.7Z"/>
        <path d="M584.38,152.35c-2.43,0-3.97-1.61-3.97-4.7v-2.34l-.05-4.91c0-.07,.07-.14,.14-.14h1.86c.07,0,.14,.07,.14,.14l-.05,4.91v2.27c0,2.13,1.01,3.1,2.5,3.1s2.8-1.24,3.26-3.58v-1.79l-.05-4.91c0-.07,.07-.14,.14-.14h1.88c.07,0,.14,.07,.14,.14l-.05,5.25,.02,6.28c0,.07-.07,.14-.14,.14h-1.77c-.07,0-.14-.07-.14-.14l.05-1.88c-.71,1.21-2.04,2.29-3.92,2.29Z"/>
        <path d="M601.74,147.97c.07,0,.14,.07,.11,.14-.34,2.45-2.11,4.24-5.18,4.24-3.67,0-5.64-2.55-5.64-6.15s2.11-6.21,5.53-6.21,5.46,2.38,5.5,6.33c0,.07-.07,.14-.14,.14h-8.81c.07,2.84,1.26,4.36,3.58,4.36,1.74,0,2.82-.94,3.14-2.71,.02-.07,.09-.14,.16-.14h1.74Zm-5.16-6.47c-1.95,0-3.1,1.26-3.39,3.49h6.63c-.07-1.88-1.15-3.49-3.23-3.49Z"/>
        <path d="M607.54,152.33c-3.23,0-5.16-1.4-5.23-4.2,0-.07,.07-.14,.14-.14h1.74c.07,0,.14,.07,.14,.14,.04,1.9,1.19,2.75,3.33,2.75,1.74,0,2.89-.73,2.89-2.04,0-3.1-7.96-.6-7.96-5.37,0-2.27,1.86-3.46,4.66-3.46s4.79,1.17,4.93,3.67c0,.07-.07,.14-.14,.14h-1.67c-.07,0-.14-.07-.14-.14-.14-1.54-1.28-2.25-3-2.25-1.61,0-2.64,.6-2.64,1.9,0,2.94,7.96,.39,7.96,5.34,0,2.32-2.13,3.65-5,3.65Z"/>
        <path d="M621.92,152.35c-3.58,0-5.6-2.43-5.6-6.15s2.02-6.21,5.6-6.21,5.6,2.45,5.6,6.17-2,6.19-5.6,6.19Zm0-1.54c2.32,0,3.46-1.65,3.46-4.61s-1.15-4.68-3.46-4.68c-2.34,.02-3.49,1.72-3.49,4.68s1.17,4.61,3.49,4.61Z"/>
        <path d="M628.36,152.07c-.07,0-.14-.07-.14-.14l.05-5.25-.02-6.28c0-.07,.07-.14,.14-.14h1.77c.07,0,.14,.07,.14,.14l-.05,1.86c.71-1.19,2.04-2.27,3.92-2.27,2.43,0,3.97,1.61,3.97,4.68v2.36l.05,4.91c0,.07-.07,.14-.14,.14h-1.86c-.07,0-.14-.07-.14-.14l.05-4.91v-2.27c0-2.13-1.01-3.1-2.5-3.1s-2.8,1.24-3.26,3.58v1.79l.05,4.91c0,.07-.07,.14-.14,.14h-1.88Z"/>
        <path d="M644.96,151.8c0,.07-.07,.16-.14,.18-.48,.14-1.08,.3-1.65,.3-1.72,0-3.19-.89-3.19-3.46l.02-6.95h-1.4c-.07,0-.14-.07-.14-.14v-1.33c0-.07,.07-.14,.14-.14h1.4l-.02-2.82c0-.07,.07-.14,.14-.14h1.81c.07,0,.14,.07,.14,.14l-.02,2.82h2.8c.07,0,.14,.07,.14,.14v1.33c0,.07-.07,.14-.14,.14h-2.8l.02,6.9c0,1.42,.48,1.86,1.47,1.86,.48,0,.96-.07,1.29-.16,.07-.02,.14,.02,.14,.09v1.24Z"/>
        <path d="M654.15,152.35c-3.53,0-5.53-2.43-5.53-6.15s2-6.21,5.57-6.21c2.96,0,4.75,1.7,5,4.22,0,.07-.07,.14-.14,.14h-1.67c-.07,0-.14-.07-.16-.14-.28-1.7-1.35-2.66-3.03-2.66-2.34,0-3.44,1.7-3.44,4.63s1.1,4.61,3.44,4.63c1.86,0,3-1.15,3.16-3.05,0-.07,.07-.14,.14-.14h1.7c.07,0,.14,.07,.14,.14-.23,2.66-2.11,4.59-5.18,4.59Z"/>
        <path d="M665.23,152.35c-3.58,0-5.6-2.43-5.6-6.15s2.02-6.21,5.6-6.21,5.6,2.45,5.6,6.17-2,6.19-5.6,6.19Zm0-1.54c2.32,0,3.46-1.65,3.46-4.61s-1.15-4.68-3.46-4.68c-2.34,.02-3.49,1.72-3.49,4.68s1.17,4.61,3.49,4.61Z"/>
        <path d="M671.67,152.07c-.07,0-.14-.07-.14-.14l.05-5.25-.02-6.28c0-.07,.07-.14,.14-.14h1.77c.07,0,.14,.07,.14,.14l-.05,1.86c.71-1.19,2.04-2.27,3.92-2.27,2.43,0,3.97,1.61,3.97,4.68v2.36l.05,4.91c0,.07-.07,.14-.14,.14h-1.86c-.07,0-.14-.07-.14-.14l.05-4.91v-2.27c0-2.13-1.01-3.1-2.5-3.1s-2.8,1.24-3.26,3.58v1.79l.05,4.91c0,.07-.07,.14-.14,.14h-1.88Z"/>
        <path d="M690.82,152.07c-.07,0-.14-.07-.14-.14l.04-1.72c-.78,1.31-2.06,2.09-3.76,2.09-3.19,0-4.88-2.66-4.88-6.1s1.81-6.17,4.93-6.17c1.63,0,2.89,.69,3.69,1.97l-.02-5.85c0-.07,.07-.14,.14-.14h1.83c.07,0,.14,.07,.14,.14l-.05,7.02,.05,8.76c0,.07-.07,.14-.14,.14h-1.83Zm-3.33-1.28c2.04,0,3.28-1.51,3.3-4.52,.02-2.98-1.17-4.72-3.26-4.75-2.27-.02-3.33,1.86-3.33,4.52,0,2.84,1.05,4.75,3.28,4.75Z"/>
        <path d="M697.74,152.35c-2.43,0-3.97-1.61-3.97-4.7v-2.34l-.05-4.91c0-.07,.07-.14,.14-.14h1.86c.07,0,.14,.07,.14,.14l-.05,4.91v2.27c0,2.13,1.01,3.1,2.5,3.1s2.8-1.24,3.26-3.58v-1.79l-.05-4.91c0-.07,.07-.14,.14-.14h1.88c.07,0,.14,.07,.14,.14l-.05,5.25,.02,6.28c0,.07-.07,.14-.14,.14h-1.77c-.07,0-.14-.07-.14-.14l.05-1.88c-.71,1.21-2.04,2.29-3.92,2.29Z"/>
        <path d="M704.96,139c-.07,0-.14-.07-.14-.14v-2c0-.07,.07-.14,.14-.14h1.86c.07,0,.14,.07,.14,.14v2c0,.07-.07,.14-.14,.14h-1.86Zm0,13.07c-.07,0-.14-.07-.14-.14l.05-5.94-.05-5.6c0-.07,.07-.14,.14-.14h1.86c.07,0,.14,.07,.14,.14l-.05,5.57,.05,5.96c0,.07-.07,.14-.14,.14h-1.86Z"/>
        <path d="M714.13,151.8c0,.07-.07,.16-.14,.18-.48,.14-1.08,.3-1.65,.3-1.72,0-3.19-.89-3.19-3.46l.02-6.95h-1.4c-.07,0-.14-.07-.14-.14v-1.33c0-.07,.07-.14,.14-.14h1.4l-.02-2.82c0-.07,.07-.14,.14-.14h1.81c.07,0,.14,.07,.14,.14l-.02,2.82h2.8c.07,0,.14,.07,.14,.14v1.33c0,.07-.07,.14-.14,.14h-2.8l.02,6.9c0,1.42,.48,1.86,1.47,1.86,.48,0,.96-.07,1.28-.16,.07-.02,.14,.02,.14,.09v1.24Z"/>
        <path d="M410.66,179.59c-.07,0-.14-.07-.14-.14l.05-1.74c-.8,1.33-2.09,2.11-3.78,2.11-3.19,0-4.88-2.68-4.88-6.1s1.81-6.17,4.93-6.17c1.67,0,2.94,.71,3.71,2.04l-.04-1.67c0-.07,.07-.14,.14-.14h1.83c.07,0,.14,.07,.14,.14l-.05,5.67,.05,5.87c0,.07-.07,.14-.14,.14h-1.81Zm-1.24-12.8c-.02,.07-.12,.12-.18,.09l-5.18-1.83c-.07-.02-.11-.12-.09-.18l.5-1.4c.02-.07,.12-.11,.16-.07l5.09,2.36s.09,.14,.07,.21l-.37,.83Zm-2.11,11.49c2.04,0,3.28-1.51,3.3-4.5,.02-2.89-1.1-4.59-3.05-4.7h-.34c-2.18,.05-3.19,1.86-3.19,4.47,0,2.82,1.05,4.72,3.28,4.72Z"/>
        <path d="M421.14,179.86c-2.43,0-3.97-1.61-3.97-4.7v-2.34l-.05-4.91c0-.07,.07-.14,.14-.14h1.86c.07,0,.14,.07,.14,.14l-.05,4.91v2.27c0,2.13,1.01,3.1,2.5,3.1s2.8-1.24,3.26-3.58v-1.79l-.05-4.91c0-.07,.07-.14,.14-.14h1.88c.07,0,.14,.07,.14,.14l-.05,5.25,.02,6.28c0,.07-.07,.14-.14,.14h-1.77c-.07,0-.14-.07-.14-.14l.05-1.88c-.71,1.21-2.04,2.29-3.92,2.29Z"/>
        <path d="M428.27,179.59c-.07,0-.14-.07-.14-.14l.05-5.25-.02-6.28c0-.07,.07-.14,.14-.14h1.77c.07,0,.14,.07,.14,.14l-.05,1.86c.71-1.19,2.04-2.27,3.92-2.27,2.43,0,3.97,1.61,3.97,4.68v2.36l.05,4.91c0,.07-.07,.14-.14,.14h-1.86c-.07,0-.14-.07-.14-.14l.05-4.91v-2.27c0-2.13-1.01-3.1-2.5-3.1s-2.8,1.24-3.26,3.58v1.79l.05,4.91c0,.07-.07,.14-.14,.14h-1.88Z"/>
        <path d="M449.39,175.48c.07,0,.14,.07,.11,.14-.34,2.45-2.11,4.24-5.18,4.24-3.67,0-5.64-2.54-5.64-6.15s2.11-6.21,5.53-6.21,5.46,2.38,5.5,6.33c0,.07-.07,.14-.14,.14h-8.81c.07,2.84,1.26,4.36,3.58,4.36,1.74,0,2.82-.94,3.14-2.71,.02-.07,.09-.14,.16-.14h1.74Zm-5.16-6.47c-1.95,0-3.1,1.26-3.39,3.49h6.63c-.07-1.88-1.15-3.49-3.23-3.49Z"/>
        <path class="cls-1" d="M459.11,179.86c-3.51,0-5.6-1.4-5.69-4.06,0-.09,.09-.18,.18-.18h2.98c.09,0,.18,.07,.18,.18,.07,1.33,.94,1.93,2.57,1.93,1.35,0,2.09-.53,2.09-1.44,0-2.25-7.73-.07-7.73-5.02,0-2.45,1.97-3.76,5.16-3.76s5.21,1.24,5.39,3.74c.02,.09-.07,.18-.16,.18h-2.84c-.09,0-.18-.07-.21-.18-.18-1.01-.83-1.65-2.22-1.65-1.12,0-1.83,.41-1.83,1.42,0,2.25,7.73-.05,7.73,4.98,0,2.48-2.34,3.88-5.6,3.88Z"/>
        <path class="cls-1" d="M469.29,179.86c-2.5,0-4.13-1.7-4.13-4.59v-2.48l-.05-4.84c0-.09,.09-.18,.18-.18h3.12c.09,0,.18,.09,.18,.18l-.05,4.84v2.43c0,1.29,.76,2.11,1.79,2.11,1.24,0,2.57-1.15,2.57-3.67v-.87l-.04-4.84c0-.09,.09-.18,.18-.18h3.17c.09,0,.18,.09,.18,.18l-.05,5.48v5.96c0,.09-.09,.18-.18,.18h-2.96c-.09,0-.18-.09-.18-.18l.07-1.31c-.8,1.03-2.16,1.77-3.81,1.77Z"/>
        <path class="cls-1" d="M483.98,179.82c-1.42,0-2.57-.51-3.37-1.45l.05,4.93c0,.09-.09,.18-.18,.18h-3.12c-.09,0-.18-.09-.18-.18l.05-8.51-.05-6.83c0-.09,.09-.18,.18-.18h3.1c.09,0,.18,.09,.18,.18l-.07,1.19c.83-1.01,2-1.61,3.49-1.61,3.35,0,5.11,2.66,5.11,6.1s-1.97,6.17-5.18,6.17Zm-.96-2.32c1.74,0,2.64-1.26,2.64-3.67,0-2.62-.89-3.95-2.57-3.95s-2.57,1.26-2.59,3.72c-.02,2.5,.87,3.9,2.52,3.9Z"/>
        <path class="cls-1" d="M496.53,179.82c-1.42,0-2.57-.51-3.37-1.45l.05,4.93c0,.09-.09,.18-.18,.18h-3.12c-.09,0-.18-.09-.18-.18l.05-8.51-.05-6.83c0-.09,.09-.18,.18-.18h3.1c.09,0,.18,.09,.18,.18l-.07,1.19c.83-1.01,2-1.61,3.49-1.61,3.35,0,5.11,2.66,5.11,6.1s-1.97,6.17-5.18,6.17Zm-.96-2.32c1.74,0,2.64-1.26,2.64-3.67,0-2.62-.89-3.95-2.57-3.95s-2.57,1.26-2.59,3.72c-.02,2.5,.87,3.9,2.52,3.9Z"/>
        <path class="cls-1" d="M502.44,179.59c-.09,0-.18-.09-.18-.18l.07-5.73-.07-5.71c0-.09,.09-.18,.18-.18h3.05c.09,0,.18,.09,.18,.18l-.09,1.81c.92-1.4,2.5-2.09,4.22-2.09,.18,0,.39,.02,.55,.05,.09,.02,.18,.14,.18,.23v2.18c0,.09-.09,.16-.18,.16-.14-.02-.32-.02-.46-.02-2.43,0-4.22,1.35-4.22,4.06v5.07c0,.09-.09,.18-.18,.18h-3.05Z"/>
        <path class="cls-1" d="M521.7,175.6c.09,0,.18,.09,.16,.18-.27,2.18-2.34,4.11-5.66,4.11-3.95,0-6.08-2.59-6.08-6.17,0-3.76,2.25-6.24,6.01-6.24s6.03,2.59,6.1,6.72c0,.09-.09,.18-.18,.18h-8.46c.14,2.22,1.01,3.21,2.66,3.21,1.17,0,2-.53,2.29-1.81,.02-.12,.14-.18,.23-.18h2.94Zm-5.55-5.85c-1.38,0-2.2,.83-2.48,2.45h4.84c-.14-1.26-.85-2.45-2.36-2.45Z"/>
        <path class="cls-1" d="M527.98,179.86c-3.51,0-5.6-1.4-5.69-4.06,0-.09,.09-.18,.18-.18h2.98c.09,0,.18,.07,.18,.18,.07,1.33,.94,1.93,2.57,1.93,1.35,0,2.09-.53,2.09-1.44,0-2.25-7.73-.07-7.73-5.02,0-2.45,1.97-3.76,5.16-3.76s5.21,1.24,5.39,3.74c.02,.09-.07,.18-.16,.18h-2.84c-.09,0-.18-.07-.21-.18-.18-1.01-.83-1.65-2.22-1.65-1.12,0-1.83,.41-1.83,1.42,0,2.25,7.73-.05,7.73,4.98,0,2.48-2.34,3.88-5.6,3.88Z"/>
        <path class="cls-1" d="M539.54,179.86c-3.51,0-5.6-1.4-5.69-4.06,0-.09,.09-.18,.18-.18h2.98c.09,0,.18,.07,.18,.18,.07,1.33,.94,1.93,2.57,1.93,1.35,0,2.09-.53,2.09-1.44,0-2.25-7.73-.07-7.73-5.02,0-2.45,1.97-3.76,5.16-3.76s5.21,1.24,5.39,3.74c.02,.09-.07,.18-.16,.18h-2.84c-.09,0-.18-.07-.21-.18-.18-1.01-.83-1.65-2.22-1.65-1.12,0-1.83,.41-1.83,1.42,0,2.25,7.73-.05,7.73,4.98,0,2.48-2.34,3.88-5.6,3.88Z"/>
        <path class="cls-1" d="M545.91,166.63c-.09,0-.18-.09-.18-.18v-2.73c0-.09,.09-.18,.18-.18h3.12c.09,0,.18,.09,.18,.18v2.73c0,.09-.09,.18-.18,.18h-3.12Zm0,12.96c-.09,0-.18-.09-.18-.18l.05-5.71-.05-5.73c0-.09,.09-.18,.18-.18h3.12c.09,0,.18,.09,.18,.18l-.05,5.73,.05,5.71c0,.09-.09,.18-.18,.18h-3.12Z"/>
        <path class="cls-1" d="M555.91,179.89c-3.85,0-6.08-2.41-6.08-6.17s2.22-6.24,6.08-6.24,6.03,2.41,6.03,6.17-2.18,6.24-6.03,6.24Zm0-2.29c1.7,0,2.5-1.17,2.5-3.88s-.83-3.94-2.52-3.94c-1.74,.02-2.54,1.31-2.54,3.97s.85,3.85,2.57,3.85Z"/>
        <path class="cls-1" d="M562.67,179.59c-.09,0-.18-.09-.18-.18l.05-5.48v-5.96c0-.09,.09-.18,.18-.18h2.96c.09,0,.18,.09,.18,.18l-.07,1.31c.8-1.03,2.16-1.77,3.81-1.77,2.5,0,4.13,1.7,4.13,4.59v2.48l.05,4.84c0,.09-.09,.18-.18,.18h-3.12c-.09,0-.18-.09-.18-.18l.05-4.84v-2.43c0-1.28-.76-2.11-1.79-2.11-1.24,0-2.57,1.15-2.57,3.67v.87l.05,4.84c0,.09-.09,.18-.18,.18h-3.17Z"/>
        <path class="cls-1" d="M587.09,179.59c-.09,0-.18-.09-.18-.18l.07-1.19c-.83,1.01-2,1.61-3.49,1.61-3.35,0-5.11-2.66-5.11-6.1s1.97-6.17,5.18-6.17c1.44,0,2.57,.5,3.37,1.44v-5.27c0-.09,.09-.18,.18-.18h3.07c.09,0,.18,.09,.18,.18l-.02,7.84,.02,7.84c0,.09-.09,.18-.18,.18h-3.1Zm-2.64-2.04c1.67,0,2.57-1.26,2.59-3.76,.02-2.55-.87-3.94-2.52-3.97-1.74-.05-2.64,1.29-2.64,3.74,0,2.66,.92,4.01,2.57,3.99Z"/>
        <path class="cls-1" d="M602.5,175.6c.09,0,.18,.09,.16,.18-.27,2.18-2.34,4.11-5.66,4.11-3.95,0-6.08-2.59-6.08-6.17,0-3.76,2.25-6.24,6.01-6.24s6.03,2.59,6.1,6.72c0,.09-.09,.18-.18,.18h-8.46c.14,2.22,1.01,3.21,2.66,3.21,1.17,0,2-.53,2.29-1.81,.02-.12,.14-.18,.23-.18h2.94Zm-5.55-5.85c-1.38,0-2.2,.83-2.48,2.45h4.84c-.14-1.26-.85-2.45-2.36-2.45Z"/>
        <path class="cls-1" d="M613.32,179.89c-3.78,0-6.03-2.41-6.03-6.17s2.25-6.24,6.1-6.24c3.05,0,5.02,1.72,5.28,4.31,.02,.09-.07,.18-.16,.18h-2.82c-.09,0-.18-.07-.21-.18-.25-1.35-1.1-2-2.09-2-1.74,.02-2.57,1.29-2.57,3.9s.85,3.88,2.57,3.9c1.17,.02,2.04-.8,2.18-2.36,.02-.11,.12-.18,.21-.18h2.89c.09,0,.18,.09,.16,.18-.23,2.71-2.41,4.66-5.5,4.66Z"/>
        <path class="cls-1" d="M625.15,179.89c-3.85,0-6.08-2.41-6.08-6.17s2.22-6.24,6.08-6.24,6.03,2.41,6.03,6.17-2.18,6.24-6.03,6.24Zm0-2.29c1.7,0,2.5-1.17,2.5-3.88s-.83-3.94-2.52-3.94c-1.74,.02-2.55,1.31-2.55,3.97s.85,3.85,2.57,3.85Z"/>
        <path class="cls-1" d="M631.91,179.59c-.09,0-.18-.09-.18-.18l.05-5.48v-5.96c0-.09,.09-.18,.18-.18h2.96c.09,0,.18,.09,.18,.18l-.07,1.31c.8-1.03,2.16-1.77,3.81-1.77,2.5,0,4.13,1.7,4.13,4.59v2.48l.05,4.84c0,.09-.09,.18-.18,.18h-3.12c-.09,0-.18-.09-.18-.18l.05-4.84v-2.43c0-1.28-.76-2.11-1.79-2.11-1.24,0-2.57,1.15-2.57,3.67v.87l.05,4.84c0,.09-.09,.18-.18,.18h-3.17Z"/>
        <path class="cls-1" d="M650.79,179.18c0,.11-.07,.21-.18,.25-.67,.21-1.42,.39-2.16,.39-2,0-3.9-1.01-3.9-3.69l.02-5.92h-1.35c-.09,0-.18-.09-.18-.18v-2.06c0-.09,.09-.18,.18-.18h1.35l-.02-2.78c0-.09,.09-.18,.18-.18h3.07c.09,0,.18,.09,.18,.18l-.02,2.78h2.66c.09,0,.18,.09,.18,.18v2.06c0,.09-.09,.18-.18,.18h-2.66l.02,5.82c0,1.01,.5,1.33,1.26,1.33,.57,0,1.01-.09,1.35-.21,.09-.02,.18,.05,.18,.14v1.88Z"/>
        <path class="cls-1" d="M662.3,175.6c.09,0,.18,.09,.16,.18-.27,2.18-2.34,4.11-5.66,4.11-3.95,0-6.08-2.59-6.08-6.17,0-3.76,2.25-6.24,6.01-6.24s6.03,2.59,6.1,6.72c0,.09-.09,.18-.18,.18h-8.46c.14,2.22,1.01,3.21,2.66,3.21,1.17,0,2-.53,2.29-1.81,.02-.12,.14-.18,.23-.18h2.94Zm-5.55-5.85c-1.38,0-2.2,.83-2.48,2.45h4.84c-.14-1.26-.85-2.45-2.36-2.45Z"/>
        <path class="cls-1" d="M663.56,179.59c-.09,0-.18-.09-.18-.18l.05-5.48v-5.96c0-.09,.09-.18,.18-.18h2.96c.09,0,.18,.09,.18,.18l-.07,1.31c.8-1.03,2.16-1.77,3.81-1.77,2.5,0,4.13,1.7,4.13,4.59v2.48l.05,4.84c0,.09-.09,.18-.18,.18h-3.12c-.09,0-.18-.09-.18-.18l.05-4.84v-2.43c0-1.28-.76-2.11-1.79-2.11-1.24,0-2.57,1.15-2.57,3.67v.87l.05,4.84c0,.09-.09,.18-.18,.18h-3.17Z"/>
        <path class="cls-1" d="M679.38,179.86c-2.5,0-4.13-1.7-4.13-4.59v-2.48l-.05-4.84c0-.09,.09-.18,.18-.18h3.12c.09,0,.18,.09,.18,.18l-.05,4.84v2.43c0,1.29,.76,2.11,1.79,2.11,1.24,0,2.57-1.15,2.57-3.67v-.87l-.04-4.84c0-.09,.09-.18,.18-.18h3.17c.09,0,.18,.09,.18,.18l-.05,5.48v5.96c0,.09-.09,.18-.18,.18h-2.96c-.09,0-.18-.09-.18-.18l.07-1.31c-.8,1.03-2.16,1.77-3.81,1.77Z"/>
        <path class="cls-1" d="M687.29,179.59c-.09,0-.18-.09-.18-.18v-2.91c0-.09,.09-.18,.18-.18h3.21c.09,0,.18,.09,.18,.18v2.91c0,.09-.09,.18-.18,.18h-3.21Z"/>
      </g>
      <g>
        <path class="cls-2" d="M409.37,197.6s.07,.04,.06,.08c-.51,1.81-1.85,2.96-3.8,2.96-2.22,0-3.72-1.46-3.72-3.58,0-2.81,1.79-5.08,4.58-5.08,1.88,0,3.39,1.09,3.41,3.15,0,.05-.04,.08-.08,.08h-1.26s-.08-.04-.08-.08c-.02-1.14-.77-1.97-2.1-1.97-2.01,0-2.95,1.94-2.95,3.88,0,1.51,.84,2.42,2.22,2.42,1.11,0,1.97-.55,2.34-1.78,.01-.05,.06-.08,.11-.08h1.28Z"/>
        <path class="cls-2" d="M409.1,200.48s-.07-.04-.06-.08l.67-2.79,1.21-5.36s.06-.08,.11-.08h1.28s.07,.04,.06,.08l-.74,2.96c.46-.55,1.19-.99,1.99-.99,1.33,0,2.06,.86,1.75,2.4l-.25,1.26-.57,2.52s-.06,.08-.11,.08h-1.3s-.07-.04-.06-.08l.63-2.52,.27-1.22c.2-.86-.21-1.32-.93-1.32s-1.44,.61-1.83,1.88l-.15,.67-.56,2.52s-.06,.08-.11,.08h-1.31Z"/>
        <path class="cls-2" d="M415.17,200.48s-.07-.04-.06-.08l.71-3.02,.65-2.94s.06-.08,.11-.08h1.28s.07,.04,.06,.08l-.7,2.94-.67,3.02s-.06,.08-.11,.08h-1.28Zm1.56-6.74s-.07-.04-.07-.08l.29-1.25s.05-.08,.09-.08h1.28s.07,.04,.07,.08l-.29,1.25s-.05,.08-.1,.08h-1.28Z"/>
        <path class="cls-2" d="M419.94,197.76l-.57,2.64s-.05,.08-.09,.08h-1.36s-.07-.04-.06-.08l.64-2.64,.57-2.33h-.87s-.07-.04-.06-.08l.2-.9s.06-.08,.11-.08h.87l.11-.46c.31-1.37,1.3-1.87,2.22-1.87,.34,0,.7,.05,.95,.09,.05,0,.07,.05,.06,.1l-.19,.89s-.06,.07-.11,.06c-.17-.05-.37-.07-.63-.07-.43,0-.77,.24-.94,.93l-.07,.33h1.35s.07,.04,.06,.08l-.19,.9s-.06,.08-.11,.08h-1.36l-.55,2.33Z"/>
        <path class="cls-2" d="M423.92,197.76l-.57,2.64s-.05,.08-.09,.08h-1.36s-.07-.04-.06-.08l.64-2.64,.57-2.33h-.87s-.07-.04-.06-.08l.2-.9s.06-.08,.11-.08h.87l.11-.46c.31-1.37,1.3-1.87,2.22-1.87,.34,0,.7,.05,.95,.09,.05,0,.07,.05,.06,.1l-.19,.89s-.06,.07-.11,.06c-.17-.05-.37-.07-.63-.07-.43,0-.77,.24-.94,.93l-.07,.33h1.35s.07,.04,.06,.08l-.19,.9s-.06,.08-.11,.08h-1.36l-.55,2.33Z"/>
        <path class="cls-2" d="M425.22,200.48s-.07-.04-.06-.08l.71-3.01,.65-2.95s.06-.08,.11-.08h1.24s.07,.04,.06,.08l-.25,1.01c.62-.75,1.45-1.14,2.29-1.14,.11,0,.23,.01,.32,.04,.05,0,.07,.05,.07,.1l-.21,.95s-.06,.08-.11,.07c-.08-.01-.19-.01-.29-.01-1.02,0-2.1,.76-2.5,2.02l-.68,2.92s-.06,.08-.11,.08h-1.26Z"/>
        <path class="cls-2" d="M435.16,198.39s.07,.04,.06,.08c-.32,1.19-1.28,2.15-3.08,2.15s-2.66-1.11-2.66-2.6c0-1.78,1.09-3.8,3.54-3.8,1.89,0,2.96,1.3,2.48,3.39-.01,.05-.06,.08-.11,.08h-4.49c-.01,.11-.01,.21-.01,.32,0,1.02,.39,1.6,1.32,1.6,.83,0,1.4-.37,1.64-1.14,.01-.05,.06-.08,.11-.08h1.2Zm-2.27-3.17c-.92,0-1.53,.61-1.82,1.51h3.08c.17-.8-.31-1.51-1.26-1.51Z"/>
        <path class="cls-2" d="M440.89,198.57c0,1.18-1.08,2.06-2.7,2.06-1.72,0-3.01-.84-2.85-2.15,0-.05,.05-.08,.1-.08h1.22s.08,.04,.08,.08c-.02,.76,.56,1.2,1.53,1.2,.78,0,1.19-.38,1.19-.86,0-1.15-3.46-.56-3.46-2.67,0-.99,.95-1.93,2.7-1.93,1.35,0,2.63,.64,2.57,1.93-.01,.05-.05,.08-.09,.08h-1.18s-.08-.04-.08-.08c0-.61-.48-1-1.28-1-.76,0-1.18,.39-1.18,.86,0,1.13,3.43,.55,3.43,2.57Z"/>
        <path class="cls-2" d="M445.34,197.76l-.57,2.64s-.05,.08-.09,.08h-1.36s-.07-.04-.06-.08l.64-2.64,.57-2.33h-.87s-.07-.04-.06-.08l.2-.9s.06-.08,.11-.08h.87l.11-.46c.31-1.37,1.3-1.87,2.22-1.87,.34,0,.7,.05,.95,.09,.05,0,.07,.05,.06,.1l-.19,.89s-.06,.07-.11,.06c-.17-.05-.37-.07-.63-.07-.43,0-.77,.24-.94,.93l-.07,.33h1.35s.07,.04,.06,.08l-.19,.9s-.06,.08-.11,.08h-1.36l-.55,2.33Z"/>
        <path class="cls-2" d="M450.16,194.21c1.59,0,2.67,.99,2.67,2.57,0,2.16-1.43,3.84-3.47,3.84-1.58,0-2.7-.99-2.7-2.58,0-2.22,1.45-3.83,3.49-3.83Zm-.75,5.4c1.19,0,1.97-1.11,1.97-2.89,0-.97-.49-1.5-1.3-1.5-1.19,0-1.97,1.14-1.97,2.91,0,.96,.46,1.47,1.29,1.47Z"/>
        <path class="cls-2" d="M459.22,194.36s.07,.04,.06,.08l-.67,2.79-.7,3.16s-.06,.08-.11,.08h-1.22s-.07-.04-.06-.08l.23-.81c-.49,.57-1.21,1.03-2.03,1.03-1.33,0-2.07-.86-1.75-2.4l.26-1.26,.58-2.52s.06-.08,.11-.08h1.25s.07,.04,.06,.08l-.59,2.52-.29,1.22c-.2,.86,.21,1.32,.94,1.32,.68,0,1.44-.61,1.82-1.88l.16-.67,.58-2.52s.06-.08,.11-.08h1.27Z"/>
        <path class="cls-2" d="M458.55,200.48s-.07-.04-.06-.08l.71-3.01,.65-2.95s.06-.08,.11-.08h1.24s.07,.04,.06,.08l-.25,1.01c.62-.75,1.45-1.14,2.29-1.14,.11,0,.23,.01,.32,.04,.05,0,.07,.05,.07,.1l-.21,.95s-.06,.08-.11,.07c-.08-.01-.19-.01-.29-.01-1.02,0-2.1,.76-2.5,2.02l-.68,2.92s-.06,.08-.11,.08h-1.26Z"/>
        <path class="cls-2" d="M462.6,200.48s-.07-.04-.06-.08l.67-2.79,.71-3.16s.06-.08,.11-.08h1.22s.07,.04,.06,.08l-.21,.81c.49-.57,1.2-1.04,2.02-1.04,1.33,0,2.08,.86,1.75,2.4l-.27,1.26-.56,2.52s-.05,.08-.09,.08h-1.3s-.07-.04-.06-.08l.63-2.52,.27-1.22c.2-.86-.21-1.32-.93-1.32s-1.44,.61-1.83,1.88l-.15,.67-.56,2.52s-.06,.08-.11,.08h-1.31Z"/>
        <path class="cls-2" d="M468.68,200.48s-.07-.04-.06-.08l.71-3.02,.65-2.94s.06-.08,.11-.08h1.28s.07,.04,.06,.08l-.7,2.94-.67,3.02s-.06,.08-.11,.08h-1.28Zm1.56-6.74s-.07-.04-.07-.08l.29-1.25s.05-.08,.09-.08h1.28s.07,.04,.07,.08l-.29,1.25s-.05,.08-.1,.08h-1.28Z"/>
        <path class="cls-2" d="M476.5,198.57c0,1.18-1.08,2.06-2.7,2.06-1.72,0-3.01-.84-2.85-2.15,0-.05,.05-.08,.1-.08h1.22s.08,.04,.08,.08c-.02,.76,.56,1.2,1.53,1.2,.78,0,1.19-.38,1.19-.86,0-1.15-3.46-.56-3.46-2.67,0-.99,.95-1.93,2.7-1.93,1.35,0,2.63,.64,2.57,1.93-.01,.05-.05,.08-.09,.08h-1.18s-.08-.04-.08-.08c0-.61-.48-1-1.28-1-.76,0-1.18,.39-1.18,.86,0,1.13,3.43,.55,3.43,2.57Z"/>
        <path class="cls-2" d="M481.77,200.6c-.9,0-1.59-.4-1.93-1.16l-.67,2.98s-.06,.08-.11,.08h-1.28s-.07-.04-.06-.08l1.06-4.5,.77-3.47s.06-.08,.11-.08h1.26s.07,.04,.06,.08l-.14,.54c.46-.46,1.05-.74,1.75-.74,1.58,0,2.51,1.4,2.13,3.42-.25,1.47-1.19,2.94-2.95,2.94Zm-.3-1.01c1.01,0,1.6-.83,1.81-2.08,.25-1.44-.23-2.26-1.21-2.26s-1.59,.84-1.79,2.07c-.26,1.47,.26,2.27,1.2,2.27Z"/>
        <path class="cls-2" d="M488.76,200.48s-.07-.04-.06-.08l.15-.58c-.48,.49-1.07,.77-1.79,.77-1.64,0-2.56-1.49-2.06-3.59,.33-1.44,1.29-2.75,2.95-2.75,.92,0,1.59,.39,1.91,1.13l.2-.94s.05-.08,.09-.08h1.27s.07,.04,.06,.08l-.69,2.96-.68,3s-.06,.08-.11,.08h-1.26Zm-1.18-.9c.87,.01,1.5-.63,1.81-1.88,.36-1.56-.11-2.4-1.08-2.44h-.15c-.87,.04-1.45,.72-1.71,1.89-.36,1.51,.08,2.44,1.14,2.42Z"/>
        <path class="cls-2" d="M490.76,200.48s-.07-.04-.06-.08l.71-3.01,.65-2.95s.06-.08,.11-.08h1.24s.07,.04,.06,.08l-.25,1.01c.62-.75,1.45-1.14,2.29-1.14,.11,0,.23,.01,.32,.04,.05,0,.07,.05,.07,.1l-.21,.95s-.06,.08-.11,.07c-.08-.01-.19-.01-.29-.01-1.02,0-2.1,.76-2.5,2.02l-.68,2.92s-.06,.08-.11,.08h-1.26Z"/>
        <path class="cls-2" d="M496.38,200.48s-.07-.04-.06-.08l.98-4.1,.9-4.05s.06-.08,.11-.08h1.25s.07,.04,.06,.08l-.96,4.05-.92,4.1s-.06,.08-.11,.08h-1.25Z"/>
        <path class="cls-2" d="M502.68,200.48s-.07-.04-.06-.08l.15-.58c-.48,.49-1.07,.77-1.79,.77-1.64,0-2.56-1.49-2.06-3.59,.33-1.44,1.29-2.75,2.95-2.75,.92,0,1.59,.39,1.91,1.13l.2-.94s.05-.08,.09-.08h1.27s.07,.04,.06,.08l-.69,2.96-.68,3s-.06,.08-.11,.08h-1.26Zm-1.18-.9c.87,.01,1.5-.63,1.81-1.88,.36-1.56-.11-2.4-1.08-2.44h-.15c-.87,.04-1.45,.72-1.71,1.89-.36,1.51,.08,2.44,1.14,2.42Z"/>
        <path class="cls-2" d="M509.94,200.6c-.9,0-1.59-.4-1.93-1.16l-.67,2.98s-.06,.08-.11,.08h-1.28s-.07-.04-.06-.08l1.06-4.5,.77-3.47s.06-.08,.11-.08h1.26s.07,.04,.06,.08l-.14,.54c.46-.46,1.05-.74,1.75-.74,1.58,0,2.51,1.4,2.13,3.42-.25,1.47-1.19,2.94-2.95,2.94Zm-.3-1.01c1.01,0,1.6-.83,1.81-2.08,.25-1.44-.23-2.26-1.21-2.26s-1.59,.84-1.79,2.07c-.26,1.47,.26,2.27,1.2,2.27Z"/>
        <path class="cls-2" d="M512.73,200.48s-.07-.04-.06-.08l.98-4.1,.9-4.05s.06-.08,.11-.08h1.25s.07,.04,.06,.08l-.96,4.05-.92,4.1s-.06,.08-.11,.08h-1.25Z"/>
        <path class="cls-2" d="M519.03,200.48s-.07-.04-.06-.08l.15-.58c-.48,.49-1.07,.77-1.79,.77-1.64,0-2.56-1.49-2.06-3.59,.33-1.44,1.29-2.75,2.95-2.75,.92,0,1.59,.39,1.91,1.13l.2-.94s.05-.08,.09-.08h1.27s.07,.04,.06,.08l-.69,2.96-.68,3s-.06,.08-.11,.08h-1.26Zm-1.18-.9c.87,.01,1.5-.63,1.81-1.88,.36-1.56-.11-2.4-1.08-2.44h-.15c-.87,.04-1.45,.72-1.71,1.89-.36,1.51,.08,2.44,1.14,2.42Z"/>
        <path class="cls-2" d="M524.35,200.3s-.06,.1-.11,.11c-.31,.1-.69,.18-1.03,.18-.96,0-1.72-.49-1.4-1.85l.77-3.3h-.71s-.07-.04-.06-.08l.2-.9s.06-.08,.11-.08h.71l.31-1.45s.05-.08,.09-.08h1.31s.07,.04,.06,.08l-.34,1.45h1.39s.07,.04,.06,.08l-.19,.9s-.06,.08-.11,.08h-1.42l-.75,3.27c-.16,.62,.05,.81,.51,.81,.27,0,.52-.05,.71-.09,.05-.01,.07,.02,.06,.06l-.18,.83Z"/>
        <path class="cls-2" d="M530.53,198.39s.07,.04,.06,.08c-.32,1.19-1.28,2.15-3.08,2.15s-2.66-1.11-2.66-2.6c0-1.78,1.09-3.8,3.54-3.8,1.89,0,2.96,1.3,2.48,3.39-.01,.05-.06,.08-.11,.08h-4.49c-.01,.11-.01,.21-.01,.32,0,1.02,.39,1.6,1.32,1.6,.83,0,1.4-.37,1.64-1.14,.01-.05,.06-.08,.11-.08h1.2Zm-2.27-3.17c-.92,0-1.53,.61-1.82,1.51h3.08c.17-.8-.31-1.51-1.26-1.51Z"/>
        <path class="cls-2" d="M533.03,197.76l-.57,2.64s-.05,.08-.09,.08h-1.36s-.07-.04-.06-.08l.64-2.64,.57-2.33h-.87s-.07-.04-.06-.08l.2-.9s.06-.08,.11-.08h.87l.11-.46c.31-1.37,1.3-1.87,2.22-1.87,.34,0,.7,.05,.95,.09,.05,0,.07,.05,.06,.1l-.19,.89s-.06,.07-.11,.06c-.17-.05-.37-.07-.63-.07-.43,0-.77,.24-.94,.93l-.07,.33h1.35s.07,.04,.06,.08l-.19,.9s-.06,.08-.11,.08h-1.36l-.55,2.33Z"/>
        <path class="cls-2" d="M537.85,194.21c1.59,0,2.67,.99,2.67,2.57,0,2.16-1.43,3.84-3.47,3.84-1.58,0-2.7-.99-2.7-2.58,0-2.22,1.45-3.83,3.49-3.83Zm-.75,5.4c1.19,0,1.97-1.11,1.97-2.89,0-.97-.49-1.5-1.3-1.5-1.19,0-1.97,1.14-1.97,2.91,0,.96,.46,1.47,1.29,1.47Z"/>
        <path class="cls-2" d="M540.23,200.48s-.07-.04-.06-.08l.71-3.01,.65-2.95s.06-.08,.11-.08h1.24s.07,.04,.06,.08l-.25,1.01c.62-.75,1.45-1.14,2.29-1.14,.11,0,.23,.01,.32,.04,.05,0,.07,.05,.07,.1l-.21,.95s-.06,.08-.11,.07c-.08-.01-.19-.01-.29-.01-1.02,0-2.1,.76-2.5,2.02l-.68,2.92s-.06,.08-.11,.08h-1.26Z"/>
        <path class="cls-2" d="M546.16,198.2l-.46,2.2s-.05,.08-.1,.08h-1.34s-.07-.04-.06-.08l.56-2.2,.83-3.76s.06-.08,.11-.08h1.24s.07,.04,.06,.08l-.21,.81c.5-.61,1.08-1.04,1.89-1.04s1.39,.45,1.56,1.2c.64-.88,1.3-1.2,2.03-1.2,1.28,0,1.93,.95,1.6,2.4l-.33,1.58-.49,2.2s-.06,.08-.11,.08h-1.32s-.07-.04-.06-.08l.57-2.2,.34-1.54c.2-.87-.12-1.32-.67-1.32-.61,0-1.28,.58-1.69,1.65l-.25,1.21-.5,2.2s-.06,.08-.11,.08h-1.28s-.07-.04-.06-.08l.54-2.2,.37-1.54c.21-.87-.11-1.32-.68-1.32-.64,0-1.38,.67-1.75,1.88l-.24,.99Z"/>
        <path class="cls-2" d="M559.65,198.39s.07,.04,.06,.08c-.32,1.19-1.28,2.15-3.08,2.15s-2.66-1.11-2.66-2.6c0-1.78,1.09-3.8,3.54-3.8,1.89,0,2.96,1.3,2.48,3.39-.01,.05-.06,.08-.11,.08h-4.49c-.01,.11-.01,.21-.01,.32,0,1.02,.39,1.6,1.32,1.6,.83,0,1.4-.37,1.64-1.14,.01-.05,.06-.08,.11-.08h1.2Zm-2.27-3.17c-.92,0-1.53,.61-1.82,1.51h3.08c.17-.8-.31-1.51-1.26-1.51Z"/>
        <path class="cls-2" d="M563.04,199.53s-.1-.04-.12-.07l-1.14-2.09s-.01-.1,.02-.13l2.03-2.14s.1-.06,.14-.06h1.13s.05,.04,.02,.06l-2.19,2.25,1.18,2.12s-.01,.07-.05,.07h-1.03Zm2,0s-.1-.04-.12-.07l-1.14-2.09s-.01-.1,.02-.13l2.03-2.14s.09-.06,.14-.06h1.13s.05,.04,.02,.06l-2.19,2.25,1.18,2.12s-.01,.07-.05,.07h-1.03Z"/>
        <path class="cls-2" d="M566.35,200.48s-.07-.04-.06-.08l.67-2.79,.71-3.16s.06-.08,.11-.08h1.22s.07,.04,.06,.08l-.21,.81c.49-.57,1.2-1.04,2.02-1.04,1.33,0,2.08,.86,1.75,2.4l-.27,1.26-.56,2.52s-.05,.08-.09,.08h-1.3s-.07-.04-.06-.08l.63-2.52,.27-1.22c.2-.86-.21-1.32-.93-1.32s-1.44,.61-1.83,1.88l-.15,.67-.56,2.52s-.06,.08-.11,.08h-1.31Z"/>
        <path class="cls-2" d="M578.41,198.39s.07,.04,.06,.08c-.32,1.19-1.28,2.15-3.08,2.15s-2.66-1.11-2.66-2.6c0-1.78,1.09-3.8,3.54-3.8,1.89,0,2.96,1.3,2.48,3.39-.01,.05-.06,.08-.11,.08h-4.49c-.01,.11-.01,.21-.01,.32,0,1.02,.39,1.6,1.32,1.6,.83,0,1.4-.37,1.64-1.14,.01-.05,.06-.08,.11-.08h1.2Zm-2.27-3.17c-.92,0-1.53,.61-1.82,1.51h3.08c.17-.8-.31-1.51-1.26-1.51Z"/>
        <path class="cls-2" d="M581.61,200.3s-.06,.1-.11,.11c-.31,.1-.69,.18-1.03,.18-.96,0-1.72-.49-1.4-1.85l.77-3.3h-.71s-.07-.04-.06-.08l.2-.9s.06-.08,.11-.08h.71l.31-1.45s.05-.08,.09-.08h1.31s.07,.04,.06,.08l-.34,1.45h1.39s.07,.04,.06,.08l-.19,.9s-.06,.08-.11,.08h-1.42l-.75,3.27c-.16,.62,.05,.81,.51,.81,.27,0,.52-.05,.71-.09,.05-.01,.07,.02,.06,.06l-.18,.83Z"/>
        <path class="cls-2" d="M587.79,198.39s.07,.04,.06,.08c-.32,1.19-1.28,2.15-3.08,2.15s-2.66-1.11-2.66-2.6c0-1.78,1.09-3.8,3.54-3.8,1.89,0,2.96,1.3,2.48,3.39-.01,.05-.06,.08-.11,.08h-4.49c-.01,.11-.01,.21-.01,.32,0,1.02,.39,1.6,1.32,1.6,.83,0,1.4-.37,1.64-1.14,.01-.05,.06-.08,.11-.08h1.2Zm-2.27-3.17c-.92,0-1.53,.61-1.82,1.51h3.08c.17-.8-.31-1.51-1.26-1.51Z"/>
        <path class="cls-2" d="M590.84,200.62c-1.58,0-2.61-.99-2.61-2.57,0-2.22,1.46-3.84,3.54-3.84,1.49,0,2.5,.82,2.42,2.22,0,.05-.04,.08-.08,.08h-1.19s-.08-.04-.08-.08c.01-.82-.44-1.19-1.19-1.19-1.32,0-1.97,1.33-1.97,2.89,0,.97,.42,1.47,1.27,1.47,.76,0,1.34-.5,1.54-1.35,.01-.05,.06-.08,.11-.08h1.22s.07,.04,.06,.08c-.36,1.37-1.43,2.37-3.04,2.37Z"/>
        <path class="cls-2" d="M597.63,194.21c1.59,0,2.67,.99,2.67,2.57,0,2.16-1.43,3.84-3.47,3.84-1.58,0-2.7-.99-2.7-2.58,0-2.22,1.45-3.83,3.49-3.83Zm-.75,5.4c1.19,0,1.97-1.11,1.97-2.89,0-.97-.49-1.5-1.3-1.5-1.19,0-1.97,1.14-1.97,2.91,0,.96,.46,1.47,1.29,1.47Z"/>
        <path class="cls-2" d="M606.68,194.36s.07,.04,.06,.08l-.67,2.79-.7,3.16s-.06,.08-.11,.08h-1.22s-.07-.04-.06-.08l.23-.81c-.49,.57-1.21,1.03-2.03,1.03-1.33,0-2.07-.86-1.75-2.4l.26-1.26,.58-2.52s.06-.08,.11-.08h1.25s.07,.04,.06,.08l-.59,2.52-.29,1.22c-.2,.86,.21,1.32,.94,1.32,.68,0,1.44-.61,1.82-1.88l.16-.67,.58-2.52s.06-.08,.11-.08h1.27Z"/>
        <path class="cls-2" d="M609.34,200.3s-.06,.1-.11,.11c-.31,.1-.69,.18-1.03,.18-.96,0-1.72-.49-1.4-1.85l.77-3.3h-.71s-.07-.04-.06-.08l.2-.9s.06-.08,.11-.08h.71l.31-1.45s.05-.08,.09-.08h1.31s.07,.04,.06,.08l-.34,1.45h1.39s.07,.04,.06,.08l-.19,.9s-.06,.08-.11,.08h-1.42l-.75,3.27c-.16,.62,.05,.81,.51,.81,.27,0,.52-.05,.71-.09,.05-.01,.07,.02,.06,.06l-.18,.83Z"/>
        <path class="cls-2" d="M615.52,198.39s.07,.04,.06,.08c-.32,1.19-1.28,2.15-3.08,2.15s-2.66-1.11-2.66-2.6c0-1.78,1.09-3.8,3.54-3.8,1.89,0,2.96,1.3,2.48,3.39-.01,.05-.06,.08-.11,.08h-4.49c-.01,.11-.01,.21-.01,.32,0,1.02,.39,1.6,1.32,1.6,.83,0,1.4-.37,1.64-1.14,.01-.05,.06-.08,.11-.08h1.2Zm-2.27-3.17c-.92,0-1.53,.61-1.82,1.51h3.08c.17-.8-.31-1.51-1.26-1.51Z"/>
        <path class="cls-2" d="M615.37,200.48s-.07-.04-.06-.08l.29-1.33s.06-.08,.11-.08h1.36s.07,.04,.06,.08l-.29,1.33s-.06,.08-.11,.08h-1.36Z"/>
        <path class="cls-2" d="M619.81,197.76l-.57,2.64s-.05,.08-.09,.08h-1.36s-.07-.04-.06-.08l.64-2.64,.57-2.33h-.87s-.07-.04-.06-.08l.2-.9s.06-.08,.11-.08h.87l.11-.46c.31-1.37,1.3-1.87,2.22-1.87,.34,0,.7,.05,.95,.09,.05,0,.07,.05,.06,.1l-.19,.89s-.06,.07-.11,.06c-.17-.05-.37-.07-.63-.07-.43,0-.77,.24-.94,.93l-.07,.33h1.35s.07,.04,.06,.08l-.19,.9s-.06,.08-.11,.08h-1.36l-.55,2.33Z"/>
        <path class="cls-2" d="M621.11,200.48s-.07-.04-.06-.08l.71-3.01,.65-2.95s.06-.08,.11-.08h1.24s.07,.04,.06,.08l-.25,1.01c.62-.75,1.45-1.14,2.29-1.14,.11,0,.23,.01,.32,.04,.05,0,.07,.05,.07,.1l-.21,.95s-.06,.08-.11,.07c-.08-.01-.19-.01-.29-.01-1.02,0-2.1,.76-2.5,2.02l-.68,2.92s-.06,.08-.11,.08h-1.26Z"/>
        <path class="cls-2" d="M625.15,199.53s-.05-.04-.02-.06l2.2-2.28-1.18-2.08s.01-.07,.05-.07h1.02s.1,.04,.12,.07l1.15,2.12s.01,.1-.02,.13l-2.04,2.12s-.1,.06-.14,.06h-1.13Zm2,0s-.05-.04-.02-.06l2.19-2.28-1.18-2.08s.01-.07,.05-.07h1.03s.09,.04,.12,.07l1.14,2.12s.01,.1-.02,.13l-2.03,2.12s-.09,.06-.14,.06h-1.13Z"/>
        <path class="cls-2" d="M635.49,200.6c-.9,0-1.59-.4-1.93-1.16l-.67,2.98s-.06,.08-.11,.08h-1.28s-.07-.04-.06-.08l1.06-4.5,.77-3.47s.06-.08,.11-.08h1.26s.07,.04,.06,.08l-.14,.54c.46-.46,1.05-.74,1.75-.74,1.58,0,2.51,1.4,2.13,3.42-.25,1.47-1.19,2.94-2.95,2.94Zm-.3-1.01c1.01,0,1.6-.83,1.81-2.08,.25-1.44-.23-2.26-1.21-2.26s-1.59,.84-1.79,2.07c-.26,1.47,.26,2.27,1.2,2.27Z"/>
        <path class="cls-2" d="M642.08,194.21c1.59,0,2.67,.99,2.67,2.57,0,2.16-1.43,3.84-3.47,3.84-1.58,0-2.7-.99-2.7-2.58,0-2.22,1.45-3.83,3.49-3.83Zm-.75,5.4c1.19,0,1.97-1.11,1.97-2.89,0-.97-.49-1.5-1.3-1.5-1.19,0-1.97,1.14-1.97,2.91,0,.96,.46,1.47,1.29,1.47Z"/>
        <path class="cls-2" d="M651.14,194.36s.07,.04,.06,.08l-.67,2.79-.7,3.16s-.06,.08-.11,.08h-1.22s-.07-.04-.06-.08l.23-.81c-.49,.57-1.21,1.03-2.03,1.03-1.33,0-2.07-.86-1.75-2.4l.26-1.26,.58-2.52s.06-.08,.11-.08h1.25s.07,.04,.06,.08l-.59,2.52-.29,1.22c-.2,.86,.21,1.32,.94,1.32,.68,0,1.44-.61,1.82-1.88l.16-.67,.58-2.52s.06-.08,.11-.08h1.27Z"/>
        <path class="cls-2" d="M650.47,200.48s-.07-.04-.06-.08l.71-3.01,.65-2.95s.06-.08,.11-.08h1.24s.07,.04,.06,.08l-.25,1.01c.62-.75,1.45-1.14,2.29-1.14,.11,0,.23,.01,.32,.04,.05,0,.07,.05,.07,.1l-.21,.95s-.06,.08-.11,.07c-.08-.01-.19-.01-.29-.01-1.02,0-2.1,.76-2.5,2.02l-.68,2.92s-.06,.08-.11,.08h-1.26Z"/>
        <path class="cls-2" d="M656.09,200.48s-.07-.04-.06-.08l.97-4.1,.9-4.05s.06-.08,.11-.08h1.25s.07,.04,.06,.08l-.96,4.05-.92,4.1s-.06,.08-.11,.08h-1.25Z"/>
        <path class="cls-2" d="M659.15,194.95s-.06-.04-.05-.07l.63-1.26,.3-1.38s.06-.08,.11-.08h1.21s.07,.04,.06,.08l-.27,1.28s-.05,.11-.08,.14l-1.12,1.22s-.09,.06-.14,.06h-.64Z"/>
        <path class="cls-2" d="M663.68,200.48s-.07-.04-.06-.08l.15-.58c-.48,.49-1.07,.77-1.79,.77-1.64,0-2.56-1.49-2.06-3.59,.33-1.44,1.29-2.75,2.95-2.75,.92,0,1.59,.39,1.91,1.13l.2-.94s.05-.08,.09-.08h1.27s.07,.04,.06,.08l-.69,2.96-.68,3s-.06,.08-.11,.08h-1.26Zm-1.18-.9c.87,.01,1.5-.63,1.81-1.88,.36-1.56-.11-2.4-1.08-2.44h-.15c-.87,.04-1.45,.72-1.71,1.89-.36,1.51,.08,2.44,1.14,2.42Z"/>
        <path class="cls-2" d="M665.67,200.48s-.07-.04-.06-.08l.67-2.79,.71-3.16s.06-.08,.11-.08h1.22s.07,.04,.06,.08l-.21,.81c.49-.57,1.2-1.04,2.02-1.04,1.33,0,2.08,.86,1.75,2.4l-.27,1.26-.56,2.52s-.05,.08-.09,.08h-1.3s-.07-.04-.06-.08l.63-2.52,.27-1.22c.2-.86-.21-1.32-.93-1.32s-1.44,.61-1.83,1.88l-.15,.67-.56,2.52s-.06,.08-.11,.08h-1.31Z"/>
        <path class="cls-2" d="M671.69,200.48s-.07-.04-.06-.08l.67-2.79,.71-3.16s.06-.08,.11-.08h1.22s.07,.04,.06,.08l-.21,.81c.49-.57,1.2-1.04,2.02-1.04,1.33,0,2.08,.86,1.75,2.4l-.27,1.26-.56,2.52s-.05,.08-.09,.08h-1.3s-.07-.04-.06-.08l.63-2.52,.27-1.22c.2-.86-.21-1.32-.93-1.32s-1.44,.61-1.83,1.88l-.15,.67-.56,2.52s-.06,.08-.11,.08h-1.31Z"/>
        <path class="cls-2" d="M683.75,198.39s.07,.04,.06,.08c-.32,1.19-1.28,2.15-3.08,2.15s-2.66-1.11-2.66-2.6c0-1.78,1.09-3.8,3.54-3.8,1.89,0,2.96,1.3,2.48,3.39-.01,.05-.06,.08-.11,.08h-4.49c-.01,.11-.01,.21-.01,.32,0,1.02,.39,1.6,1.32,1.6,.83,0,1.4-.37,1.64-1.14,.01-.05,.06-.08,.11-.08h1.2Zm-2.27-3.17c-.92,0-1.53,.61-1.82,1.51h3.08c.17-.8-.31-1.51-1.26-1.51Zm-.75-1.3s-.09-.01-.11-.06l-.17-.55s.01-.1,.05-.12l3.03-1.25s.08,0,.09,.05l.23,.97s-.01,.1-.06,.11l-3.07,.84Z"/>
        <path class="cls-2" d="M689.88,198.39s.07,.04,.06,.08c-.32,1.19-1.28,2.15-3.08,2.15s-2.66-1.11-2.66-2.6c0-1.78,1.09-3.8,3.54-3.8,1.89,0,2.96,1.3,2.48,3.39-.01,.05-.06,.08-.11,.08h-4.49c-.01,.11-.01,.21-.01,.32,0,1.02,.39,1.6,1.32,1.6,.83,0,1.4-.37,1.64-1.14,.01-.05,.06-.08,.11-.08h1.2Zm-2.27-3.17c-.92,0-1.53,.61-1.82,1.51h3.08c.17-.8-.31-1.51-1.26-1.51Z"/>
        <path class="cls-2" d="M691.47,200.48s-.07-.04-.06-.08l.24-1.05c.81-3.49,5.37-3.1,5.37-5.21,0-.63-.43-1.04-1.19-1.02-.98,.01-1.55,.63-1.81,1.77,0,.05-.05,.08-.09,.08h-1.17s-.07-.04-.07-.08c.38-1.84,1.37-2.88,3.26-2.88,1.45,0,2.42,.79,2.41,2.01,0,2.97-4.81,3.1-5.29,5.08l-.06,.24h4.07s.07,.04,.07,.08l-.23,.97s-.05,.08-.09,.08h-5.36Z"/>
        <path class="cls-2" d="M700.55,200.65c-2.04,0-3-1.75-2.35-4.51,.65-2.84,2.02-4.15,3.9-4.15,2.03,0,3,1.66,2.33,4.54-.63,2.76-2.01,4.11-3.88,4.11Zm.15-1.19c1.01,0,1.72-.78,2.22-2.92,.51-2.16,.26-3.35-.97-3.35-1.06,0-1.75,.8-2.26,2.97-.5,2.13-.24,3.3,1.01,3.3Z"/>
        <path class="cls-2" d="M705.53,200.48s-.07-.04-.06-.08l1.01-4.11,.55-2.44c-.56,.44-1.25,.74-1.94,.94-.04,.01-.07-.02-.06-.06l.21-1.01s.06-.09,.11-.11c.83-.29,1.54-.77,2.07-1.39,.02-.04,.08-.06,.13-.06h1.28s.07,.04,.06,.08l-1.12,4.43-.77,3.72s-.05,.08-.09,.08h-1.38Z"/>
        <path class="cls-2" d="M708.95,195.34c0-1.94,1.46-3.35,3.3-3.35,1.69,0,2.73,1.13,2.73,2.78,0,.67-.08,1.38-.26,2.07-.54,2.15-1.81,3.8-3.91,3.8-1.57,0-2.46-.76-2.38-2.1,.01-.05,.05-.08,.09-.08h1.26s.08,.04,.07,.08c-.02,.57,.27,1.03,1.07,1.03,1.08,0,1.9-.99,2.21-2.63-.46,.49-1.07,.79-1.89,.79-1.33,0-2.31-.98-2.31-2.39Zm4.62-.8c0-.82-.46-1.45-1.27-1.45-1.06,0-1.77,.95-1.77,2.09,0,.9,.45,1.46,1.28,1.46s1.39-.51,1.64-1.27c.08-.26,.12-.55,.12-.83Z"/>
        <path class="cls-2" d="M713.96,200.48s-.07-.04-.06-.08l.29-1.33s.06-.08,.11-.08h1.36s.07,.04,.06,.08l-.29,1.33s-.06,.08-.11,.08h-1.36Z"/>
      </g>
    </g>
  </g>
</svg>