<?xml version="1.0" encoding="UTF-8"?>
<svg id="Calque_2" data-name="Calque 2" xmlns="http://www.w3.org/2000/svg" viewBox="0 0 483.35 375.85">
  <defs>
    <style>
      .cls-1, .cls-2, .cls-3 {
        fill: blue;
      }

      .cls-4 {
        letter-spacing: 0em;
      }

      .cls-5 {
        letter-spacing: -.03em;
      }

      .cls-6 {
        letter-spacing: -.02em;
      }

      .cls-2 {
        font-family: FormaDJRBanner-Black, 'Forma DJR Banner';
        font-weight: 800;
      }

      .cls-2, .cls-3 {
        font-size: 11.3px;
      }

      .cls-7 {
        letter-spacing: 0em;
      }

      .cls-8 {
        letter-spacing: 0em;
      }

      .cls-9 {
        letter-spacing: 0em;
      }

      .cls-3 {
        font-family: FormaDJRBanner-Italic, 'Forma DJR Banner';
        font-style: italic;
      }

      .cls-10 {
        letter-spacing: 0em;
      }

      .cls-11 {
        letter-spacing: 0em;
      }

      .cls-12 {
        letter-spacing: 0em;
      }
    </style>
  </defs>
  <g>
    <g>
      <text class="cls-2" transform="translate(84.73 346.96)"><tspan class="cls-11" x="0" y="0">2</tspan><tspan x="6.47" y="0">015</tspan></text>
      <polygon class="cls-1" points="102.9 332.63 99.65 329.81 97.72 333.66 97.03 329.41 93.08 331.11 95.29 327.42 91.16 326.18 95.23 324.77 92.86 321.17 96.89 322.71 97.38 318.43 99.48 322.19 102.61 319.23 101.8 323.47 106.1 323.21 102.76 325.93 106.22 328.5 101.91 328.44 102.9 332.63"/>
      <polygon class="cls-1" points="82.2 332.63 78.94 329.81 77.01 333.66 76.33 329.41 72.38 331.11 74.59 327.42 70.46 326.18 74.53 324.77 72.16 321.17 76.18 322.71 76.68 318.43 78.78 322.19 81.91 319.23 81.1 323.47 85.4 323.21 82.06 325.93 85.51 328.5 81.21 328.44 82.2 332.63"/>
      <polygon class="cls-1" points="122.48 332.63 119.22 329.81 117.29 333.66 116.61 329.41 112.65 331.11 114.86 327.42 110.73 326.18 114.8 324.77 112.44 321.17 116.46 322.71 116.96 318.43 119.06 322.19 122.19 319.23 121.37 323.47 125.68 323.21 122.33 325.93 125.79 328.5 121.48 328.44 122.48 332.63"/>
      <polygon class="cls-1" points="102.9 313.9 99.65 311.08 97.72 314.93 97.03 310.67 93.08 312.38 95.29 308.69 91.16 307.45 95.23 306.04 92.86 302.44 96.89 303.98 97.38 299.7 99.48 303.46 102.61 300.5 101.8 304.73 106.1 304.48 102.76 307.2 106.22 309.77 101.91 309.7 102.9 313.9"/>
      <polygon class="cls-1" points="82.2 313.9 78.94 311.08 77.01 314.93 76.33 310.67 72.38 312.38 74.59 308.69 70.46 307.45 74.53 306.04 72.16 302.44 76.18 303.98 76.68 299.7 78.78 303.46 81.91 300.5 81.1 304.73 85.4 304.48 82.06 307.2 85.51 309.77 81.21 309.7 82.2 313.9"/>
      <polygon class="cls-1" points="122.48 313.9 119.22 311.08 117.29 314.93 116.61 310.67 112.65 312.38 114.86 308.69 110.73 307.45 114.8 306.04 112.44 302.44 116.46 303.98 116.96 299.7 119.06 303.46 122.19 300.5 121.37 304.73 125.68 304.48 122.33 307.2 125.79 309.77 121.48 309.7 122.48 313.9"/>
      <polygon class="cls-1" points="102.9 295.16 99.65 292.35 97.72 296.2 97.03 291.94 93.08 293.65 95.29 289.95 91.16 288.72 95.23 287.31 92.86 283.71 96.89 285.25 97.38 280.97 99.48 284.73 102.61 281.77 101.8 286 106.1 285.75 102.76 288.47 106.22 291.04 101.91 290.97 102.9 295.16"/>
      <polygon class="cls-1" points="82.2 295.16 78.94 292.35 77.01 296.2 76.33 291.94 72.38 293.65 74.59 289.95 70.46 288.72 74.53 287.31 72.16 283.71 76.18 285.25 76.68 280.97 78.78 284.73 81.91 281.77 81.1 286 85.4 285.75 82.06 288.47 85.51 291.04 81.21 290.97 82.2 295.16"/>
      <polygon class="cls-1" points="122.48 295.16 119.22 292.35 117.29 296.2 116.61 291.94 112.65 293.65 114.86 289.95 110.73 288.72 114.8 287.31 112.44 283.71 116.46 285.25 116.96 280.97 119.06 284.73 122.19 281.77 121.37 286 125.68 285.75 122.33 288.47 125.79 291.04 121.48 290.97 122.48 295.16"/>
      <polygon class="cls-1" points="102.9 276.43 99.65 273.61 97.72 277.47 97.03 273.21 93.08 274.92 95.29 271.22 91.16 269.99 95.23 268.58 92.86 264.98 96.89 266.52 97.38 262.24 99.48 266 102.61 263.04 101.8 267.27 106.1 267.02 102.76 269.74 106.22 272.31 101.91 272.24 102.9 276.43"/>
      <polygon class="cls-1" points="82.2 276.43 78.94 273.61 77.01 277.47 76.33 273.21 72.38 274.92 74.59 271.22 70.46 269.99 74.53 268.58 72.16 264.98 76.18 266.52 76.68 262.24 78.78 266 81.91 263.04 81.1 267.27 85.4 267.02 82.06 269.74 85.51 272.31 81.21 272.24 82.2 276.43"/>
      <polygon class="cls-1" points="122.48 276.43 119.22 273.61 117.29 277.47 116.61 273.21 112.65 274.92 114.86 271.22 110.73 269.99 114.8 268.58 112.44 264.98 116.46 266.52 116.96 262.24 119.06 266 122.19 263.04 121.37 267.27 125.68 267.02 122.33 269.74 125.79 272.31 121.48 272.24 122.48 276.43"/>
      <polygon class="cls-1" points="102.9 257.7 99.65 254.88 97.72 258.73 97.03 254.48 93.08 256.19 95.29 252.49 91.16 251.26 95.23 249.85 92.86 246.25 96.89 247.78 97.38 243.5 99.48 247.27 102.61 244.31 101.8 248.54 106.1 248.29 102.76 251.01 106.22 253.58 101.91 253.51 102.9 257.7"/>
      <polygon class="cls-1" points="82.2 257.7 78.94 254.88 77.01 258.73 76.33 254.48 72.38 256.19 74.59 252.49 70.46 251.26 74.53 249.85 72.16 246.25 76.18 247.78 76.68 243.5 78.78 247.27 81.91 244.31 81.1 248.54 85.4 248.29 82.06 251.01 85.51 253.58 81.21 253.51 82.2 257.7"/>
      <polygon class="cls-1" points="122.48 257.7 119.22 254.88 117.29 258.73 116.61 254.48 112.65 256.19 114.86 252.49 110.73 251.26 114.8 249.85 112.44 246.25 116.46 247.78 116.96 243.5 119.06 247.27 122.19 244.31 121.37 248.54 125.68 248.29 122.33 251.01 125.79 253.58 121.48 253.51 122.48 257.7"/>
      <polygon class="cls-1" points="102.9 238.97 99.65 236.15 97.72 240 97.03 235.75 93.08 237.46 95.29 233.76 91.16 232.53 95.23 231.12 92.86 227.52 96.89 229.05 97.38 224.77 99.48 228.54 102.61 225.58 101.8 229.81 106.1 229.56 102.76 232.27 106.22 234.85 101.91 234.78 102.9 238.97"/>
      <polygon class="cls-1" points="82.2 238.97 78.94 236.15 77.01 240 76.33 235.75 72.38 237.46 74.59 233.76 70.46 232.53 74.53 231.12 72.16 227.52 76.18 229.05 76.68 224.77 78.78 228.54 81.91 225.58 81.1 229.81 85.4 229.56 82.06 232.27 85.51 234.85 81.21 234.78 82.2 238.97"/>
      <polygon class="cls-1" points="122.48 238.97 119.22 236.15 117.29 240 116.61 235.75 112.65 237.46 114.86 233.76 110.73 232.53 114.8 231.12 112.44 227.52 116.46 229.05 116.96 224.77 119.06 228.54 122.19 225.58 121.37 229.81 125.68 229.56 122.33 232.27 125.79 234.85 121.48 234.78 122.48 238.97"/>
      <polygon class="cls-1" points="102.9 220.24 99.65 217.42 97.72 221.27 97.03 217.02 93.08 218.73 95.29 215.03 91.16 213.8 95.23 212.38 92.86 208.79 96.89 210.32 97.38 206.04 99.48 209.81 102.61 206.85 101.8 211.08 106.1 210.83 102.76 213.54 106.22 216.11 101.91 216.05 102.9 220.24"/>
      <polygon class="cls-1" points="82.2 220.24 78.94 217.42 77.01 221.27 76.33 217.02 72.38 218.73 74.59 215.03 70.46 213.8 74.53 212.38 72.16 208.79 76.18 210.32 76.68 206.04 78.78 209.81 81.91 206.85 81.1 211.08 85.4 210.83 82.06 213.54 85.51 216.11 81.21 216.05 82.2 220.24"/>
      <polygon class="cls-1" points="122.48 220.24 119.22 217.42 117.29 221.27 116.61 217.02 112.65 218.73 114.86 215.03 110.73 213.8 114.8 212.38 112.44 208.79 116.46 210.32 116.96 206.04 119.06 209.81 122.19 206.85 121.37 211.08 125.68 210.83 122.33 213.54 125.79 216.11 121.48 216.05 122.48 220.24"/>
      <polygon class="cls-1" points="102.9 201.51 99.65 198.69 97.72 202.54 97.03 198.29 93.08 200 95.29 196.3 91.16 195.07 95.23 193.65 92.86 190.06 96.89 191.59 97.38 187.31 99.48 191.07 102.61 188.12 101.8 192.35 106.1 192.09 102.76 194.81 106.22 197.38 101.91 197.32 102.9 201.51"/>
      <polygon class="cls-1" points="82.2 201.51 78.94 198.69 77.01 202.54 76.33 198.29 72.38 200 74.59 196.3 70.46 195.07 74.53 193.65 72.16 190.06 76.18 191.59 76.68 187.31 78.78 191.07 81.91 188.12 81.1 192.35 85.4 192.09 82.06 194.81 85.51 197.38 81.21 197.32 82.2 201.51"/>
      <polygon class="cls-1" points="122.48 201.51 119.22 198.69 117.29 202.54 116.61 198.29 112.65 200 114.86 196.3 110.73 195.07 114.8 193.65 112.44 190.06 116.46 191.59 116.96 187.31 119.06 191.07 122.19 188.12 121.37 192.35 125.68 192.09 122.33 194.81 125.79 197.38 121.48 197.32 122.48 201.51"/>
      <polygon class="cls-1" points="102.9 182.78 99.65 179.96 97.72 183.81 97.03 179.56 93.08 181.26 95.29 177.57 91.16 176.33 95.23 174.92 92.86 171.32 96.89 172.86 97.38 168.58 99.48 172.34 102.61 169.39 101.8 173.62 106.1 173.36 102.76 176.08 106.22 178.65 101.91 178.59 102.9 182.78"/>
      <polygon class="cls-1" points="82.2 182.78 78.94 179.96 77.01 183.81 76.33 179.56 72.38 181.26 74.59 177.57 70.46 176.33 74.53 174.92 72.16 171.32 76.18 172.86 76.68 168.58 78.78 172.34 81.91 169.39 81.1 173.62 85.4 173.36 82.06 176.08 85.51 178.65 81.21 178.59 82.2 182.78"/>
      <polygon class="cls-1" points="122.48 182.78 119.22 179.96 117.29 183.81 116.61 179.56 112.65 181.26 114.86 177.57 110.73 176.33 114.8 174.92 112.44 171.32 116.46 172.86 116.96 168.58 119.06 172.34 122.19 169.39 121.37 173.62 125.68 173.36 122.33 176.08 125.79 178.65 121.48 178.59 122.48 182.78"/>
      <polygon class="cls-1" points="102.9 164.05 99.65 161.23 97.72 165.08 97.03 160.82 93.08 162.53 95.29 158.84 91.16 157.6 95.23 156.19 92.86 152.59 96.89 154.13 97.38 149.85 99.48 153.61 102.61 150.65 101.8 154.89 106.1 154.63 102.76 157.35 106.22 159.92 101.91 159.86 102.9 164.05"/>
      <polygon class="cls-1" points="82.2 164.05 78.94 161.23 77.01 165.08 76.33 160.82 72.38 162.53 74.59 158.84 70.46 157.6 74.53 156.19 72.16 152.59 76.18 154.13 76.68 149.85 78.78 153.61 81.91 150.65 81.1 154.89 85.4 154.63 82.06 157.35 85.51 159.92 81.21 159.86 82.2 164.05"/>
      <polygon class="cls-1" points="122.48 164.05 119.22 161.23 117.29 165.08 116.61 160.82 112.65 162.53 114.86 158.84 110.73 157.6 114.8 156.19 112.44 152.59 116.46 154.13 116.96 149.85 119.06 153.61 122.19 150.65 121.37 154.89 125.68 154.63 122.33 157.35 125.79 159.92 121.48 159.86 122.48 164.05"/>
      <polygon class="cls-1" points="102.9 145.32 99.65 142.5 97.72 146.35 97.03 142.09 93.08 143.8 95.29 140.1 91.16 138.87 95.23 137.46 92.86 133.86 96.89 135.4 97.38 131.12 99.48 134.88 102.61 131.92 101.8 136.15 106.1 135.9 102.76 138.62 106.22 141.19 101.91 141.12 102.9 145.32"/>
      <polygon class="cls-1" points="82.2 145.32 78.94 142.5 77.01 146.35 76.33 142.09 72.38 143.8 74.59 140.1 70.46 138.87 74.53 137.46 72.16 133.86 76.18 135.4 76.68 131.12 78.78 134.88 81.91 131.92 81.1 136.15 85.4 135.9 82.06 138.62 85.51 141.19 81.21 141.12 82.2 145.32"/>
      <polygon class="cls-1" points="122.48 145.32 119.22 142.5 117.29 146.35 116.61 142.09 112.65 143.8 114.86 140.1 110.73 138.87 114.8 137.46 112.44 133.86 116.46 135.4 116.96 131.12 119.06 134.88 122.19 131.92 121.37 136.15 125.68 135.9 122.33 138.62 125.79 141.19 121.48 141.12 122.48 145.32"/>
      <polygon class="cls-1" points="102.9 126.58 99.65 123.77 97.72 127.62 97.03 123.36 93.08 125.07 95.29 121.37 91.16 120.14 95.23 118.73 92.86 115.13 96.89 116.67 97.38 112.39 99.48 116.15 102.61 113.19 101.8 117.42 106.1 117.17 102.76 119.89 106.22 122.46 101.91 122.39 102.9 126.58"/>
      <polygon class="cls-1" points="82.2 126.58 78.94 123.77 77.01 127.62 76.33 123.36 72.38 125.07 74.59 121.37 70.46 120.14 74.53 118.73 72.16 115.13 76.18 116.67 76.68 112.39 78.78 116.15 81.91 113.19 81.1 117.42 85.4 117.17 82.06 119.89 85.51 122.46 81.21 122.39 82.2 126.58"/>
      <polygon class="cls-1" points="122.48 126.58 119.22 123.77 117.29 127.62 116.61 123.36 112.65 125.07 114.86 121.37 110.73 120.14 114.8 118.73 112.44 115.13 116.46 116.67 116.96 112.39 119.06 116.15 122.19 113.19 121.37 117.42 125.68 117.17 122.33 119.89 125.79 122.46 121.48 122.39 122.48 126.58"/>
      <polygon class="cls-1" points="102.9 107.85 99.65 105.03 97.72 108.89 97.03 104.63 93.08 106.34 95.29 102.64 91.16 101.41 95.23 100 92.86 96.4 96.89 97.94 97.38 93.66 99.48 97.42 102.61 94.46 101.8 98.69 106.1 98.44 102.76 101.16 106.22 103.73 101.91 103.66 102.9 107.85"/>
      <polygon class="cls-1" points="82.2 107.85 78.94 105.03 77.01 108.89 76.33 104.63 72.38 106.34 74.59 102.64 70.46 101.41 74.53 100 72.16 96.4 76.18 97.94 76.68 93.66 78.78 97.42 81.91 94.46 81.1 98.69 85.4 98.44 82.06 101.16 85.51 103.73 81.21 103.66 82.2 107.85"/>
      <polygon class="cls-1" points="122.48 107.85 119.22 105.03 117.29 108.89 116.61 104.63 112.65 106.34 114.86 102.64 110.73 101.41 114.8 100 112.44 96.4 116.46 97.94 116.96 93.66 119.06 97.42 122.19 94.46 121.37 98.69 125.68 98.44 122.33 101.16 125.79 103.73 121.48 103.66 122.48 107.85"/>
      <polygon class="cls-1" points="102.9 89.12 99.65 86.3 97.72 90.15 97.03 85.9 93.08 87.61 95.29 83.91 91.16 82.68 95.23 81.27 92.86 77.67 96.89 79.2 97.38 74.92 99.48 78.69 102.61 75.73 101.8 79.96 106.1 79.71 102.76 82.43 106.22 85 101.91 84.93 102.9 89.12"/>
      <polygon class="cls-1" points="82.2 89.12 78.94 86.3 77.01 90.15 76.33 85.9 72.38 87.61 74.59 83.91 70.46 82.68 74.53 81.27 72.16 77.67 76.18 79.2 76.68 74.92 78.78 78.69 81.91 75.73 81.1 79.96 85.4 79.71 82.06 82.43 85.51 85 81.21 84.93 82.2 89.12"/>
      <polygon class="cls-1" points="122.48 89.12 119.22 86.3 117.29 90.15 116.61 85.9 112.65 87.61 114.86 83.91 110.73 82.68 114.8 81.27 112.44 77.67 116.46 79.2 116.96 74.92 119.06 78.69 122.19 75.73 121.37 79.96 125.68 79.71 122.33 82.43 125.79 85 121.48 84.93 122.48 89.12"/>
      <polygon class="cls-1" points="102.9 70.39 99.65 67.57 97.72 71.42 97.03 67.17 93.08 68.88 95.29 65.18 91.16 63.95 95.23 62.54 92.86 58.94 96.89 60.47 97.38 56.19 99.48 59.96 102.61 57 101.8 61.23 106.1 60.98 102.76 63.69 106.22 66.27 101.91 66.2 102.9 70.39"/>
      <polygon class="cls-1" points="82.2 70.39 78.94 67.57 77.01 71.42 76.33 67.17 72.38 68.88 74.59 65.18 70.46 63.95 74.53 62.54 72.16 58.94 76.18 60.47 76.68 56.19 78.78 59.96 81.91 57 81.1 61.23 85.4 60.98 82.06 63.69 85.51 66.27 81.21 66.2 82.2 70.39"/>
      <polygon class="cls-1" points="122.48 70.39 119.22 67.57 117.29 71.42 116.61 67.17 112.65 68.88 114.86 65.18 110.73 63.95 114.8 62.54 112.44 58.94 116.46 60.47 116.96 56.19 119.06 59.96 122.19 57 121.37 61.23 125.68 60.98 122.33 63.69 125.79 66.27 121.48 66.2 122.48 70.39"/>
      <polygon class="cls-1" points="102.9 51.66 99.65 48.84 97.72 52.69 97.03 48.44 93.08 50.15 95.29 46.45 91.16 45.22 95.23 43.8 92.86 40.21 96.89 41.74 97.38 37.46 99.48 41.23 102.61 38.27 101.8 42.5 106.1 42.25 102.76 44.96 106.22 47.53 101.91 47.47 102.9 51.66"/>
      <polygon class="cls-1" points="82.2 51.66 78.94 48.84 77.01 52.69 76.33 48.44 72.38 50.15 74.59 46.45 70.46 45.22 74.53 43.8 72.16 40.21 76.18 41.74 76.68 37.46 78.78 41.23 81.91 38.27 81.1 42.5 85.4 42.25 82.06 44.96 85.51 47.53 81.21 47.47 82.2 51.66"/>
      <polygon class="cls-1" points="102.9 32.93 99.65 30.11 97.72 33.96 97.03 29.71 93.08 31.42 95.29 27.72 91.16 26.48 95.23 25.07 92.86 21.48 96.89 23.01 97.38 18.73 99.48 22.49 102.61 19.54 101.8 23.77 106.1 23.51 102.76 26.23 106.22 28.8 101.91 28.74 102.9 32.93"/>
      <polygon class="cls-1" points="82.2 32.93 78.94 30.11 77.01 33.96 76.33 29.71 72.38 31.42 74.59 27.72 70.46 26.48 74.53 25.07 72.16 21.48 76.18 23.01 76.68 18.73 78.78 22.49 81.91 19.54 81.1 23.77 85.4 23.51 82.06 26.23 85.51 28.8 81.21 28.74 82.2 32.93"/>
      <polygon class="cls-1" points="122.48 51.66 119.22 48.84 117.29 52.69 116.61 48.44 112.65 50.15 114.86 46.45 110.73 45.22 114.8 43.8 112.44 40.21 116.46 41.74 116.96 37.46 119.06 41.23 122.19 38.27 121.37 42.5 125.68 42.25 122.33 44.96 125.79 47.53 121.48 47.47 122.48 51.66"/>
      <polygon class="cls-1" points="122.48 32.93 119.22 30.11 117.29 33.96 116.61 29.71 112.65 31.42 114.86 27.72 110.73 26.48 114.8 25.07 112.44 21.48 116.46 23.01 116.96 18.73 119.06 22.49 122.19 19.54 121.37 23.77 125.68 23.51 122.33 26.23 125.79 28.8 121.48 28.74 122.48 32.93"/>
      <polygon class="cls-1" points="122.48 14.2 119.22 11.38 117.29 15.23 116.61 10.98 112.65 12.68 114.86 8.99 110.73 7.75 114.8 6.34 112.44 2.74 116.46 4.28 116.96 0 119.06 3.76 122.19 .81 121.37 5.04 125.68 4.78 122.33 7.5 125.79 10.07 121.48 10.01 122.48 14.2"/>
    </g>
    <g>
      <text class="cls-2" transform="translate(441.71 348.53)"><tspan class="cls-11" x="0" y="0">2</tspan><tspan class="cls-10" x="6.47" y="0">0</tspan><tspan class="cls-11" x="13.76" y="0">2</tspan><tspan x="20.22" y="0">0</tspan></text>
      <polygon class="cls-1" points="460.46 334.41 457.21 331.59 455.28 335.44 454.59 331.18 450.64 332.89 452.85 329.19 448.72 327.96 452.79 326.55 450.42 322.95 454.45 324.49 454.94 320.21 457.04 323.97 460.17 321.01 459.36 325.24 463.66 324.99 460.32 327.71 463.78 330.28 459.47 330.21 460.46 334.41"/>
      <polygon class="cls-1" points="439.76 334.41 436.5 331.59 434.57 335.44 433.89 331.18 429.94 332.89 432.15 329.19 428.02 327.96 432.09 326.55 429.72 322.95 433.74 324.49 434.24 320.21 436.34 323.97 439.47 321.01 438.66 325.24 442.96 324.99 439.62 327.71 443.07 330.28 438.77 330.21 439.76 334.41"/>
      <polygon class="cls-1" points="480.04 334.41 476.78 331.59 474.85 335.44 474.17 331.18 470.21 332.89 472.42 329.19 468.29 327.96 472.36 326.55 469.99 322.95 474.02 324.49 474.52 320.21 476.61 323.97 479.75 321.01 478.93 325.24 483.23 324.99 479.89 327.71 483.35 330.28 479.04 330.21 480.04 334.41"/>
      <polygon class="cls-1" points="460.46 315.67 457.21 312.85 455.28 316.71 454.59 312.45 450.64 314.16 452.85 310.46 448.72 309.23 452.79 307.82 450.42 304.22 454.45 305.76 454.94 301.48 457.04 305.24 460.17 302.28 459.36 306.51 463.66 306.26 460.32 308.98 463.78 311.55 459.47 311.48 460.46 315.67"/>
      <polygon class="cls-1" points="439.76 315.67 436.5 312.85 434.57 316.71 433.89 312.45 429.94 314.16 432.15 310.46 428.02 309.23 432.09 307.82 429.72 304.22 433.74 305.76 434.24 301.48 436.34 305.24 439.47 302.28 438.66 306.51 442.96 306.26 439.62 308.98 443.07 311.55 438.77 311.48 439.76 315.67"/>
      <polygon class="cls-1" points="480.04 315.67 476.78 312.85 474.85 316.71 474.17 312.45 470.21 314.16 472.42 310.46 468.29 309.23 472.36 307.82 469.99 304.22 474.02 305.76 474.52 301.48 476.61 305.24 479.75 302.28 478.93 306.51 483.23 306.26 479.89 308.98 483.35 311.55 479.04 311.48 480.04 315.67"/>
      <polygon class="cls-1" points="460.46 296.94 457.21 294.12 455.28 297.97 454.59 293.72 450.64 295.43 452.85 291.73 448.72 290.5 452.79 289.09 450.42 285.49 454.45 287.02 454.94 282.75 457.04 286.51 460.17 283.55 459.36 287.78 463.66 287.53 460.32 290.25 463.78 292.82 459.47 292.75 460.46 296.94"/>
      <polygon class="cls-1" points="439.76 296.94 436.5 294.12 434.57 297.97 433.89 293.72 429.94 295.43 432.15 291.73 428.02 290.5 432.09 289.09 429.72 285.49 433.74 287.02 434.24 282.75 436.34 286.51 439.47 283.55 438.66 287.78 442.96 287.53 439.62 290.25 443.07 292.82 438.77 292.75 439.76 296.94"/>
      <polygon class="cls-1" points="480.04 296.94 476.78 294.12 474.85 297.97 474.17 293.72 470.21 295.43 472.42 291.73 468.29 290.5 472.36 289.09 469.99 285.49 474.02 287.02 474.52 282.75 476.61 286.51 479.75 283.55 478.93 287.78 483.23 287.53 479.89 290.25 483.35 292.82 479.04 292.75 480.04 296.94"/>
      <polygon class="cls-1" points="460.46 278.21 457.21 275.39 455.28 279.24 454.59 274.99 450.64 276.7 452.85 273 448.72 271.77 452.79 270.36 450.42 266.76 454.45 268.29 454.94 264.01 457.04 267.78 460.17 264.82 459.36 269.05 463.66 268.8 460.32 271.52 463.78 274.09 459.47 274.02 460.46 278.21"/>
      <polygon class="cls-1" points="439.76 278.21 436.5 275.39 434.57 279.24 433.89 274.99 429.94 276.7 432.15 273 428.02 271.77 432.09 270.36 429.72 266.76 433.74 268.29 434.24 264.01 436.34 267.78 439.47 264.82 438.66 269.05 442.96 268.8 439.62 271.52 443.07 274.09 438.77 274.02 439.76 278.21"/>
      <polygon class="cls-1" points="480.04 278.21 476.78 275.39 474.85 279.24 474.17 274.99 470.21 276.7 472.42 273 468.29 271.77 472.36 270.36 469.99 266.76 474.02 268.29 474.52 264.01 476.61 267.78 479.75 264.82 478.93 269.05 483.23 268.8 479.89 271.52 483.35 274.09 479.04 274.02 480.04 278.21"/>
      <polygon class="cls-1" points="460.46 259.48 457.21 256.66 455.28 260.51 454.59 256.26 450.64 257.97 452.85 254.27 448.72 253.04 452.79 251.63 450.42 248.03 454.45 249.56 454.94 245.28 457.04 249.05 460.17 246.09 459.36 250.32 463.66 250.07 460.32 252.78 463.78 255.35 459.47 255.29 460.46 259.48"/>
      <polygon class="cls-1" points="439.76 259.48 436.5 256.66 434.57 260.51 433.89 256.26 429.94 257.97 432.15 254.27 428.02 253.04 432.09 251.63 429.72 248.03 433.74 249.56 434.24 245.28 436.34 249.05 439.47 246.09 438.66 250.32 442.96 250.07 439.62 252.78 443.07 255.35 438.77 255.29 439.76 259.48"/>
      <polygon class="cls-1" points="480.04 259.48 476.78 256.66 474.85 260.51 474.17 256.26 470.21 257.97 472.42 254.27 468.29 253.04 472.36 251.63 469.99 248.03 474.02 249.56 474.52 245.28 476.61 249.05 479.75 246.09 478.93 250.32 483.23 250.07 479.89 252.78 483.35 255.35 479.04 255.29 480.04 259.48"/>
      <polygon class="cls-1" points="460.46 240.75 457.21 237.93 455.28 241.78 454.59 237.53 450.64 239.24 452.85 235.54 448.72 234.31 452.79 232.89 450.42 229.3 454.45 230.83 454.94 226.55 457.04 230.32 460.17 227.36 459.36 231.59 463.66 231.33 460.32 234.05 463.78 236.62 459.47 236.56 460.46 240.75"/>
      <polygon class="cls-1" points="439.76 240.75 436.5 237.93 434.57 241.78 433.89 237.53 429.94 239.24 432.15 235.54 428.02 234.31 432.09 232.89 429.72 229.3 433.74 230.83 434.24 226.55 436.34 230.32 439.47 227.36 438.66 231.59 442.96 231.33 439.62 234.05 443.07 236.62 438.77 236.56 439.76 240.75"/>
      <polygon class="cls-1" points="480.04 240.75 476.78 237.93 474.85 241.78 474.17 237.53 470.21 239.24 472.42 235.54 468.29 234.31 472.36 232.89 469.99 229.3 474.02 230.83 474.52 226.55 476.61 230.32 479.75 227.36 478.93 231.59 483.23 231.33 479.89 234.05 483.35 236.62 479.04 236.56 480.04 240.75"/>
      <polygon class="cls-1" points="460.46 222.02 457.21 219.2 455.28 223.05 454.59 218.8 450.64 220.51 452.85 216.81 448.72 215.57 452.79 214.16 450.42 210.56 454.45 212.1 454.94 207.82 457.04 211.58 460.17 208.63 459.36 212.86 463.66 212.6 460.32 215.32 463.78 217.89 459.47 217.83 460.46 222.02"/>
      <polygon class="cls-1" points="439.76 222.02 436.5 219.2 434.57 223.05 433.89 218.8 429.94 220.51 432.15 216.81 428.02 215.57 432.09 214.16 429.72 210.56 433.74 212.1 434.24 207.82 436.34 211.58 439.47 208.63 438.66 212.86 442.96 212.6 439.62 215.32 443.07 217.89 438.77 217.83 439.76 222.02"/>
      <polygon class="cls-1" points="480.04 222.02 476.78 219.2 474.85 223.05 474.17 218.8 470.21 220.51 472.42 216.81 468.29 215.57 472.36 214.16 469.99 210.56 474.02 212.1 474.52 207.82 476.61 211.58 479.75 208.63 478.93 212.86 483.23 212.6 479.89 215.32 483.35 217.89 479.04 217.83 480.04 222.02"/>
      <polygon class="cls-1" points="460.46 203.29 457.21 200.47 455.28 204.32 454.59 200.07 450.64 201.77 452.85 198.08 448.72 196.84 452.79 195.43 450.42 191.83 454.45 193.37 454.94 189.09 457.04 192.85 460.17 189.89 459.36 194.13 463.66 193.87 460.32 196.59 463.78 199.16 459.47 199.1 460.46 203.29"/>
      <polygon class="cls-1" points="439.76 203.29 436.5 200.47 434.57 204.32 433.89 200.07 429.94 201.77 432.15 198.08 428.02 196.84 432.09 195.43 429.72 191.83 433.74 193.37 434.24 189.09 436.34 192.85 439.47 189.89 438.66 194.13 442.96 193.87 439.62 196.59 443.07 199.16 438.77 199.1 439.76 203.29"/>
      <polygon class="cls-1" points="480.04 203.29 476.78 200.47 474.85 204.32 474.17 200.07 470.21 201.77 472.42 198.08 468.29 196.84 472.36 195.43 469.99 191.83 474.02 193.37 474.52 189.09 476.61 192.85 479.75 189.89 478.93 194.13 483.23 193.87 479.89 196.59 483.35 199.16 479.04 199.1 480.04 203.29"/>
      <polygon class="cls-1" points="460.46 184.56 457.21 181.74 455.28 185.59 454.59 181.33 450.64 183.04 452.85 179.35 448.72 178.11 452.79 176.7 450.42 173.1 454.45 174.64 454.94 170.36 457.04 174.12 460.17 171.16 459.36 175.39 463.66 175.14 460.32 177.86 463.78 180.43 459.47 180.36 460.46 184.56"/>
      <polygon class="cls-1" points="439.76 184.56 436.5 181.74 434.57 185.59 433.89 181.33 429.94 183.04 432.15 179.35 428.02 178.11 432.09 176.7 429.72 173.1 433.74 174.64 434.24 170.36 436.34 174.12 439.47 171.16 438.66 175.39 442.96 175.14 439.62 177.86 443.07 180.43 438.77 180.36 439.76 184.56"/>
      <polygon class="cls-1" points="480.04 184.56 476.78 181.74 474.85 185.59 474.17 181.33 470.21 183.04 472.42 179.35 468.29 178.11 472.36 176.7 469.99 173.1 474.02 174.64 474.52 170.36 476.61 174.12 479.75 171.16 478.93 175.39 483.23 175.14 479.89 177.86 483.35 180.43 479.04 180.36 480.04 184.56"/>
      <polygon class="cls-1" points="460.46 165.82 457.21 163.01 455.28 166.86 454.59 162.6 450.64 164.31 452.85 160.61 448.72 159.38 452.79 157.97 450.42 154.37 454.45 155.91 454.94 151.63 457.04 155.39 460.17 152.43 459.36 156.66 463.66 156.41 460.32 159.13 463.78 161.7 459.47 161.63 460.46 165.82"/>
      <polygon class="cls-1" points="439.76 165.82 436.5 163.01 434.57 166.86 433.89 162.6 429.94 164.31 432.15 160.61 428.02 159.38 432.09 157.97 429.72 154.37 433.74 155.91 434.24 151.63 436.34 155.39 439.47 152.43 438.66 156.66 442.96 156.41 439.62 159.13 443.07 161.7 438.77 161.63 439.76 165.82"/>
      <polygon class="cls-1" points="480.04 165.82 476.78 163.01 474.85 166.86 474.17 162.6 470.21 164.31 472.42 160.61 468.29 159.38 472.36 157.97 469.99 154.37 474.02 155.91 474.52 151.63 476.61 155.39 479.75 152.43 478.93 156.66 483.23 156.41 479.89 159.13 483.35 161.7 479.04 161.63 480.04 165.82"/>
      <polygon class="cls-1" points="460.46 147.09 457.21 144.27 455.28 148.13 454.59 143.87 450.64 145.58 452.85 141.88 448.72 140.65 452.79 139.24 450.42 135.64 454.45 137.18 454.94 132.9 457.04 136.66 460.17 133.7 459.36 137.93 463.66 137.68 460.32 140.4 463.78 142.97 459.47 142.9 460.46 147.09"/>
      <polygon class="cls-1" points="439.76 147.09 436.5 144.27 434.57 148.13 433.89 143.87 429.94 145.58 432.15 141.88 428.02 140.65 432.09 139.24 429.72 135.64 433.74 137.18 434.24 132.9 436.34 136.66 439.47 133.7 438.66 137.93 442.96 137.68 439.62 140.4 443.07 142.97 438.77 142.9 439.76 147.09"/>
      <polygon class="cls-1" points="480.04 147.09 476.78 144.27 474.85 148.13 474.17 143.87 470.21 145.58 472.42 141.88 468.29 140.65 472.36 139.24 469.99 135.64 474.02 137.18 474.52 132.9 476.61 136.66 479.75 133.7 478.93 137.93 483.23 137.68 479.89 140.4 483.35 142.97 479.04 142.9 480.04 147.09"/>
      <polygon class="cls-1" points="460.46 128.36 457.21 125.54 455.28 129.39 454.59 125.14 450.64 126.85 452.85 123.15 448.72 121.92 452.79 120.51 450.42 116.91 454.45 118.44 454.94 114.17 457.04 117.93 460.17 114.97 459.36 119.2 463.66 118.95 460.32 121.67 463.78 124.24 459.47 124.17 460.46 128.36"/>
      <polygon class="cls-1" points="439.76 128.36 436.5 125.54 434.57 129.39 433.89 125.14 429.94 126.85 432.15 123.15 428.02 121.92 432.09 120.51 429.72 116.91 433.74 118.44 434.24 114.17 436.34 117.93 439.47 114.97 438.66 119.2 442.96 118.95 439.62 121.67 443.07 124.24 438.77 124.17 439.76 128.36"/>
      <polygon class="cls-1" points="480.04 128.36 476.78 125.54 474.85 129.39 474.17 125.14 470.21 126.85 472.42 123.15 468.29 121.92 472.36 120.51 469.99 116.91 474.02 118.44 474.52 114.17 476.61 117.93 479.75 114.97 478.93 119.2 483.23 118.95 479.89 121.67 483.35 124.24 479.04 124.17 480.04 128.36"/>
      <polygon class="cls-1" points="460.46 109.63 457.21 106.81 455.28 110.66 454.59 106.41 450.64 108.12 452.85 104.42 448.72 103.19 452.79 101.78 450.42 98.18 454.45 99.71 454.94 95.43 457.04 99.2 460.17 96.24 459.36 100.47 463.66 100.22 460.32 102.94 463.78 105.51 459.47 105.44 460.46 109.63"/>
      <polygon class="cls-1" points="439.76 109.63 436.5 106.81 434.57 110.66 433.89 106.41 429.94 108.12 432.15 104.42 428.02 103.19 432.09 101.78 429.72 98.18 433.74 99.71 434.24 95.43 436.34 99.2 439.47 96.24 438.66 100.47 442.96 100.22 439.62 102.94 443.07 105.51 438.77 105.44 439.76 109.63"/>
      <polygon class="cls-1" points="480.04 109.63 476.78 106.81 474.85 110.66 474.17 106.41 470.21 108.12 472.42 104.42 468.29 103.19 472.36 101.78 469.99 98.18 474.02 99.71 474.52 95.43 476.61 99.2 479.75 96.24 478.93 100.47 483.23 100.22 479.89 102.94 483.35 105.51 479.04 105.44 480.04 109.63"/>
      <polygon class="cls-1" points="460.46 90.9 457.21 88.08 455.28 91.93 454.59 87.68 450.64 89.39 452.85 85.69 448.72 84.46 452.79 83.05 450.42 79.45 454.45 80.98 454.94 76.7 457.04 80.47 460.17 77.51 459.36 81.74 463.66 81.49 460.32 84.2 463.78 86.77 459.47 86.71 460.46 90.9"/>
      <polygon class="cls-1" points="439.76 90.9 436.5 88.08 434.57 91.93 433.89 87.68 429.94 89.39 432.15 85.69 428.02 84.46 432.09 83.05 429.72 79.45 433.74 80.98 434.24 76.7 436.34 80.47 439.47 77.51 438.66 81.74 442.96 81.49 439.62 84.2 443.07 86.77 438.77 86.71 439.76 90.9"/>
      <polygon class="cls-1" points="480.04 90.9 476.78 88.08 474.85 91.93 474.17 87.68 470.21 89.39 472.42 85.69 468.29 84.46 472.36 83.05 469.99 79.45 474.02 80.98 474.52 76.7 476.61 80.47 479.75 77.51 478.93 81.74 483.23 81.49 479.89 84.2 483.35 86.77 479.04 86.71 480.04 90.9"/>
      <polygon class="cls-1" points="460.46 72.17 457.21 69.35 455.28 73.2 454.59 68.95 450.64 70.66 452.85 66.96 448.72 65.73 452.79 64.31 450.42 60.72 454.45 62.25 454.94 57.97 457.04 61.74 460.17 58.78 459.36 63.01 463.66 62.75 460.32 65.47 463.78 68.04 459.47 67.98 460.46 72.17"/>
      <polygon class="cls-1" points="480.04 72.17 476.78 69.35 474.85 73.2 474.17 68.95 470.21 70.66 472.42 66.96 468.29 65.73 472.36 64.31 469.99 60.72 474.02 62.25 474.52 57.97 476.61 61.74 479.75 58.78 478.93 63.01 483.23 62.75 479.89 65.47 483.35 68.04 479.04 67.98 480.04 72.17"/>
      <polygon class="cls-1" points="480.04 53.44 476.78 50.62 474.85 54.47 474.17 50.22 470.21 51.93 472.42 48.23 468.29 46.99 472.36 45.58 469.99 41.98 474.02 43.52 474.52 39.24 476.61 43 479.75 40.05 478.93 44.28 483.23 44.02 479.89 46.74 483.35 49.31 479.04 49.25 480.04 53.44"/>
      <polygon class="cls-1" points="460.46 53.44 457.21 50.62 455.28 54.47 454.59 50.22 450.64 51.93 452.85 48.23 448.72 46.99 452.79 45.58 450.42 41.98 454.45 43.52 454.94 39.24 457.04 43 460.17 40.05 459.36 44.28 463.66 44.02 460.32 46.74 463.78 49.31 459.47 49.25 460.46 53.44"/>
    </g>
    <g>
      <text class="cls-2" transform="translate(14.27 345.07)"><tspan class="cls-12" x="0" y="0">2</tspan><tspan x="6.47" y="0">014</tspan></text>
      <polygon class="cls-1" points="32.45 332.63 29.19 329.81 27.26 333.66 26.57 329.41 22.62 331.11 24.83 327.42 20.7 326.18 24.77 324.77 22.4 321.17 26.43 322.71 26.93 318.43 29.02 322.19 32.15 319.23 31.34 323.47 35.64 323.21 32.3 325.93 35.76 328.5 31.45 328.44 32.45 332.63"/>
      <polygon class="cls-1" points="11.74 332.63 8.49 329.81 6.56 333.66 5.87 329.41 1.92 331.11 4.13 327.42 0 326.18 4.07 324.77 1.7 321.17 5.73 322.71 6.22 318.43 8.32 322.19 11.45 319.23 10.64 323.47 14.94 323.21 11.6 325.93 15.06 328.5 10.75 328.44 11.74 332.63"/>
      <polygon class="cls-1" points="52.02 332.63 48.76 329.81 46.83 333.66 46.15 329.41 42.19 331.11 44.4 327.42 40.28 326.18 44.35 324.77 41.98 321.17 46 322.71 46.5 318.43 48.6 322.19 51.73 319.23 50.92 323.47 55.22 323.21 51.87 325.93 55.33 328.5 51.02 328.44 52.02 332.63"/>
      <polygon class="cls-1" points="32.45 313.9 29.19 311.08 27.26 314.93 26.57 310.67 22.62 312.38 24.83 308.69 20.7 307.45 24.77 306.04 22.4 302.44 26.43 303.98 26.93 299.7 29.02 303.46 32.15 300.5 31.34 304.73 35.64 304.48 32.3 307.2 35.76 309.77 31.45 309.7 32.45 313.9"/>
      <polygon class="cls-1" points="11.74 313.9 8.49 311.08 6.56 314.93 5.87 310.67 1.92 312.38 4.13 308.69 0 307.45 4.07 306.04 1.7 302.44 5.73 303.98 6.22 299.7 8.32 303.46 11.45 300.5 10.64 304.73 14.94 304.48 11.6 307.2 15.06 309.77 10.75 309.7 11.74 313.9"/>
      <polygon class="cls-1" points="52.02 313.9 48.76 311.08 46.83 314.93 46.15 310.67 42.19 312.38 44.4 308.69 40.28 307.45 44.35 306.04 41.98 302.44 46 303.98 46.5 299.7 48.6 303.46 51.73 300.5 50.92 304.73 55.22 304.48 51.87 307.2 55.33 309.77 51.02 309.7 52.02 313.9"/>
      <polygon class="cls-1" points="32.45 295.16 29.19 292.35 27.26 296.2 26.57 291.94 22.62 293.65 24.83 289.95 20.7 288.72 24.77 287.31 22.4 283.71 26.43 285.25 26.93 280.97 29.02 284.73 32.15 281.77 31.34 286 35.64 285.75 32.3 288.47 35.76 291.04 31.45 290.97 32.45 295.16"/>
      <polygon class="cls-1" points="11.74 295.16 8.49 292.35 6.56 296.2 5.87 291.94 1.92 293.65 4.13 289.95 0 288.72 4.07 287.31 1.7 283.71 5.73 285.25 6.22 280.97 8.32 284.73 11.45 281.77 10.64 286 14.94 285.75 11.6 288.47 15.06 291.04 10.75 290.97 11.74 295.16"/>
      <polygon class="cls-1" points="52.02 295.16 48.76 292.35 46.83 296.2 46.15 291.94 42.19 293.65 44.4 289.95 40.28 288.72 44.35 287.31 41.98 283.71 46 285.25 46.5 280.97 48.6 284.73 51.73 281.77 50.92 286 55.22 285.75 51.87 288.47 55.33 291.04 51.02 290.97 52.02 295.16"/>
      <polygon class="cls-1" points="32.45 276.43 29.19 273.61 27.26 277.47 26.57 273.21 22.62 274.92 24.83 271.22 20.7 269.99 24.77 268.58 22.4 264.98 26.43 266.52 26.93 262.24 29.02 266 32.15 263.04 31.34 267.27 35.64 267.02 32.3 269.74 35.76 272.31 31.45 272.24 32.45 276.43"/>
      <polygon class="cls-1" points="11.74 276.43 8.49 273.61 6.56 277.47 5.87 273.21 1.92 274.92 4.13 271.22 0 269.99 4.07 268.58 1.7 264.98 5.73 266.52 6.22 262.24 8.32 266 11.45 263.04 10.64 267.27 14.94 267.02 11.6 269.74 15.06 272.31 10.75 272.24 11.74 276.43"/>
      <polygon class="cls-1" points="52.02 276.43 48.76 273.61 46.83 277.47 46.15 273.21 42.19 274.92 44.4 271.22 40.28 269.99 44.35 268.58 41.98 264.98 46 266.52 46.5 262.24 48.6 266 51.73 263.04 50.92 267.27 55.22 267.02 51.87 269.74 55.33 272.31 51.02 272.24 52.02 276.43"/>
      <polygon class="cls-1" points="32.45 257.7 29.19 254.88 27.26 258.73 26.57 254.48 22.62 256.19 24.83 252.49 20.7 251.26 24.77 249.85 22.4 246.25 26.43 247.78 26.93 243.5 29.02 247.27 32.15 244.31 31.34 248.54 35.64 248.29 32.3 251.01 35.76 253.58 31.45 253.51 32.45 257.7"/>
      <polygon class="cls-1" points="11.74 257.7 8.49 254.88 6.56 258.73 5.87 254.48 1.92 256.19 4.13 252.49 0 251.26 4.07 249.85 1.7 246.25 5.73 247.78 6.22 243.5 8.32 247.27 11.45 244.31 10.64 248.54 14.94 248.29 11.6 251.01 15.06 253.58 10.75 253.51 11.74 257.7"/>
      <polygon class="cls-1" points="52.02 257.7 48.76 254.88 46.83 258.73 46.15 254.48 42.19 256.19 44.4 252.49 40.28 251.26 44.35 249.85 41.98 246.25 46 247.78 46.5 243.5 48.6 247.27 51.73 244.31 50.92 248.54 55.22 248.29 51.87 251.01 55.33 253.58 51.02 253.51 52.02 257.7"/>
      <polygon class="cls-1" points="32.45 238.97 29.19 236.15 27.26 240 26.57 235.75 22.62 237.46 24.83 233.76 20.7 232.53 24.77 231.12 22.4 227.52 26.43 229.05 26.93 224.77 29.02 228.54 32.15 225.58 31.34 229.81 35.64 229.56 32.3 232.27 35.76 234.85 31.45 234.78 32.45 238.97"/>
      <polygon class="cls-1" points="11.74 238.97 8.49 236.15 6.56 240 5.87 235.75 1.92 237.46 4.13 233.76 0 232.53 4.07 231.12 1.7 227.52 5.73 229.05 6.22 224.77 8.32 228.54 11.45 225.58 10.64 229.81 14.94 229.56 11.6 232.27 15.06 234.85 10.75 234.78 11.74 238.97"/>
      <polygon class="cls-1" points="52.02 238.97 48.76 236.15 46.83 240 46.15 235.75 42.19 237.46 44.4 233.76 40.28 232.53 44.35 231.12 41.98 227.52 46 229.05 46.5 224.77 48.6 228.54 51.73 225.58 50.92 229.81 55.22 229.56 51.87 232.27 55.33 234.85 51.02 234.78 52.02 238.97"/>
      <polygon class="cls-1" points="32.45 220.24 29.19 217.42 27.26 221.27 26.57 217.02 22.62 218.73 24.83 215.03 20.7 213.8 24.77 212.38 22.4 208.79 26.43 210.32 26.93 206.04 29.02 209.81 32.15 206.85 31.34 211.08 35.64 210.83 32.3 213.54 35.76 216.11 31.45 216.05 32.45 220.24"/>
      <polygon class="cls-1" points="11.74 220.24 8.49 217.42 6.56 221.27 5.87 217.02 1.92 218.73 4.13 215.03 0 213.8 4.07 212.38 1.7 208.79 5.73 210.32 6.22 206.04 8.32 209.81 11.45 206.85 10.64 211.08 14.94 210.83 11.6 213.54 15.06 216.11 10.75 216.05 11.74 220.24"/>
      <polygon class="cls-1" points="52.02 220.24 48.76 217.42 46.83 221.27 46.15 217.02 42.19 218.73 44.4 215.03 40.28 213.8 44.35 212.38 41.98 208.79 46 210.32 46.5 206.04 48.6 209.81 51.73 206.85 50.92 211.08 55.22 210.83 51.87 213.54 55.33 216.11 51.02 216.05 52.02 220.24"/>
      <polygon class="cls-1" points="32.45 201.51 29.19 198.69 27.26 202.54 26.57 198.29 22.62 200 24.83 196.3 20.7 195.07 24.77 193.65 22.4 190.06 26.43 191.59 26.93 187.31 29.02 191.07 32.15 188.12 31.34 192.35 35.64 192.09 32.3 194.81 35.76 197.38 31.45 197.32 32.45 201.51"/>
      <polygon class="cls-1" points="11.74 201.51 8.49 198.69 6.56 202.54 5.87 198.29 1.92 200 4.13 196.3 0 195.07 4.07 193.65 1.7 190.06 5.73 191.59 6.22 187.31 8.32 191.07 11.45 188.12 10.64 192.35 14.94 192.09 11.6 194.81 15.06 197.38 10.75 197.32 11.74 201.51"/>
      <polygon class="cls-1" points="52.02 201.51 48.76 198.69 46.83 202.54 46.15 198.29 42.19 200 44.4 196.3 40.28 195.07 44.35 193.65 41.98 190.06 46 191.59 46.5 187.31 48.6 191.07 51.73 188.12 50.92 192.35 55.22 192.09 51.87 194.81 55.33 197.38 51.02 197.32 52.02 201.51"/>
      <polygon class="cls-1" points="52.02 182.78 48.76 179.96 46.83 183.81 46.15 179.56 42.19 181.26 44.4 177.57 40.28 176.33 44.35 174.92 41.98 171.32 46 172.86 46.5 168.58 48.6 172.34 51.73 169.39 50.92 173.62 55.22 173.36 51.87 176.08 55.33 178.65 51.02 178.59 52.02 182.78"/>
      <polygon class="cls-1" points="31.88 182.78 28.62 179.96 26.69 183.81 26.01 179.56 22.06 181.26 24.27 177.57 20.14 176.33 24.21 174.92 21.84 171.32 25.86 172.86 26.36 168.58 28.46 172.34 31.59 169.39 30.78 173.62 35.08 173.36 31.74 176.08 35.19 178.65 30.89 178.59 31.88 182.78"/>
    </g>
    <g>
      <text class="cls-2" transform="translate(226.74 346.96)"><tspan class="cls-11" x="0" y="0">2</tspan><tspan x="6.47" y="0">017</tspan></text>
      <polygon class="cls-1" points="244.92 332.63 241.66 329.81 239.73 333.66 239.05 329.41 235.09 331.11 237.3 327.42 233.17 326.18 237.24 324.77 234.87 321.17 238.9 322.71 239.4 318.43 241.49 322.19 244.63 319.23 243.81 323.47 248.11 323.21 244.77 325.93 248.23 328.5 243.92 328.44 244.92 332.63"/>
      <polygon class="cls-1" points="224.22 332.63 220.96 329.81 219.03 333.66 218.34 329.41 214.39 331.11 216.6 327.42 212.47 326.18 216.54 324.77 214.17 321.17 218.2 322.71 218.7 318.43 220.79 322.19 223.92 319.23 223.11 323.47 227.41 323.21 224.07 325.93 227.53 328.5 223.22 328.44 224.22 332.63"/>
      <polygon class="cls-1" points="264.49 332.63 261.23 329.81 259.3 333.66 258.62 329.41 254.66 331.11 256.88 327.42 252.75 326.18 256.82 324.77 254.45 321.17 258.47 322.71 258.97 318.43 261.07 322.19 264.2 319.23 263.39 323.47 267.69 323.21 264.35 325.93 267.8 328.5 263.5 328.44 264.49 332.63"/>
      <polygon class="cls-1" points="244.92 313.9 241.66 311.08 239.73 314.93 239.05 310.67 235.09 312.38 237.3 308.69 233.17 307.45 237.24 306.04 234.87 302.44 238.9 303.98 239.4 299.7 241.49 303.46 244.63 300.5 243.81 304.73 248.11 304.48 244.77 307.2 248.23 309.77 243.92 309.7 244.92 313.9"/>
      <polygon class="cls-1" points="224.22 313.9 220.96 311.08 219.03 314.93 218.34 310.67 214.39 312.38 216.6 308.69 212.47 307.45 216.54 306.04 214.17 302.44 218.2 303.98 218.7 299.7 220.79 303.46 223.92 300.5 223.11 304.73 227.41 304.48 224.07 307.2 227.53 309.77 223.22 309.7 224.22 313.9"/>
      <polygon class="cls-1" points="264.49 313.9 261.23 311.08 259.3 314.93 258.62 310.67 254.66 312.38 256.88 308.69 252.75 307.45 256.82 306.04 254.45 302.44 258.47 303.98 258.97 299.7 261.07 303.46 264.2 300.5 263.39 304.73 267.69 304.48 264.35 307.2 267.8 309.77 263.5 309.7 264.49 313.9"/>
      <polygon class="cls-1" points="244.92 295.16 241.66 292.35 239.73 296.2 239.05 291.94 235.09 293.65 237.3 289.95 233.17 288.72 237.24 287.31 234.87 283.71 238.9 285.25 239.4 280.97 241.49 284.73 244.63 281.77 243.81 286 248.11 285.75 244.77 288.47 248.23 291.04 243.92 290.97 244.92 295.16"/>
      <polygon class="cls-1" points="224.22 295.16 220.96 292.35 219.03 296.2 218.34 291.94 214.39 293.65 216.6 289.95 212.47 288.72 216.54 287.31 214.17 283.71 218.2 285.25 218.7 280.97 220.79 284.73 223.92 281.77 223.11 286 227.41 285.75 224.07 288.47 227.53 291.04 223.22 290.97 224.22 295.16"/>
      <polygon class="cls-1" points="264.49 295.16 261.23 292.35 259.3 296.2 258.62 291.94 254.66 293.65 256.88 289.95 252.75 288.72 256.82 287.31 254.45 283.71 258.47 285.25 258.97 280.97 261.07 284.73 264.2 281.77 263.39 286 267.69 285.75 264.35 288.47 267.8 291.04 263.5 290.97 264.49 295.16"/>
      <polygon class="cls-1" points="244.92 276.43 241.66 273.61 239.73 277.47 239.05 273.21 235.09 274.92 237.3 271.22 233.17 269.99 237.24 268.58 234.87 264.98 238.9 266.52 239.4 262.24 241.49 266 244.63 263.04 243.81 267.27 248.11 267.02 244.77 269.74 248.23 272.31 243.92 272.24 244.92 276.43"/>
      <polygon class="cls-1" points="224.22 276.43 220.96 273.61 219.03 277.47 218.34 273.21 214.39 274.92 216.6 271.22 212.47 269.99 216.54 268.58 214.17 264.98 218.2 266.52 218.7 262.24 220.79 266 223.92 263.04 223.11 267.27 227.41 267.02 224.07 269.74 227.53 272.31 223.22 272.24 224.22 276.43"/>
      <polygon class="cls-1" points="264.49 276.43 261.23 273.61 259.3 277.47 258.62 273.21 254.66 274.92 256.88 271.22 252.75 269.99 256.82 268.58 254.45 264.98 258.47 266.52 258.97 262.24 261.07 266 264.2 263.04 263.39 267.27 267.69 267.02 264.35 269.74 267.8 272.31 263.5 272.24 264.49 276.43"/>
      <polygon class="cls-1" points="244.92 257.7 241.66 254.88 239.73 258.73 239.05 254.48 235.09 256.19 237.3 252.49 233.17 251.26 237.24 249.85 234.87 246.25 238.9 247.78 239.4 243.5 241.49 247.27 244.63 244.31 243.81 248.54 248.11 248.29 244.77 251.01 248.23 253.58 243.92 253.51 244.92 257.7"/>
      <polygon class="cls-1" points="224.22 257.7 220.96 254.88 219.03 258.73 218.34 254.48 214.39 256.19 216.6 252.49 212.47 251.26 216.54 249.85 214.17 246.25 218.2 247.78 218.7 243.5 220.79 247.27 223.92 244.31 223.11 248.54 227.41 248.29 224.07 251.01 227.53 253.58 223.22 253.51 224.22 257.7"/>
      <polygon class="cls-1" points="264.49 257.7 261.23 254.88 259.3 258.73 258.62 254.48 254.66 256.19 256.88 252.49 252.75 251.26 256.82 249.85 254.45 246.25 258.47 247.78 258.97 243.5 261.07 247.27 264.2 244.31 263.39 248.54 267.69 248.29 264.35 251.01 267.8 253.58 263.5 253.51 264.49 257.7"/>
      <polygon class="cls-1" points="244.92 238.97 241.66 236.15 239.73 240 239.05 235.75 235.09 237.46 237.3 233.76 233.17 232.53 237.24 231.12 234.87 227.52 238.9 229.05 239.4 224.77 241.49 228.54 244.63 225.58 243.81 229.81 248.11 229.56 244.77 232.27 248.23 234.85 243.92 234.78 244.92 238.97"/>
      <polygon class="cls-1" points="224.22 238.97 220.96 236.15 219.03 240 218.34 235.75 214.39 237.46 216.6 233.76 212.47 232.53 216.54 231.12 214.17 227.52 218.2 229.05 218.7 224.77 220.79 228.54 223.92 225.58 223.11 229.81 227.41 229.56 224.07 232.27 227.53 234.85 223.22 234.78 224.22 238.97"/>
      <polygon class="cls-1" points="264.49 238.97 261.23 236.15 259.3 240 258.62 235.75 254.66 237.46 256.88 233.76 252.75 232.53 256.82 231.12 254.45 227.52 258.47 229.05 258.97 224.77 261.07 228.54 264.2 225.58 263.39 229.81 267.69 229.56 264.35 232.27 267.8 234.85 263.5 234.78 264.49 238.97"/>
      <polygon class="cls-1" points="244.92 220.24 241.66 217.42 239.73 221.27 239.05 217.02 235.09 218.73 237.3 215.03 233.17 213.8 237.24 212.38 234.87 208.79 238.9 210.32 239.4 206.04 241.49 209.81 244.63 206.85 243.81 211.08 248.11 210.83 244.77 213.54 248.23 216.11 243.92 216.05 244.92 220.24"/>
      <polygon class="cls-1" points="224.22 220.24 220.96 217.42 219.03 221.27 218.34 217.02 214.39 218.73 216.6 215.03 212.47 213.8 216.54 212.38 214.17 208.79 218.2 210.32 218.7 206.04 220.79 209.81 223.92 206.85 223.11 211.08 227.41 210.83 224.07 213.54 227.53 216.11 223.22 216.05 224.22 220.24"/>
      <polygon class="cls-1" points="264.49 220.24 261.23 217.42 259.3 221.27 258.62 217.02 254.66 218.73 256.88 215.03 252.75 213.8 256.82 212.38 254.45 208.79 258.47 210.32 258.97 206.04 261.07 209.81 264.2 206.85 263.39 211.08 267.69 210.83 264.35 213.54 267.8 216.11 263.5 216.05 264.49 220.24"/>
      <polygon class="cls-1" points="244.92 201.51 241.66 198.69 239.73 202.54 239.05 198.29 235.09 200 237.3 196.3 233.17 195.07 237.24 193.65 234.87 190.06 238.9 191.59 239.4 187.31 241.49 191.07 244.63 188.12 243.81 192.35 248.11 192.09 244.77 194.81 248.23 197.38 243.92 197.32 244.92 201.51"/>
      <polygon class="cls-1" points="224.22 201.51 220.96 198.69 219.03 202.54 218.34 198.29 214.39 200 216.6 196.3 212.47 195.07 216.54 193.65 214.17 190.06 218.2 191.59 218.7 187.31 220.79 191.07 223.92 188.12 223.11 192.35 227.41 192.09 224.07 194.81 227.53 197.38 223.22 197.32 224.22 201.51"/>
      <polygon class="cls-1" points="264.49 201.51 261.23 198.69 259.3 202.54 258.62 198.29 254.66 200 256.88 196.3 252.75 195.07 256.82 193.65 254.45 190.06 258.47 191.59 258.97 187.31 261.07 191.07 264.2 188.12 263.39 192.35 267.69 192.09 264.35 194.81 267.8 197.38 263.5 197.32 264.49 201.51"/>
      <polygon class="cls-1" points="264.49 182.78 261.23 179.96 259.3 183.81 258.62 179.56 254.66 181.26 256.88 177.57 252.75 176.33 256.82 174.92 254.45 171.32 258.47 172.86 258.97 168.58 261.07 172.34 264.2 169.39 263.39 173.62 267.69 173.36 264.35 176.08 267.8 178.65 263.5 178.59 264.49 182.78"/>
      <polygon class="cls-1" points="244.35 182.78 241.1 179.96 239.16 183.81 238.48 179.56 234.53 181.26 236.74 177.57 232.61 176.33 236.68 174.92 234.31 171.32 238.34 172.86 238.83 168.58 240.93 172.34 244.06 169.39 243.25 173.62 247.55 173.36 244.21 176.08 247.67 178.65 243.36 178.59 244.35 182.78"/>
    </g>
    <g>
      <text class="cls-2" transform="translate(298.58 347.4)"><tspan class="cls-11" x="0" y="0">2</tspan><tspan x="6.47" y="0">018</tspan></text>
      <polygon class="cls-1" points="317.49 333.07 314.23 330.25 312.3 334.1 311.62 329.84 307.66 331.55 309.88 327.86 305.75 326.62 309.82 325.21 307.45 321.61 311.47 323.15 311.97 318.87 314.07 322.63 317.2 319.67 316.39 323.9 320.69 323.65 317.35 326.37 320.8 328.94 316.5 328.87 317.49 333.07"/>
      <polygon class="cls-1" points="296.79 333.07 293.53 330.25 291.6 334.1 290.92 329.84 286.96 331.55 289.17 327.86 285.05 326.62 289.12 325.21 286.75 321.61 290.77 323.15 291.27 318.87 293.37 322.63 296.5 319.67 295.69 323.9 299.99 323.65 296.64 326.37 300.1 328.94 295.79 328.87 296.79 333.07"/>
      <polygon class="cls-1" points="337.07 333.07 333.81 330.25 331.88 334.1 331.19 329.84 327.24 331.55 329.45 327.86 325.32 326.62 329.39 325.21 327.02 321.61 331.05 323.15 331.55 318.87 333.64 322.63 336.77 319.67 335.96 323.9 340.26 323.65 336.92 326.37 340.38 328.94 336.07 328.87 337.07 333.07"/>
      <polygon class="cls-1" points="317.49 314.33 314.23 311.52 312.3 315.37 311.62 311.11 307.66 312.82 309.88 309.12 305.75 307.89 309.82 306.48 307.45 302.88 311.47 304.42 311.97 300.14 314.07 303.9 317.2 300.94 316.39 305.17 320.69 304.92 317.35 307.64 320.8 310.21 316.5 310.14 317.49 314.33"/>
      <polygon class="cls-1" points="296.79 314.33 293.53 311.52 291.6 315.37 290.92 311.11 286.96 312.82 289.17 309.12 285.05 307.89 289.12 306.48 286.75 302.88 290.77 304.42 291.27 300.14 293.37 303.9 296.5 300.94 295.69 305.17 299.99 304.92 296.64 307.64 300.1 310.21 295.79 310.14 296.79 314.33"/>
      <polygon class="cls-1" points="337.07 314.33 333.81 311.52 331.88 315.37 331.19 311.11 327.24 312.82 329.45 309.12 325.32 307.89 329.39 306.48 327.02 302.88 331.05 304.42 331.55 300.14 333.64 303.9 336.77 300.94 335.96 305.17 340.26 304.92 336.92 307.64 340.38 310.21 336.07 310.14 337.07 314.33"/>
      <polygon class="cls-1" points="317.49 295.6 314.23 292.78 312.3 296.64 311.62 292.38 307.66 294.09 309.88 290.39 305.75 289.16 309.82 287.75 307.45 284.15 311.47 285.69 311.97 281.41 314.07 285.17 317.2 282.21 316.39 286.44 320.69 286.19 317.35 288.91 320.8 291.48 316.5 291.41 317.49 295.6"/>
      <polygon class="cls-1" points="296.79 295.6 293.53 292.78 291.6 296.64 290.92 292.38 286.96 294.09 289.17 290.39 285.05 289.16 289.12 287.75 286.75 284.15 290.77 285.69 291.27 281.41 293.37 285.17 296.5 282.21 295.69 286.44 299.99 286.19 296.64 288.91 300.1 291.48 295.79 291.41 296.79 295.6"/>
      <polygon class="cls-1" points="337.07 295.6 333.81 292.78 331.88 296.64 331.19 292.38 327.24 294.09 329.45 290.39 325.32 289.16 329.39 287.75 327.02 284.15 331.05 285.69 331.55 281.41 333.64 285.17 336.77 282.21 335.96 286.44 340.26 286.19 336.92 288.91 340.38 291.48 336.07 291.41 337.07 295.6"/>
      <polygon class="cls-1" points="317.49 276.87 314.23 274.05 312.3 277.9 311.62 273.65 307.66 275.36 309.88 271.66 305.75 270.43 309.82 269.02 307.45 265.42 311.47 266.95 311.97 262.67 314.07 266.44 317.2 263.48 316.39 267.71 320.69 267.46 317.35 270.18 320.8 272.75 316.5 272.68 317.49 276.87"/>
      <polygon class="cls-1" points="296.79 276.87 293.53 274.05 291.6 277.9 290.92 273.65 286.96 275.36 289.17 271.66 285.05 270.43 289.12 269.02 286.75 265.42 290.77 266.95 291.27 262.67 293.37 266.44 296.5 263.48 295.69 267.71 299.99 267.46 296.64 270.18 300.1 272.75 295.79 272.68 296.79 276.87"/>
      <polygon class="cls-1" points="337.07 276.87 333.81 274.05 331.88 277.9 331.19 273.65 327.24 275.36 329.45 271.66 325.32 270.43 329.39 269.02 327.02 265.42 331.05 266.95 331.55 262.67 333.64 266.44 336.77 263.48 335.96 267.71 340.26 267.46 336.92 270.18 340.38 272.75 336.07 272.68 337.07 276.87"/>
      <polygon class="cls-1" points="317.49 258.14 314.23 255.32 312.3 259.17 311.62 254.92 307.66 256.63 309.88 252.93 305.75 251.7 309.82 250.29 307.45 246.69 311.47 248.22 311.97 243.94 314.07 247.71 317.2 244.75 316.39 248.98 320.69 248.73 317.35 251.45 320.8 254.02 316.5 253.95 317.49 258.14"/>
      <polygon class="cls-1" points="296.79 258.14 293.53 255.32 291.6 259.17 290.92 254.92 286.96 256.63 289.17 252.93 285.05 251.7 289.12 250.29 286.75 246.69 290.77 248.22 291.27 243.94 293.37 247.71 296.5 244.75 295.69 248.98 299.99 248.73 296.64 251.45 300.1 254.02 295.79 253.95 296.79 258.14"/>
      <polygon class="cls-1" points="337.07 258.14 333.81 255.32 331.88 259.17 331.19 254.92 327.24 256.63 329.45 252.93 325.32 251.7 329.39 250.29 327.02 246.69 331.05 248.22 331.55 243.94 333.64 247.71 336.77 244.75 335.96 248.98 340.26 248.73 336.92 251.45 340.38 254.02 336.07 253.95 337.07 258.14"/>
      <polygon class="cls-1" points="317.49 239.41 314.23 236.59 312.3 240.44 311.62 236.19 307.66 237.9 309.88 234.2 305.75 232.97 309.82 231.56 307.45 227.96 311.47 229.49 311.97 225.21 314.07 228.98 317.2 226.02 316.39 230.25 320.69 230 317.35 232.71 320.8 235.28 316.5 235.22 317.49 239.41"/>
      <polygon class="cls-1" points="296.79 239.41 293.53 236.59 291.6 240.44 290.92 236.19 286.96 237.9 289.17 234.2 285.05 232.97 289.12 231.56 286.75 227.96 290.77 229.49 291.27 225.21 293.37 228.98 296.5 226.02 295.69 230.25 299.99 230 296.64 232.71 300.1 235.28 295.79 235.22 296.79 239.41"/>
      <polygon class="cls-1" points="337.07 239.41 333.81 236.59 331.88 240.44 331.19 236.19 327.24 237.9 329.45 234.2 325.32 232.97 329.39 231.56 327.02 227.96 331.05 229.49 331.55 225.21 333.64 228.98 336.77 226.02 335.96 230.25 340.26 230 336.92 232.71 340.38 235.28 336.07 235.22 337.07 239.41"/>
      <polygon class="cls-1" points="317.49 220.68 314.23 217.86 312.3 221.71 311.62 217.46 307.66 219.17 309.88 215.47 305.75 214.24 309.82 212.82 307.45 209.23 311.47 210.76 311.97 206.48 314.07 210.25 317.2 207.29 316.39 211.52 320.69 211.26 317.35 213.98 320.8 216.55 316.5 216.49 317.49 220.68"/>
      <polygon class="cls-1" points="296.79 220.68 293.53 217.86 291.6 221.71 290.92 217.46 286.96 219.17 289.17 215.47 285.05 214.24 289.12 212.82 286.75 209.23 290.77 210.76 291.27 206.48 293.37 210.25 296.5 207.29 295.69 211.52 299.99 211.26 296.64 213.98 300.1 216.55 295.79 216.49 296.79 220.68"/>
      <polygon class="cls-1" points="337.07 220.68 333.81 217.86 331.88 221.71 331.19 217.46 327.24 219.17 329.45 215.47 325.32 214.24 329.39 212.82 327.02 209.23 331.05 210.76 331.55 206.48 333.64 210.25 336.77 207.29 335.96 211.52 340.26 211.26 336.92 213.98 340.38 216.55 336.07 216.49 337.07 220.68"/>
      <polygon class="cls-1" points="317.49 201.95 314.23 199.13 312.3 202.98 311.62 198.73 307.66 200.44 309.88 196.74 305.75 195.5 309.82 194.09 307.45 190.49 311.47 192.03 311.97 187.75 314.07 191.51 317.2 188.56 316.39 192.79 320.69 192.53 317.35 195.25 320.8 197.82 316.5 197.76 317.49 201.95"/>
      <polygon class="cls-1" points="296.79 201.95 293.53 199.13 291.6 202.98 290.92 198.73 286.96 200.44 289.17 196.74 285.05 195.5 289.12 194.09 286.75 190.49 290.77 192.03 291.27 187.75 293.37 191.51 296.5 188.56 295.69 192.79 299.99 192.53 296.64 195.25 300.1 197.82 295.79 197.76 296.79 201.95"/>
      <polygon class="cls-1" points="337.07 201.95 333.81 199.13 331.88 202.98 331.19 198.73 327.24 200.44 329.45 196.74 325.32 195.5 329.39 194.09 327.02 190.49 331.05 192.03 331.55 187.75 333.64 191.51 336.77 188.56 335.96 192.79 340.26 192.53 336.92 195.25 340.38 197.82 336.07 197.76 337.07 201.95"/>
      <polygon class="cls-1" points="337.07 183.22 333.81 180.4 331.88 184.25 331.19 180 327.24 181.7 329.45 178.01 325.32 176.77 329.39 175.36 327.02 171.76 331.05 173.3 331.55 169.02 333.64 172.78 336.77 169.82 335.96 174.06 340.26 173.8 336.92 176.52 340.38 179.09 336.07 179.03 337.07 183.22"/>
      <polygon class="cls-1" points="316.93 183.22 313.67 180.4 311.74 184.25 311.06 180 307.1 181.7 309.31 178.01 305.18 176.77 309.25 175.36 306.88 171.76 310.91 173.3 311.41 169.02 313.5 172.78 316.64 169.82 315.82 174.06 320.12 173.8 316.78 176.52 320.24 179.09 315.93 179.03 316.93 183.22"/>
      <polygon class="cls-1" points="337.52 164.49 334.26 161.67 332.33 165.52 331.64 161.26 327.69 162.97 329.9 159.28 325.77 158.04 329.84 156.63 327.47 153.03 331.5 154.57 331.99 150.29 334.09 154.05 337.22 151.09 336.41 155.32 340.71 155.07 337.37 157.79 340.83 160.36 336.52 160.29 337.52 164.49"/>
      <polygon class="cls-1" points="317.38 164.49 314.12 161.67 312.19 165.52 311.51 161.26 307.55 162.97 309.76 159.28 305.63 158.04 309.7 156.63 307.33 153.03 311.36 154.57 311.86 150.29 313.95 154.05 317.09 151.09 316.27 155.32 320.57 155.07 317.23 157.79 320.69 160.36 316.38 160.29 317.38 164.49"/>
    </g>
    <g>
      <text class="cls-2" transform="translate(155.91 346.96)"><tspan class="cls-12" x="0" y="0">2</tspan><tspan x="6.47" y="0">016</tspan></text>
      <polygon class="cls-1" points="174.45 332.63 171.19 329.81 169.26 333.66 168.57 329.41 164.62 331.11 166.83 327.42 162.7 326.18 166.77 324.77 164.4 321.17 168.43 322.71 168.93 318.43 171.02 322.19 174.15 319.23 173.34 323.47 177.64 323.21 174.3 325.93 177.76 328.5 173.45 328.44 174.45 332.63"/>
      <polygon class="cls-1" points="153.74 332.63 150.49 329.81 148.56 333.66 147.87 329.41 143.92 331.11 146.13 327.42 142 326.18 146.07 324.77 143.7 321.17 147.73 322.71 148.22 318.43 150.32 322.19 153.45 319.23 152.64 323.47 156.94 323.21 153.6 325.93 157.06 328.5 152.75 328.44 153.74 332.63"/>
      <polygon class="cls-1" points="194.02 332.63 190.76 329.81 188.83 333.66 188.15 329.41 184.19 331.11 186.4 327.42 182.28 326.18 186.35 324.77 183.98 321.17 188 322.71 188.5 318.43 190.6 322.19 193.73 319.23 192.92 323.47 197.22 323.21 193.87 325.93 197.33 328.5 193.02 328.44 194.02 332.63"/>
      <polygon class="cls-1" points="174.45 313.9 171.19 311.08 169.26 314.93 168.57 310.67 164.62 312.38 166.83 308.69 162.7 307.45 166.77 306.04 164.4 302.44 168.43 303.98 168.93 299.7 171.02 303.46 174.15 300.5 173.34 304.73 177.64 304.48 174.3 307.2 177.76 309.77 173.45 309.7 174.45 313.9"/>
      <polygon class="cls-1" points="153.74 313.9 150.49 311.08 148.56 314.93 147.87 310.67 143.92 312.38 146.13 308.69 142 307.45 146.07 306.04 143.7 302.44 147.73 303.98 148.22 299.7 150.32 303.46 153.45 300.5 152.64 304.73 156.94 304.48 153.6 307.2 157.06 309.77 152.75 309.7 153.74 313.9"/>
      <polygon class="cls-1" points="194.02 313.9 190.76 311.08 188.83 314.93 188.15 310.67 184.19 312.38 186.4 308.69 182.28 307.45 186.35 306.04 183.98 302.44 188 303.98 188.5 299.7 190.6 303.46 193.73 300.5 192.92 304.73 197.22 304.48 193.87 307.2 197.33 309.77 193.02 309.7 194.02 313.9"/>
      <polygon class="cls-1" points="174.45 295.16 171.19 292.35 169.26 296.2 168.57 291.94 164.62 293.65 166.83 289.95 162.7 288.72 166.77 287.31 164.4 283.71 168.43 285.25 168.93 280.97 171.02 284.73 174.15 281.77 173.34 286 177.64 285.75 174.3 288.47 177.76 291.04 173.45 290.97 174.45 295.16"/>
      <polygon class="cls-1" points="153.74 295.16 150.49 292.35 148.56 296.2 147.87 291.94 143.92 293.65 146.13 289.95 142 288.72 146.07 287.31 143.7 283.71 147.73 285.25 148.22 280.97 150.32 284.73 153.45 281.77 152.64 286 156.94 285.75 153.6 288.47 157.06 291.04 152.75 290.97 153.74 295.16"/>
      <polygon class="cls-1" points="194.02 295.16 190.76 292.35 188.83 296.2 188.15 291.94 184.19 293.65 186.4 289.95 182.28 288.72 186.35 287.31 183.98 283.71 188 285.25 188.5 280.97 190.6 284.73 193.73 281.77 192.92 286 197.22 285.75 193.87 288.47 197.33 291.04 193.02 290.97 194.02 295.16"/>
      <polygon class="cls-1" points="174.45 276.43 171.19 273.61 169.26 277.47 168.57 273.21 164.62 274.92 166.83 271.22 162.7 269.99 166.77 268.58 164.4 264.98 168.43 266.52 168.93 262.24 171.02 266 174.15 263.04 173.34 267.27 177.64 267.02 174.3 269.74 177.76 272.31 173.45 272.24 174.45 276.43"/>
      <polygon class="cls-1" points="153.74 276.43 150.49 273.61 148.56 277.47 147.87 273.21 143.92 274.92 146.13 271.22 142 269.99 146.07 268.58 143.7 264.98 147.73 266.52 148.22 262.24 150.32 266 153.45 263.04 152.64 267.27 156.94 267.02 153.6 269.74 157.06 272.31 152.75 272.24 153.74 276.43"/>
      <polygon class="cls-1" points="194.02 276.43 190.76 273.61 188.83 277.47 188.15 273.21 184.19 274.92 186.4 271.22 182.28 269.99 186.35 268.58 183.98 264.98 188 266.52 188.5 262.24 190.6 266 193.73 263.04 192.92 267.27 197.22 267.02 193.87 269.74 197.33 272.31 193.02 272.24 194.02 276.43"/>
      <polygon class="cls-1" points="174.45 257.7 171.19 254.88 169.26 258.73 168.57 254.48 164.62 256.19 166.83 252.49 162.7 251.26 166.77 249.85 164.4 246.25 168.43 247.78 168.93 243.5 171.02 247.27 174.15 244.31 173.34 248.54 177.64 248.29 174.3 251.01 177.76 253.58 173.45 253.51 174.45 257.7"/>
      <polygon class="cls-1" points="153.74 257.7 150.49 254.88 148.56 258.73 147.87 254.48 143.92 256.19 146.13 252.49 142 251.26 146.07 249.85 143.7 246.25 147.73 247.78 148.22 243.5 150.32 247.27 153.45 244.31 152.64 248.54 156.94 248.29 153.6 251.01 157.06 253.58 152.75 253.51 153.74 257.7"/>
      <polygon class="cls-1" points="194.02 257.7 190.76 254.88 188.83 258.73 188.15 254.48 184.19 256.19 186.4 252.49 182.28 251.26 186.35 249.85 183.98 246.25 188 247.78 188.5 243.5 190.6 247.27 193.73 244.31 192.92 248.54 197.22 248.29 193.87 251.01 197.33 253.58 193.02 253.51 194.02 257.7"/>
      <polygon class="cls-1" points="174.45 238.97 171.19 236.15 169.26 240 168.57 235.75 164.62 237.46 166.83 233.76 162.7 232.53 166.77 231.12 164.4 227.52 168.43 229.05 168.93 224.77 171.02 228.54 174.15 225.58 173.34 229.81 177.64 229.56 174.3 232.27 177.76 234.85 173.45 234.78 174.45 238.97"/>
      <polygon class="cls-1" points="153.74 238.97 150.49 236.15 148.56 240 147.87 235.75 143.92 237.46 146.13 233.76 142 232.53 146.07 231.12 143.7 227.52 147.73 229.05 148.22 224.77 150.32 228.54 153.45 225.58 152.64 229.81 156.94 229.56 153.6 232.27 157.06 234.85 152.75 234.78 153.74 238.97"/>
      <polygon class="cls-1" points="194.02 238.97 190.76 236.15 188.83 240 188.15 235.75 184.19 237.46 186.4 233.76 182.28 232.53 186.35 231.12 183.98 227.52 188 229.05 188.5 224.77 190.6 228.54 193.73 225.58 192.92 229.81 197.22 229.56 193.87 232.27 197.33 234.85 193.02 234.78 194.02 238.97"/>
      <polygon class="cls-1" points="174.45 220.24 171.19 217.42 169.26 221.27 168.57 217.02 164.62 218.73 166.83 215.03 162.7 213.8 166.77 212.38 164.4 208.79 168.43 210.32 168.93 206.04 171.02 209.81 174.15 206.85 173.34 211.08 177.64 210.83 174.3 213.54 177.76 216.11 173.45 216.05 174.45 220.24"/>
      <polygon class="cls-1" points="153.74 220.24 150.49 217.42 148.56 221.27 147.87 217.02 143.92 218.73 146.13 215.03 142 213.8 146.07 212.38 143.7 208.79 147.73 210.32 148.22 206.04 150.32 209.81 153.45 206.85 152.64 211.08 156.94 210.83 153.6 213.54 157.06 216.11 152.75 216.05 153.74 220.24"/>
      <polygon class="cls-1" points="194.02 220.24 190.76 217.42 188.83 221.27 188.15 217.02 184.19 218.73 186.4 215.03 182.28 213.8 186.35 212.38 183.98 208.79 188 210.32 188.5 206.04 190.6 209.81 193.73 206.85 192.92 211.08 197.22 210.83 193.87 213.54 197.33 216.11 193.02 216.05 194.02 220.24"/>
      <polygon class="cls-1" points="174.45 201.51 171.19 198.69 169.26 202.54 168.57 198.29 164.62 200 166.83 196.3 162.7 195.07 166.77 193.65 164.4 190.06 168.43 191.59 168.93 187.31 171.02 191.07 174.15 188.12 173.34 192.35 177.64 192.09 174.3 194.81 177.76 197.38 173.45 197.32 174.45 201.51"/>
      <polygon class="cls-1" points="153.74 201.51 150.49 198.69 148.56 202.54 147.87 198.29 143.92 200 146.13 196.3 142 195.07 146.07 193.65 143.7 190.06 147.73 191.59 148.22 187.31 150.32 191.07 153.45 188.12 152.64 192.35 156.94 192.09 153.6 194.81 157.06 197.38 152.75 197.32 153.74 201.51"/>
      <polygon class="cls-1" points="194.02 201.51 190.76 198.69 188.83 202.54 188.15 198.29 184.19 200 186.4 196.3 182.28 195.07 186.35 193.65 183.98 190.06 188 191.59 188.5 187.31 190.6 191.07 193.73 188.12 192.92 192.35 197.22 192.09 193.87 194.81 197.33 197.38 193.02 197.32 194.02 201.51"/>
      <polygon class="cls-1" points="194.02 182.78 190.76 179.96 188.83 183.81 188.15 179.56 184.19 181.26 186.4 177.57 182.28 176.33 186.35 174.92 183.98 171.32 188 172.86 188.5 168.58 190.6 172.34 193.73 169.39 192.92 173.62 197.22 173.36 193.87 176.08 197.33 178.65 193.02 178.59 194.02 182.78"/>
      <polygon class="cls-1" points="173.88 182.78 170.62 179.96 168.69 183.81 168.01 179.56 164.06 181.26 166.27 177.57 162.14 176.33 166.21 174.92 163.84 171.32 167.86 172.86 168.36 168.58 170.46 172.34 173.59 169.39 172.78 173.62 177.08 173.36 173.74 176.08 177.19 178.65 172.89 178.59 173.88 182.78"/>
      <polygon class="cls-1" points="194.02 164.05 190.76 161.23 188.83 165.08 188.15 160.82 184.19 162.53 186.4 158.84 182.28 157.6 186.35 156.19 183.98 152.59 188 154.13 188.5 149.85 190.6 153.61 193.73 150.65 192.92 154.89 197.22 154.63 193.87 157.35 197.33 159.92 193.02 159.86 194.02 164.05"/>
      <polygon class="cls-1" points="173.88 164.05 170.62 161.23 168.69 165.08 168.01 160.82 164.06 162.53 166.27 158.84 162.14 157.6 166.21 156.19 163.84 152.59 167.86 154.13 168.36 149.85 170.46 153.61 173.59 150.65 172.78 154.89 177.08 154.63 173.74 157.35 177.19 159.92 172.89 159.86 173.88 164.05"/>
      <polygon class="cls-1" points="194.02 145.32 190.76 142.5 188.83 146.35 188.15 142.09 184.19 143.8 186.4 140.1 182.28 138.87 186.35 137.46 183.98 133.86 188 135.4 188.5 131.12 190.6 134.88 193.73 131.92 192.92 136.15 197.22 135.9 193.87 138.62 197.33 141.19 193.02 141.12 194.02 145.32"/>
      <polygon class="cls-1" points="173.88 145.32 170.62 142.5 168.69 146.35 168.01 142.09 164.06 143.8 166.27 140.1 162.14 138.87 166.21 137.46 163.84 133.86 167.86 135.4 168.36 131.12 170.46 134.88 173.59 131.92 172.78 136.15 177.08 135.9 173.74 138.62 177.19 141.19 172.89 141.12 173.88 145.32"/>
      <polygon class="cls-1" points="155.52 145.34 152.26 142.52 150.33 146.37 149.65 142.12 145.7 143.82 147.91 140.13 143.78 138.89 147.85 137.48 145.48 133.88 149.5 135.42 150 131.14 152.1 134.9 155.23 131.94 154.42 136.18 158.72 135.92 155.38 138.64 158.83 141.21 154.53 141.15 155.52 145.34"/>
      <polygon class="cls-1" points="155.52 126.63 152.26 123.81 150.33 127.66 149.65 123.41 145.7 125.12 147.91 121.42 143.78 120.18 147.85 118.77 145.48 115.17 149.5 116.71 150 112.43 152.1 116.19 155.23 113.24 154.42 117.47 158.72 117.21 155.38 119.93 158.83 122.5 154.53 122.44 155.52 126.63"/>
      <polygon class="cls-1" points="155.52 164.05 152.26 161.23 150.33 165.08 149.65 160.82 145.7 162.53 147.91 158.84 143.78 157.6 147.85 156.19 145.48 152.59 149.5 154.13 150 149.85 152.1 153.61 155.23 150.65 154.42 154.89 158.72 154.63 155.38 157.35 158.83 159.92 154.53 159.86 155.52 164.05"/>
      <polygon class="cls-1" points="153.74 182.78 150.49 179.96 148.56 183.81 147.87 179.56 143.92 181.26 146.13 177.57 142 176.33 146.07 174.92 143.7 171.32 147.73 172.86 148.22 168.58 150.32 172.34 153.45 169.39 152.64 173.62 156.94 173.36 153.6 176.08 157.06 178.65 152.75 178.59 153.74 182.78"/>
    </g>
    <g>
      <text class="cls-2" transform="translate(371.26 347.05)"><tspan class="cls-11" x="0" y="0">2</tspan><tspan x="6.47" y="0">019</tspan></text>
      <polygon class="cls-1" points="389.43 333.41 386.17 330.59 384.24 334.45 383.56 330.19 379.6 331.9 381.81 328.2 377.69 326.97 381.76 325.56 379.39 321.96 383.41 323.5 383.91 319.22 386.01 322.98 389.14 320.02 388.33 324.25 392.63 324 389.29 326.72 392.74 329.29 388.43 329.22 389.43 333.41"/>
      <polygon class="cls-1" points="368.73 333.41 365.47 330.59 363.54 334.45 362.86 330.19 358.9 331.9 361.11 328.2 356.99 326.97 361.06 325.56 358.69 321.96 362.71 323.5 363.21 319.22 365.31 322.98 368.44 320.02 367.62 324.25 371.93 324 368.58 326.72 372.04 329.29 367.73 329.22 368.73 333.41"/>
      <polygon class="cls-1" points="409.01 333.41 405.75 330.59 403.82 334.45 403.13 330.19 399.18 331.9 401.39 328.2 397.26 326.97 401.33 325.56 398.96 321.96 402.99 323.5 403.48 319.22 405.58 322.98 408.71 320.02 407.9 324.25 412.2 324 408.86 326.72 412.32 329.29 408.01 329.22 409.01 333.41"/>
      <polygon class="cls-1" points="389.43 314.68 386.17 311.86 384.24 315.71 383.56 311.46 379.6 313.17 381.81 309.47 377.69 308.24 381.76 306.83 379.39 303.23 383.41 304.76 383.91 300.48 386.01 304.25 389.14 301.29 388.33 305.52 392.63 305.27 389.29 307.99 392.74 310.56 388.43 310.49 389.43 314.68"/>
      <polygon class="cls-1" points="368.73 314.68 365.47 311.86 363.54 315.71 362.86 311.46 358.9 313.17 361.11 309.47 356.99 308.24 361.06 306.83 358.69 303.23 362.71 304.76 363.21 300.48 365.31 304.25 368.44 301.29 367.62 305.52 371.93 305.27 368.58 307.99 372.04 310.56 367.73 310.49 368.73 314.68"/>
      <polygon class="cls-1" points="409.01 314.68 405.75 311.86 403.82 315.71 403.13 311.46 399.18 313.17 401.39 309.47 397.26 308.24 401.33 306.83 398.96 303.23 402.99 304.76 403.48 300.48 405.58 304.25 408.71 301.29 407.9 305.52 412.2 305.27 408.86 307.99 412.32 310.56 408.01 310.49 409.01 314.68"/>
      <polygon class="cls-1" points="389.43 295.95 386.17 293.13 384.24 296.98 383.56 292.73 379.6 294.44 381.81 290.74 377.69 289.51 381.76 288.1 379.39 284.5 383.41 286.03 383.91 281.75 386.01 285.52 389.14 282.56 388.33 286.79 392.63 286.54 389.29 289.26 392.74 291.83 388.43 291.76 389.43 295.95"/>
      <polygon class="cls-1" points="368.73 295.95 365.47 293.13 363.54 296.98 362.86 292.73 358.9 294.44 361.11 290.74 356.99 289.51 361.06 288.1 358.69 284.5 362.71 286.03 363.21 281.75 365.31 285.52 368.44 282.56 367.62 286.79 371.93 286.54 368.58 289.26 372.04 291.83 367.73 291.76 368.73 295.95"/>
      <polygon class="cls-1" points="409.01 295.95 405.75 293.13 403.82 296.98 403.13 292.73 399.18 294.44 401.39 290.74 397.26 289.51 401.33 288.1 398.96 284.5 402.99 286.03 403.48 281.75 405.58 285.52 408.71 282.56 407.9 286.79 412.2 286.54 408.86 289.26 412.32 291.83 408.01 291.76 409.01 295.95"/>
      <polygon class="cls-1" points="389.43 277.22 386.17 274.4 384.24 278.25 383.56 274 379.6 275.71 381.81 272.01 377.69 270.78 381.76 269.37 379.39 265.77 383.41 267.3 383.91 263.02 386.01 266.79 389.14 263.83 388.33 268.06 392.63 267.81 389.29 270.52 392.74 273.09 388.43 273.03 389.43 277.22"/>
      <polygon class="cls-1" points="368.73 277.22 365.47 274.4 363.54 278.25 362.86 274 358.9 275.71 361.11 272.01 356.99 270.78 361.06 269.37 358.69 265.77 362.71 267.3 363.21 263.02 365.31 266.79 368.44 263.83 367.62 268.06 371.93 267.81 368.58 270.52 372.04 273.09 367.73 273.03 368.73 277.22"/>
      <polygon class="cls-1" points="409.01 277.22 405.75 274.4 403.82 278.25 403.13 274 399.18 275.71 401.39 272.01 397.26 270.78 401.33 269.37 398.96 265.77 402.99 267.3 403.48 263.02 405.58 266.79 408.71 263.83 407.9 268.06 412.2 267.81 408.86 270.52 412.32 273.09 408.01 273.03 409.01 277.22"/>
      <polygon class="cls-1" points="389.43 258.49 386.17 255.67 384.24 259.52 383.56 255.27 379.6 256.98 381.81 253.28 377.69 252.05 381.76 250.63 379.39 247.04 383.41 248.57 383.91 244.29 386.01 248.06 389.14 245.1 388.33 249.33 392.63 249.07 389.29 251.79 392.74 254.36 388.43 254.3 389.43 258.49"/>
      <polygon class="cls-1" points="368.73 258.49 365.47 255.67 363.54 259.52 362.86 255.27 358.9 256.98 361.11 253.28 356.99 252.05 361.06 250.63 358.69 247.04 362.71 248.57 363.21 244.29 365.31 248.06 368.44 245.1 367.62 249.33 371.93 249.07 368.58 251.79 372.04 254.36 367.73 254.3 368.73 258.49"/>
      <polygon class="cls-1" points="409.01 258.49 405.75 255.67 403.82 259.52 403.13 255.27 399.18 256.98 401.39 253.28 397.26 252.05 401.33 250.63 398.96 247.04 402.99 248.57 403.48 244.29 405.58 248.06 408.71 245.1 407.9 249.33 412.2 249.07 408.86 251.79 412.32 254.36 408.01 254.3 409.01 258.49"/>
      <polygon class="cls-1" points="389.43 239.76 386.17 236.94 384.24 240.79 383.56 236.54 379.6 238.25 381.81 234.55 377.69 233.31 381.76 231.9 379.39 228.3 383.41 229.84 383.91 225.56 386.01 229.32 389.14 226.37 388.33 230.6 392.63 230.34 389.29 233.06 392.74 235.63 388.43 235.57 389.43 239.76"/>
      <polygon class="cls-1" points="368.73 239.76 365.47 236.94 363.54 240.79 362.86 236.54 358.9 238.25 361.11 234.55 356.99 233.31 361.06 231.9 358.69 228.3 362.71 229.84 363.21 225.56 365.31 229.32 368.44 226.37 367.62 230.6 371.93 230.34 368.58 233.06 372.04 235.63 367.73 235.57 368.73 239.76"/>
      <polygon class="cls-1" points="409.01 239.76 405.75 236.94 403.82 240.79 403.13 236.54 399.18 238.25 401.39 234.55 397.26 233.31 401.33 231.9 398.96 228.3 402.99 229.84 403.48 225.56 405.58 229.32 408.71 226.37 407.9 230.6 412.2 230.34 408.86 233.06 412.32 235.63 408.01 235.57 409.01 239.76"/>
      <polygon class="cls-1" points="389.43 221.03 386.17 218.21 384.24 222.06 383.56 217.81 379.6 219.51 381.81 215.82 377.69 214.58 381.76 213.17 379.39 209.57 383.41 211.11 383.91 206.83 386.01 210.59 389.14 207.63 388.33 211.87 392.63 211.61 389.29 214.33 392.74 216.9 388.43 216.84 389.43 221.03"/>
      <polygon class="cls-1" points="368.73 221.03 365.47 218.21 363.54 222.06 362.86 217.81 358.9 219.51 361.11 215.82 356.99 214.58 361.06 213.17 358.69 209.57 362.71 211.11 363.21 206.83 365.31 210.59 368.44 207.63 367.62 211.87 371.93 211.61 368.58 214.33 372.04 216.9 367.73 216.84 368.73 221.03"/>
      <polygon class="cls-1" points="409.01 221.03 405.75 218.21 403.82 222.06 403.13 217.81 399.18 219.51 401.39 215.82 397.26 214.58 401.33 213.17 398.96 209.57 402.99 211.11 403.48 206.83 405.58 210.59 408.71 207.63 407.9 211.87 412.2 211.61 408.86 214.33 412.32 216.9 408.01 216.84 409.01 221.03"/>
      <polygon class="cls-1" points="389.43 202.3 386.17 199.48 384.24 203.33 383.56 199.07 379.6 200.78 381.81 197.09 377.69 195.85 381.76 194.44 379.39 190.84 383.41 192.38 383.91 188.1 386.01 191.86 389.14 188.9 388.33 193.13 392.63 192.88 389.29 195.6 392.74 198.17 388.43 198.1 389.43 202.3"/>
      <polygon class="cls-1" points="368.73 202.3 365.47 199.48 363.54 203.33 362.86 199.07 358.9 200.78 361.11 197.09 356.99 195.85 361.06 194.44 358.69 190.84 362.71 192.38 363.21 188.1 365.31 191.86 368.44 188.9 367.62 193.13 371.93 192.88 368.58 195.6 372.04 198.17 367.73 198.1 368.73 202.3"/>
      <polygon class="cls-1" points="409.01 202.3 405.75 199.48 403.82 203.33 403.13 199.07 399.18 200.78 401.39 197.09 397.26 195.85 401.33 194.44 398.96 190.84 402.99 192.38 403.48 188.1 405.58 191.86 408.71 188.9 407.9 193.13 412.2 192.88 408.86 195.6 412.32 198.17 408.01 198.1 409.01 202.3"/>
      <polygon class="cls-1" points="409.01 183.56 405.75 180.75 403.82 184.6 403.13 180.34 399.18 182.05 401.39 178.35 397.26 177.12 401.33 175.71 398.96 172.11 402.99 173.65 403.48 169.37 405.58 173.13 408.71 170.17 407.9 174.4 412.2 174.15 408.86 176.87 412.32 179.44 408.01 179.37 409.01 183.56"/>
      <polygon class="cls-1" points="388.87 183.56 385.61 180.75 383.68 184.6 383 180.34 379.04 182.05 381.25 178.35 377.12 177.12 381.19 175.71 378.82 172.11 382.85 173.65 383.35 169.37 385.44 173.13 388.58 170.17 387.76 174.4 392.06 174.15 388.72 176.87 392.18 179.44 387.87 179.37 388.87 183.56"/>
      <polygon class="cls-1" points="409.01 164.83 405.75 162.01 403.82 165.87 403.13 161.61 399.18 163.32 401.39 159.62 397.26 158.39 401.33 156.98 398.96 153.38 402.99 154.92 403.48 150.64 405.58 154.4 408.71 151.44 407.9 155.67 412.2 155.42 408.86 158.14 412.32 160.71 408.01 160.64 409.01 164.83"/>
      <polygon class="cls-1" points="388.87 164.83 385.61 162.01 383.68 165.87 383 161.61 379.04 163.32 381.25 159.62 377.12 158.39 381.19 156.98 378.82 153.38 382.85 154.92 383.35 150.64 385.44 154.4 388.58 151.44 387.76 155.67 392.06 155.42 388.72 158.14 392.18 160.71 387.87 160.64 388.87 164.83"/>
      <polygon class="cls-1" points="409.01 146.1 405.75 143.28 403.82 147.13 403.13 142.88 399.18 144.59 401.39 140.89 397.26 139.66 401.33 138.25 398.96 134.65 402.99 136.18 403.48 131.9 405.58 135.67 408.71 132.71 407.9 136.94 412.2 136.69 408.86 139.41 412.32 141.98 408.01 141.91 409.01 146.1"/>
      <polygon class="cls-1" points="388.87 146.1 385.61 143.28 383.68 147.13 383 142.88 379.04 144.59 381.25 140.89 377.12 139.66 381.19 138.25 378.82 134.65 382.85 136.18 383.35 131.9 385.44 135.67 388.58 132.71 387.76 136.94 392.06 136.69 388.72 139.41 392.18 141.98 387.87 141.91 388.87 146.1"/>
      <polygon class="cls-1" points="370.51 146.12 367.25 143.31 365.32 147.16 364.64 142.9 360.68 144.61 362.89 140.91 358.76 139.68 362.83 138.27 360.46 134.67 364.49 136.21 364.99 131.93 367.08 135.69 370.22 132.73 369.4 136.96 373.7 136.71 370.36 139.43 373.82 142 369.51 141.93 370.51 146.12"/>
      <polygon class="cls-1" points="409.01 127.37 405.75 124.55 403.82 128.4 403.13 124.15 399.18 125.86 401.39 122.16 397.26 120.93 401.33 119.52 398.96 115.92 402.99 117.45 403.48 113.17 405.58 116.94 408.71 113.98 407.9 118.21 412.2 117.96 408.86 120.68 412.32 123.25 408.01 123.18 409.01 127.37"/>
      <polygon class="cls-1" points="370.51 164.83 367.25 162.01 365.32 165.87 364.64 161.61 360.68 163.32 362.89 159.62 358.76 158.39 362.83 156.98 360.46 153.38 364.49 154.92 364.99 150.64 367.08 154.4 370.22 151.44 369.4 155.67 373.7 155.42 370.36 158.14 373.82 160.71 369.51 160.64 370.51 164.83"/>
      <polygon class="cls-1" points="368.73 183.56 365.47 180.75 363.54 184.6 362.86 180.34 358.9 182.05 361.11 178.35 356.99 177.12 361.06 175.71 358.69 172.11 362.71 173.65 363.21 169.37 365.31 173.13 368.44 170.17 367.62 174.4 371.93 174.15 368.58 176.87 372.04 179.44 367.73 179.37 368.73 183.56"/>
    </g>
  </g>
  <g>
    <polygon class="cls-1" points="9.3 375.83 6.64 372.44 4.01 375.85 4.15 371.55 -.06 372.47 2.82 369.26 -1 367.26 3.26 366.65 1.63 362.67 5.28 364.95 6.59 360.84 7.93 364.93 11.57 362.63 9.96 366.63 14.23 367.2 10.43 369.23 13.34 372.41 9.12 371.53 9.3 375.83"/>
    <text class="cls-3" transform="translate(31.11 373.64)"><tspan class="cls-6" x="0" y="0">r</tspan><tspan x="3.3" y="0">ep</tspan><tspan class="cls-6" x="14.55" y="0">r</tspan><tspan class="cls-11" x="17.85" y="0"></tspan><tspan x="23.38" y="0">sen</tspan><tspan class="cls-6" x="39.61" y="0">t</tspan><tspan class="cls-7" x="42.53" y="0">e</tspan><tspan class="cls-4" x="48.02" y="0" xml:space="preserve"> un</tspan><tspan class="cls-9" x="60.43" y="0">e </tspan><tspan x="67.4" y="0">cen</tspan><tspan class="cls-5" x="83.81" y="0">t</tspan><tspan x="86.73" y="0">ain</tspan><tspan class="cls-9" x="99.55" y="0">e </tspan><tspan class="cls-8" x="106.51" y="0">d</tspan><tspan class="cls-9" x="112.16" y="0">e</tspan><tspan class="cls-4" x="117.66" y="0" xml:space="preserve"> signalemen</tspan><tspan class="cls-7" x="169.88" y="0">t</tspan><tspan x="172.99" y="0">s</tspan></text>
  </g>
</svg>