<?xml version="1.0" encoding="UTF-8"?>
<svg id="Calque_1" data-name="Calque 1" xmlns="http://www.w3.org/2000/svg" xmlns:xlink="http://www.w3.org/1999/xlink" viewBox="0 0 1260.08 492">
  <defs>
    <style>
      .cls-1 {
        fill: none;
      }

      .cls-2 {
        clip-path: url(#clippath);
      }

      .cls-3 {
        fill: lime;
      }

      .cls-4 {
        fill: #ff0;
      }

      .cls-5 {
        fill: #ff007f;
      }
    </style>
    <clipPath id="clippath">
      <rect class="cls-1" width="486" height="492"/>
    </clipPath>
  </defs>
  <path class="cls-3" d="M1013.86,365.26l36.54-63.64-28.19-57.9,57.51,13.73,23.35-78.05,35.41,92.32,121.6-68.74-59.83,129.49,44.8,80.02-98.93-41.48-91.36,35.41,27.75-56.84-68.65,15.67Z"/>
  <g class="cls-2">
    <path class="cls-4" d="M379.1,458.7l-105.17-91.13-62.35,124.42-22.05-137.39-127.61,55.2,71.34-119.45L0,250.53l131.41-45.65L54.87,88.67l129.96,49.61L200.91,0l67.66,121.57L369.66,26.04l-26.24,136.66,138.83-8.16-107.85,87.83,111.59,83.03-139.06-2.12,32.15,135.43Z"/>
  </g>
  <path d="M106.23,204.03c.64,0,1.02,.38,1.02,1.02v17.92c0,.64-.38,1.02-1.02,1.02H46.71c-.64,0-1.02-.26-1.02-1.02l.38-41.47-.38-46.08c0-.77,.38-1.02,1.02-1.02h26.37c.64,0,1.02,.26,1.02,1.02l-.26,44.29,.26,24.32h32.13Zm37.27,4.35c4.1,0,6.91-1.79,8.32-5.76,.13-.64,.64-.9,1.15-.9h23.55c.64,0,1.15,.38,.9,1.15-2.18,10.88-13.44,23.04-33.66,23.04-22.02,0-36.22-13.82-36.22-34.69s14.59-35.07,35.07-35.07c23.17,0,35.71,13.06,36.1,39.55,0,.64-.38,1.02-1.02,1.02h-43.52c.9,9.6,4.35,11.65,9.34,11.65Zm0-35.46c-4.22,0-7.55,1.79-8.96,9.47h16.9c0-5.63-2.94-9.47-7.94-9.47Z"/>
  <path d="M92.54,363.3c-29.06,0-48.13-19.97-48.13-46.59,0-28.54,19.07-47.62,47.87-47.62,23.17,0,38.66,11.14,43.26,33.79,.13,.77-.26,1.15-.9,1.15h-25.6c-.51,0-.9-.26-1.02-.9-2.05-8.96-7.17-13.31-16.13-13.31-11.65,0-18.05,9.34-18.05,25.98s6.4,26.75,18.69,26.75c8.58,0,13.95-4.22,15.62-12.93,.13-.64,.38-.9,1.02-.9h26.11c.64,0,1.02,.38,.9,1.15-4.74,22.4-20.35,33.41-43.65,33.41Zm67.07,19.46c-.64,0-1.15-.51-.9-1.15l5.5-17.28-27.39-68.1c-.26-.64,0-1.15,.77-1.15h28.03c.51,0,1.02,.38,1.15,.9l10.75,33.54,8.96-33.54c.13-.51,.64-.9,1.15-.9h24.7c.64,0,1.15,.51,.9,1.15l-29.06,85.63c-.13,.51-.64,.9-1.15,.9h-23.42Zm99-88.96c18.56,0,28.8,14.85,28.8,34.05s-12.03,34.43-30.46,34.43c-7.3,0-13.06-2.43-17.28-7.04l.38,4.74c0,.64-.26,1.02-.9,1.02h-24.96c-.64,0-1.02-.26-1.02-1.02l.26-40.32-.26-47.23c0-.77,.38-1.02,1.02-1.02h24.96c.64,0,1.02,.26,1.02,1.02l-.26,28.93c4.61-4.86,10.75-7.55,18.69-7.55Zm-9.22,51.33c6.78,0,10.62-4.74,10.62-16.9s-3.97-17.15-10.37-17.15-10.24,5.12-10.37,17.15c-.13,12.16,3.33,16.9,10.11,16.9Zm76.6,.26c4.1,0,6.91-1.79,8.32-5.76,.13-.64,.64-.9,1.15-.9h23.55c.64,0,1.15,.38,.9,1.15-2.18,10.88-13.44,23.04-33.66,23.04-22.02,0-36.22-13.82-36.22-34.69s14.59-35.07,35.07-35.07c23.17,0,35.71,13.06,36.1,39.55,0,.64-.38,1.02-1.02,1.02h-43.52c.9,9.6,4.35,11.65,9.34,11.65Zm0-35.46c-4.22,0-7.55,1.79-8.96,9.47h16.9c0-5.63-2.94-9.47-7.94-9.47Zm64.92,28.16l-.13,21.89c0,.77-.38,1.02-1.02,1.02h-24.45c-.64,0-1.02-.26-1.02-1.02l.51-31.36-.51-32.51c0-.77,.38-1.02,1.02-1.02h24.45c.64,0,1.02,.26,1.02,1.02l-.51,9.09c5.25-7.04,12.42-10.5,20.86-10.5,.64,0,1.54,.13,2.3,.26,.64,.13,.9,.38,.9,1.02v17.54c0,.64-.38,1.15-1.02,1.02h-1.02c-13.82,0-22.27,8.19-21.38,23.55Zm96.27-4.99l.38,26.88c0,.77-.38,1.02-1.02,1.02h-25.09c-.64,0-1.02-.26-1.02-1.02l.38-26.88v-11.9c0-6.14-1.92-8.32-6.14-8.32-4.99,0-10.11,5.38-10.5,19.33l.38,27.78c0,.77-.38,1.02-1.02,1.02h-25.47c-.64,0-1.02-.26-1.02-1.02l.26-32.26,.13-55.3c0-.77,.38-1.02,1.02-1.02h23.68c.64,0,1.02,.26,1.02,1.02l-.38,30.34c3.71-5.63,10.75-9.22,20.48-9.22,15.62,0,23.94,9.98,23.94,25.22v14.34Zm51.08-32.26l-.38-4.74c0-.64,.26-1.02,.9-1.02h24.96c.64,0,1.02,.26,1.02,1.02l-.26,32.51,.26,31.36c0,.77-.38,1.02-1.02,1.02h-24.06c-.64,0-1.02-.26-1.02-1.02l.13-6.14c-4.48,5.38-11.01,8.45-19.46,8.45-18.56,0-28.8-14.85-28.8-34.05s12.03-34.43,30.46-34.43c7.17,0,13.06,2.43,17.28,7.04Zm.38,27.26c.13-12.16-3.33-16.9-10.11-16.9s-10.62,4.74-10.62,16.9,3.97,17.15,10.37,17.15,10.24-5.12,10.37-17.15Zm56.89,9.98l-.13,21.89c0,.77-.38,1.02-1.02,1.02h-24.45c-.64,0-1.02-.26-1.02-1.02l.51-31.36-.51-32.51c0-.77,.38-1.02,1.02-1.02h24.45c.64,0,1.02,.26,1.02,1.02l-.51,9.09c5.25-7.04,12.42-10.5,20.86-10.5,.64,0,1.54,.13,2.3,.26,.64,.13,.9,.38,.9,1.02v17.54c0,.64-.38,1.15-1.02,1.02h-1.02c-13.82,0-22.27,8.19-21.38,23.55Zm58.31,24.83c-21.38,0-35.46-13.44-35.46-34.69s14.08-35.07,35.33-35.07c19.46,0,31.49,10.37,32.9,25.86,.13,.64-.26,1.02-.9,1.02h-22.78c-.64,0-1.02-.38-1.15-1.02-.9-6.02-3.46-8.06-7.3-8.06-5.63,0-8.58,4.22-8.58,17.02s2.94,17.28,8.45,17.28c3.97,0,7.3-2.3,7.81-8.32,.13-.64,.51-1.02,1.15-1.02h23.3c.64,0,1.02,.26,.9,.9-1.28,15.1-15.1,26.11-33.66,26.11Zm53.71-96.77c.13-.64,.64-.9,1.28-.64l34.05,12.93c.51,.26,.77,.64,.64,1.28l-3.33,11.26c-.13,.64-.51,.9-1.15,.77l-35.97-6.78c-.64-.13-.9-.64-.77-1.28l5.25-17.54Zm18.05,79.23c4.1,0,6.91-1.79,8.32-5.76,.13-.64,.64-.9,1.15-.9h23.55c.64,0,1.15,.38,.9,1.15-2.18,10.88-13.44,23.04-33.66,23.04-22.02,0-36.22-13.82-36.22-34.69s14.59-35.07,35.07-35.07c23.17,0,35.71,13.06,36.1,39.55,0,.64-.38,1.02-1.02,1.02h-43.52c.9,9.6,4.35,11.65,9.34,11.65Zm0-35.46c-4.22,0-7.55,1.79-8.96,9.47h16.9c0-5.63-2.94-9.47-7.94-9.47Zm64.41,6.91l.51,43.14c0,.77-.38,1.02-1.02,1.02h-24.32c-.64,0-1.02-.26-1.02-1.02l.51-43.26-.51-44.29c0-.77,.38-1.02,1.02-1.02h24.32c.64,0,1.02,.26,1.02,1.02l-.51,44.42Zm40.09,28.54c4.1,0,6.91-1.79,8.32-5.76,.13-.64,.64-.9,1.15-.9h23.55c.64,0,1.15,.38,.9,1.15-2.18,10.88-13.44,23.04-33.66,23.04-22.02,0-36.22-13.82-36.22-34.69s14.59-35.07,35.07-35.07c23.17,0,35.71,13.06,36.1,39.55,0,.64-.38,1.02-1.02,1.02h-43.52c.9,9.6,4.35,11.65,9.34,11.65Zm0-35.46c-4.22,0-7.55,1.79-8.96,9.47h16.9c0-5.63-2.94-9.47-7.94-9.47Zm142.75,23.17l.38,26.88c0,.77-.38,1.02-1.02,1.02h-25.22c-.64,0-1.02-.26-1.02-1.02l.38-26.88v-12.16c0-5.63-1.66-8.06-4.22-8.06-4.61,0-7.55,5.76-8.06,17.02v3.2l.38,26.88c0,.77-.38,1.02-1.02,1.02h-25.22c-.64,0-1.02-.26-1.02-1.02l.38-26.88v-12.16c0-5.63-1.66-8.06-4.22-8.06-4.99,0-7.94,6.66-8.06,20.35l.38,26.75c0,.77-.38,1.02-1.02,1.02h-25.22c-.64,0-1.02-.26-1.02-1.02l.26-32.26v-31.62c0-.64,.38-1.02,1.02-1.02h23.81c.64,0,1.02,.26,1.02,1.02l-.38,6.66c4.35-6.91,12.29-9.22,19.97-9.22,8.32,0,14.08,2.94,17.28,8.58,3.71-6.02,10.75-8.58,18.82-8.58,14.85,0,22.66,10.24,22.66,24.32v15.23Zm39.25,12.29c4.1,0,6.92-1.79,8.32-5.76,.13-.64,.64-.9,1.16-.9h23.55c.64,0,1.15,.38,.89,1.15-2.17,10.88-13.44,23.04-33.66,23.04-22.02,0-36.22-13.82-36.22-34.69s14.59-35.07,35.07-35.07c23.17,0,35.71,13.06,36.09,39.55,0,.64-.38,1.02-1.02,1.02h-43.52c.9,9.6,4.35,11.65,9.34,11.65Zm0-35.46c-4.22,0-7.55,1.79-8.96,9.47h16.9c0-5.63-2.94-9.47-7.94-9.47Zm108.45,23.17l.38,26.88c0,.77-.38,1.02-1.02,1.02h-25.35c-.64,0-1.02-.26-1.02-1.02l.38-26.88v-12.16c0-5.63-2.43-8.06-6.14-8.06-6.66,0-10.37,7.94-10.5,20.48l.39,26.62c0,.77-.39,1.02-1.03,1.02h-25.21c-.64,0-1.03-.26-1.03-1.02l.26-32.26,.13-31.62c0-.77,.38-1.02,1.02-1.02h23.68c.64,0,1.03,.26,1.03,1.02l-.39,6.66c4.48-6.91,12.55-9.22,20.48-9.22,15.62,0,23.94,10.24,23.94,24.32v15.23Zm36.26-54.53c.64,0,1.03,.26,1.03,1.02l-.13,15.49h14.46c.64,0,1.03,.38,1.03,1.02v16.51c0,.64-.39,1.02-1.03,1.02h-14.33l.12,23.17c0,5.89,2.95,6.91,5.76,6.91,3.72,0,6.02-.77,8.07-1.41,.77-.13,1.15,.26,1.15,.9v14.98c0,.51-.26,1.02-.77,1.15-4.86,1.92-9.98,3.2-15.23,3.2-14.08,0-25.86-6.91-25.86-23.94l.13-24.96h-7.55c-.64,0-1.02-.38-1.02-1.02v-16.51c0-.64,.38-1.02,1.02-1.02h7.68l-.13-15.49c0-.77,.39-1.02,1.03-1.02h24.57Z"/>
  <path d="M534.32,190h-8.14c-.11,0-.22-.11-.22-.22l.07-12.71-.07-12.06c0-.11,.11-.22,.22-.22h8.06c7.24,0,12.74,4.36,12.74,12.6s-5.94,12.6-12.67,12.6Zm-5-13c0,2.34,.07,10.26,.07,10.3h5.22c4.43,0,8.93-2.92,8.93-9.9s-4.1-9.9-9.07-9.9h-5.08s-.07,7.24-.07,9.5Zm32.58,6.55h2.74c.11,0,.22,.11,.18,.22-.54,3.85-3.31,6.66-8.14,6.66-5.76,0-8.86-4-8.86-9.65s3.31-9.76,8.68-9.76,8.57,3.74,8.64,9.94c0,.11-.11,.22-.22,.22h-13.82c.11,4.46,1.98,6.84,5.62,6.84,2.74,0,4.43-1.48,4.93-4.25,.04-.11,.14-.22,.25-.22Zm-.29-4.68c-.11-2.95-1.8-5.47-5.08-5.47-3.06,0-4.86,1.98-5.33,5.47h10.4Zm19.99,5.8c0,3.64-3.35,5.72-7.85,5.72-5.08,0-8.1-2.2-8.21-6.59,0-.11,.11-.22,.22-.22h2.74c.11,0,.22,.11,.22,.22,.07,2.99,1.87,4.32,5.22,4.32,2.74,0,4.54-1.15,4.54-3.2,0-4.86-12.49-.94-12.49-8.42,0-3.56,2.92-5.44,7.31-5.44s7.52,1.84,7.74,5.76c0,.11-.11,.22-.22,.22h-2.63c-.11,0-.22-.11-.22-.22-.22-2.41-2.02-3.53-4.72-3.53-2.52,0-4.14,.94-4.14,2.99,0,4.61,12.49,.61,12.49,8.39Zm10.01-15.19h-2.92c-.11,0-.22-.11-.22-.22v-3.13c0-.11,.11-.22,.22-.22h2.92c.11,0,.22,.11,.22,.22v3.13c0,.11-.11,.22-.22,.22Zm0,26.64h-2.92c-.11,0-.22-.11-.22-.22l.07-11.88-.07-12.35c0-.11,.11-.22,.22-.22h2.92c.11,0,.22,.11,.22,.22l-.07,12.35,.07,11.88c0,.11-.11,.22-.22,.22Zm15.57-12.56h2.74c.11,0,.22,.11,.18,.22-.54,3.85-3.31,6.66-8.14,6.66-5.76,0-8.86-4-8.86-9.65s3.31-9.76,8.68-9.76,8.57,3.74,8.64,9.94c0,.11-.11,.22-.22,.22h-13.82c.11,4.46,1.98,6.84,5.62,6.84,2.74,0,4.43-1.48,4.93-4.25,.04-.11,.14-.22,.25-.22Zm-.29-4.68c-.11-2.95-1.8-5.47-5.08-5.47-3.06,0-4.86,1.98-5.33,5.47h10.4Zm16.92,7.96c-1.12,1.91-3.2,3.6-6.16,3.6-3.82,0-6.23-2.52-6.23-7.38v-3.67l-.07-7.7c0-.11,.11-.22,.22-.22h2.92c.11,0,.22,.11,.22,.22l-.07,7.7v3.56c0,3.35,1.58,4.86,3.92,4.86s4.39-1.94,5.11-5.62v-2.81l-.07-7.7c0-.11,.11-.22,.22-.22h2.95c.11,0,.22,.11,.22,.22l-.07,8.24,.04,9.86c0,.11-.11,.22-.22,.22h-2.77c-.11,0-.22-.11-.22-.22l.07-2.95Zm7.98,3.17h-2.95c-.11,0-.22-.11-.22-.22l.07-8.24-.04-9.86c0-.11,.11-.22,.22-.22h2.77c.11,0,.22,.11,.22,.22l-.07,2.92c1.12-1.87,3.2-3.56,6.16-3.56,3.82,0,6.23,2.52,6.23,7.34v3.71l.07,7.7c0,.11-.11,.22-.22,.22h-2.92c-.11,0-.22-.11-.22-.22l.07-7.7v-3.56c0-3.35-1.58-4.86-3.92-4.86s-4.39,1.94-5.11,5.62v2.81l.07,7.7c0,.11-.11,.22-.22,.22Zm27.45-6.44h2.74c.11,0,.22,.11,.18,.22-.54,3.85-3.31,6.66-8.14,6.66-5.76,0-8.86-4-8.86-9.65s3.31-9.76,8.68-9.76,8.57,3.74,8.64,9.94c0,.11-.11,.22-.22,.22h-13.82c.11,4.46,1.98,6.84,5.62,6.84,2.74,0,4.43-1.48,4.93-4.25,.04-.11,.14-.22,.25-.22Zm-.29-4.68c-.11-2.95-1.8-5.47-5.08-5.47-3.06,0-4.86,1.98-5.33,5.47h10.4Zm19.99,5.8c0,3.64-3.35,5.72-7.85,5.72-5.08,0-8.1-2.2-8.21-6.59,0-.11,.11-.22,.22-.22h2.74c.11,0,.22,.11,.22,.22,.07,2.99,1.87,4.32,5.22,4.32,2.74,0,4.54-1.15,4.54-3.2,0-4.86-12.49-.94-12.49-8.42,0-3.56,2.92-5.44,7.31-5.44s7.52,1.84,7.74,5.76c0,.11-.11,.22-.22,.22h-2.63c-.11,0-.22-.11-.22-.22-.22-2.41-2.02-3.53-4.72-3.53-2.52,0-4.14,.94-4.14,2.99,0,4.61,12.49,.61,12.49,8.39Zm9.26-4.14c0,4.43,1.66,7.42,5.15,7.42,3.2,0,5.15-2.38,5.18-7.06,.04-4.54-1.73-7.2-4.79-7.38h-.54c-3.42,.07-5,2.92-5,7.02Zm13.25,9.47h-2.84c-.11,0-.22-.11-.22-.22l.07-2.74c-1.26,2.09-3.28,3.31-5.94,3.31-5,0-7.67-4.21-7.67-9.58s2.84-9.68,7.74-9.68c2.63,0,4.61,1.12,5.83,3.2l-.07-2.63c0-.11,.11-.22,.22-.22h2.88c.11,0,.22,.11,.22,.22l-.07,8.89,.07,9.22c0,.11-.11,.22-.22,.22Zm4.68-9.47c0,4.46,1.66,7.45,5.15,7.45,3.2,0,5.15-2.38,5.18-7.09,.04-4.68-1.84-7.42-5.11-7.45-3.56-.04-5.22,2.92-5.22,7.09Zm13.25,9.47h-2.88c-.11,0-.22-.11-.22-.22l.07-2.7c-1.22,2.05-3.24,3.28-5.9,3.28-5,0-7.67-4.18-7.67-9.58s2.84-9.68,7.74-9.68c2.56,0,4.54,1.08,5.8,3.1l-.04-9.18c0-.11,.11-.22,.22-.22h2.88c.11,0,.22,.11,.22,.22l-.07,11.02,.07,13.75c0,.11-.11,.22-.22,.22Zm14.15-3.17c-1.12,1.91-3.2,3.6-6.16,3.6-3.82,0-6.23-2.52-6.23-7.38v-3.67l-.07-7.7c0-.11,.11-.22,.22-.22h2.92c.11,0,.22,.11,.22,.22l-.07,7.7v3.56c0,3.35,1.58,4.86,3.92,4.86s4.39-1.94,5.11-5.62v-2.81l-.07-7.7c0-.11,.11-.22,.22-.22h2.95c.11,0,.22,.11,.22,.22l-.07,8.24,.04,9.86c0,.11-.11,.22-.22,.22h-2.77c-.11,0-.22-.11-.22-.22l.07-2.95Zm8.05,3.17h-2.84c-.11,0-.22-.11-.22-.22l.11-12.53-.11-12.24c0-.11,.11-.22,.22-.22h2.84c.11,0,.22,.11,.22,.22l-.11,12.2,.11,12.56c0,.11-.11,.22-.22,.22Zm11.54-2.38v1.94c0,.11-.11,.25-.22,.29-.76,.22-1.69,.47-2.59,.47-2.7,0-5-1.4-5-5.44l.04-10.91h-2.2c-.11,0-.22-.11-.22-.22v-2.09c0-.11,.11-.22,.22-.22h2.2l-.04-4.43c0-.11,.11-.22,.22-.22h2.84c.11,0,.22,.11,.22,.22l-.04,4.43h4.39c.11,0,.22,.11,.22,.22v2.09c0,.11-.11,.22-.22,.22h-4.39l.04,10.84c0,2.23,.76,2.92,2.3,2.92,.76,0,1.51-.11,2.02-.25,.11-.04,.22,.04,.22,.14Zm13.67-4.07h2.74c.11,0,.22,.11,.18,.22-.54,3.85-3.31,6.66-8.14,6.66-5.76,0-8.86-4-8.86-9.65s3.31-9.76,8.68-9.76,8.57,3.74,8.64,9.94c0,.11-.11,.22-.22,.22h-13.82c.11,4.46,1.98,6.84,5.62,6.84,2.74,0,4.43-1.48,4.93-4.25,.04-.11,.14-.22,.25-.22Zm-.29-4.68c-.11-2.95-1.8-5.47-5.08-5.47-3.06,0-4.86,1.98-5.33,5.47h10.4Zm19.99,5.8c0,3.64-3.35,5.72-7.85,5.72-5.08,0-8.1-2.2-8.21-6.59,0-.11,.11-.22,.22-.22h2.74c.11,0,.22,.11,.22,.22,.07,2.99,1.87,4.32,5.22,4.32,2.74,0,4.54-1.15,4.54-3.2,0-4.86-12.49-.94-12.49-8.42,0-3.56,2.92-5.44,7.31-5.44s7.52,1.84,7.74,5.76c0,.11-.11,.22-.22,.22h-2.63c-.11,0-.22-.11-.22-.22-.22-2.41-2.02-3.53-4.72-3.53-2.52,0-4.14,.94-4.14,2.99,0,4.61,12.49,.61,12.49,8.39Zm9.9,5.33h-2.95c-.11,0-.22-.11-.22-.22l.07-8.24-.04-9.86c0-.11,.11-.22,.22-.22h2.77c.11,0,.22,.11,.22,.22l-.07,2.92c1.12-1.87,3.2-3.56,6.16-3.56,3.82,0,6.23,2.52,6.23,7.34v3.71l.07,7.7c0,.11-.11,.22-.22,.22h-2.92c-.11,0-.22-.11-.22-.22l.07-7.7v-3.56c0-3.35-1.58-4.86-3.92-4.86s-4.39,1.94-5.11,5.62v2.81l.07,7.7c0,.11-.11,.22-.22,.22Zm27.45-6.44h2.74c.11,0,.22,.11,.18,.22-.54,3.85-3.31,6.66-8.14,6.66-5.76,0-8.86-4-8.86-9.65s3.31-9.76,8.68-9.76,8.57,3.74,8.64,9.94c0,.11-.11,.22-.22,.22h-13.82c.11,4.46,1.98,6.84,5.62,6.84,2.74,0,4.43-1.48,4.93-4.25,.04-.11,.14-.22,.25-.22Zm-.29-4.68c-.11-2.95-1.8-5.47-5.08-5.47-3.06,0-4.86,1.98-5.33,5.47h10.4Zm25.98,4.36c-.36,4.18-3.31,7.2-8.14,7.2-5.54,0-8.68-3.82-8.68-9.65s3.13-9.76,8.75-9.76c4.64,0,7.45,2.66,7.85,6.62,0,.11-.11,.22-.22,.22h-2.63c-.11,0-.22-.11-.25-.22-.43-2.66-2.12-4.18-4.75-4.18-3.67,0-5.4,2.66-5.4,7.27s1.73,7.24,5.4,7.27c2.92,0,4.72-1.8,4.97-4.79,0-.11,.11-.22,.22-.22h2.66c.11,0,.22,.11,.22,.22Zm18.02-2.52c0,5.83-3.13,9.72-8.78,9.72s-8.78-3.82-8.78-9.65,3.17-9.76,8.78-9.76,8.78,3.85,8.78,9.68Zm-14.26,.07c0,4.64,1.84,7.24,5.47,7.24s5.44-2.59,5.44-7.24-1.8-7.34-5.44-7.34c-3.67,.04-5.47,2.7-5.47,7.34Zm18.54,9.22h-2.95c-.11,0-.22-.11-.22-.22l.07-8.24-.04-9.86c0-.11,.11-.22,.22-.22h2.77c.11,0,.22,.11,.22,.22l-.07,2.92c1.12-1.87,3.2-3.56,6.16-3.56,3.82,0,6.23,2.52,6.23,7.34v3.71l.07,7.7c0,.11-.11,.22-.22,.22h-2.92c-.11,0-.22-.11-.22-.22l.07-7.7v-3.56c0-3.35-1.58-4.86-3.92-4.86s-4.39,1.94-5.11,5.62v2.81l.07,7.7c0,.11-.11,.22-.22,.22Zm29.43-5.33c0,3.64-3.35,5.72-7.85,5.72-5.08,0-8.1-2.2-8.21-6.59,0-.11,.11-.22,.22-.22h2.74c.11,0,.22,.11,.22,.22,.07,2.99,1.87,4.32,5.22,4.32,2.74,0,4.54-1.15,4.54-3.2,0-4.86-12.49-.94-12.49-8.42,0-3.56,2.92-5.44,7.31-5.44s7.52,1.84,7.74,5.76c0,.11-.11,.22-.22,.22h-2.63c-.11,0-.22-.11-.22-.22-.22-2.41-2.02-3.53-4.72-3.53-2.52,0-4.14,.94-4.14,2.99,0,4.61,12.49,.61,12.49,8.39Zm4.39-15.19h-2.92c-.11,0-.22-.11-.22-.22v-3.13c0-.11,.11-.22,.22-.22h2.92c.11,0,.22,.11,.22,.22v3.13c0,.11-.11,.22-.22,.22Zm0,20.52h-2.92c-.11,0-.22-.11-.22-.22l.07-9.32-.07-8.78c0-.11,.11-.22,.22-.22h2.92c.11,0,.22,.11,.22,.22l-.07,8.75,.07,9.36c0,.11-.11,.22-.22,.22Zm4.84-9.47c0,4.46,1.66,7.45,5.15,7.45,3.2,0,5.15-2.38,5.18-7.09,.04-4.68-1.84-7.42-5.11-7.45-3.56-.04-5.22,2.92-5.22,7.09Zm13.25,9.47h-2.88c-.11,0-.22-.11-.22-.22l.07-2.7c-1.22,2.05-3.24,3.28-5.9,3.28-5,0-7.67-4.18-7.67-9.58s2.84-9.68,7.74-9.68c2.56,0,4.54,1.08,5.8,3.1l-.04-9.18c0-.11,.11-.22,.22-.22h2.88c.11,0,.22,.11,.22,.22l-.07,11.02,.07,13.75c0,.11-.11,.22-.22,.22Zm14.15-21.38l-.58,1.3c-.04,.11-.18,.18-.29,.14l-8.14-2.88c-.11-.04-.18-.18-.14-.29l.79-2.2c.04-.11,.18-.18,.25-.11l7.99,3.71c.07,.07,.14,.22,.11,.32Zm1.26,14.94h2.74c.11,0,.22,.11,.18,.22-.54,3.85-3.31,6.66-8.14,6.66-5.76,0-8.86-4-8.86-9.65s3.31-9.76,8.68-9.76,8.57,3.74,8.64,9.94c0,.11-.11,.22-.22,.22h-13.82c.11,4.46,1.98,6.84,5.62,6.84,2.74,0,4.43-1.48,4.93-4.25,.04-.11,.14-.22,.25-.22Zm-.29-4.68c-.11-2.95-1.8-5.47-5.08-5.47-3.06,0-4.86,1.98-5.33,5.47h10.4Zm7.71,11.12h-2.84c-.11,0-.22-.11-.22-.22l.11-9.25-.11-8.86c0-.11,.11-.22,.22-.22h2.84c.11,0,.22,.11,.22,.22l-.11,3.17c1.3-2.3,3.71-3.56,6.3-3.56,.4,0,.83,.04,1.15,.11,.11,.04,.22,.18,.22,.29v2.23c0,.11-.11,.18-.22,.14-.29-.04-.68-.07-1.08-.07-3.2,0-6.01,1.98-6.3,6.16l.04,9.65c0,.11-.11,.22-.22,.22Zm20.71-6.44h2.74c.11,0,.22,.11,.18,.22-.54,3.85-3.31,6.66-8.14,6.66-5.76,0-8.86-4-8.86-9.65s3.31-9.76,8.68-9.76,8.57,3.74,8.64,9.94c0,.11-.11,.22-.22,.22h-13.82c.11,4.46,1.98,6.84,5.62,6.84,2.74,0,4.43-1.48,4.93-4.25,.04-.11,.14-.22,.25-.22Zm-.29-4.68c-.11-2.95-1.8-5.47-5.08-5.47-3.06,0-4.86,1.98-5.33,5.47h10.4Zm7.81,11.12h-2.95c-.11,0-.22-.11-.22-.22l.07-8.24-.04-9.86c0-.11,.11-.22,.22-.22h2.77c.11,0,.22,.11,.22,.22l-.07,2.92c1.12-1.87,3.2-3.56,6.16-3.56,3.82,0,6.23,2.52,6.23,7.34v3.71l.07,7.7c0,.11-.11,.22-.22,.22h-2.92c-.11,0-.22-.11-.22-.22l.07-7.7v-3.56c0-3.35-1.58-4.86-3.92-4.86s-4.39,1.94-5.11,5.62v2.81l.07,7.7c0,.11-.11,.22-.22,.22Zm23.1-2.38v1.94c0,.11-.11,.25-.22,.29-.76,.22-1.69,.47-2.59,.47-2.7,0-5-1.4-5-5.44l.04-10.91h-2.2c-.11,0-.22-.11-.22-.22v-2.09c0-.11,.11-.22,.22-.22h2.2l-.04-4.43c0-.11,.11-.22,.22-.22h2.84c.11,0,.22,.11,.22,.22l-.04,4.43h4.39c.11,0,.22,.11,.22,.22v2.09c0,.11-.11,.22-.22,.22h-4.39l.04,10.84c0,2.23,.76,2.92,2.3,2.92,.76,0,1.51-.11,2.02-.25,.11-.04,.22,.04,.22,.14Zm9.73-7.06c-.04,4.68,1.83,7.38,5.11,7.38,3.56,0,5.22-2.88,5.22-7.02,0-4.43-1.66-7.42-5.15-7.42-3.2,0-5.15,2.41-5.18,7.06Zm13.68,.11c0,5.36-2.85,9.68-7.74,9.68-2.56,0-4.54-1.08-5.8-3.1l.07,8.64c0,.11-.1,.22-.21,.22h-2.92c-.11,0-.21-.11-.21-.22l.07-13.97-.07-10.26c0-.11,.1-.22,.21-.22h2.88c.11,0,.22,.11,.22,.22l-.07,2.74c1.26-2.05,3.27-3.31,5.9-3.31,5,0,7.67,4.18,7.67,9.58Zm3.92-.14c0,4.43,1.66,7.42,5.15,7.42,3.21,0,5.15-2.38,5.19-7.06,.03-4.54-1.73-7.2-4.79-7.38h-.54c-3.42,.07-5.01,2.92-5.01,7.02Zm13.25,9.47h-2.84c-.11,0-.22-.11-.22-.22l.07-2.74c-1.26,2.09-3.27,3.31-5.94,3.31-5,0-7.66-4.21-7.66-9.58s2.84-9.68,7.74-9.68c2.62,0,4.6,1.12,5.83,3.2l-.07-2.63c0-.11,.1-.22,.21-.22h2.88c.11,0,.22,.11,.22,.22l-.07,8.89,.07,9.22c0,.11-.11,.22-.22,.22Zm17.39-5.33c0,3.64-3.35,5.72-7.85,5.72-5.07,0-8.1-2.2-8.21-6.59,0-.11,.11-.22,.22-.22h2.74c.1,0,.21,.11,.21,.22,.07,2.99,1.87,4.32,5.22,4.32,2.74,0,4.54-1.15,4.54-3.2,0-4.86-12.49-.94-12.49-8.42,0-3.56,2.91-5.44,7.3-5.44s7.53,1.84,7.74,5.76c0,.11-.1,.22-.21,.22h-2.63c-.11,0-.22-.11-.22-.22-.21-2.41-2.01-3.53-4.71-3.53-2.52,0-4.14,.94-4.14,2.99,0,4.61,12.49,.61,12.49,8.39Zm9.98,5.33h-2.85c-.1,0-.21-.11-.21-.22l.11-12.53-.11-12.24c0-.11,.11-.22,.21-.22h2.85c.11,0,.21,.11,.21,.22l-.1,12.2,.1,12.56c0,.11-.1,.22-.21,.22Zm15.6-6.44h2.74c.11,0,.22,.11,.18,.22-.54,3.85-3.31,6.66-8.14,6.66-5.76,0-8.85-4-8.85-9.65s3.31-9.76,8.67-9.76,8.57,3.74,8.64,9.94c0,.11-.1,.22-.21,.22h-13.83c.11,4.46,1.98,6.84,5.62,6.84,2.74,0,4.43-1.48,4.93-4.25,.04-.11,.15-.22,.25-.22Zm-.28-4.68c-.11-2.95-1.8-5.47-5.08-5.47-3.06,0-4.86,1.98-5.33,5.47h10.41Zm-539.09,47.36c-.36,4.18-3.31,7.2-8.14,7.2-5.54,0-8.68-3.82-8.68-9.65s3.13-9.76,8.75-9.76c4.64,0,7.45,2.66,7.85,6.62,0,.11-.11,.22-.22,.22h-2.63c-.11,0-.22-.11-.25-.22-.43-2.66-2.12-4.18-4.75-4.18-3.67,0-5.4,2.66-5.4,7.27s1.73,7.24,5.4,7.27c2.92,0,4.72-1.8,4.97-4.79,0-.11,.11-.22,.22-.22h2.66c.11,0,.22,.11,.22,.22Zm16.12-11.56l-8.42,24.23c-.04,.14-.18,.22-.29,.22h-2.66c-.11,0-.18-.11-.14-.22l2.02-5.9-7.34-18.32c-.04-.11,.04-.22,.14-.22h3.28c.11,0,.25,.07,.29,.22l5.29,14.08,4.46-14.08c.04-.11,.18-.22,.29-.22h2.95c.11,0,.18,.11,.14,.22Zm17.29,9c0,5.36-2.84,9.68-7.74,9.68-2.63,0-4.61-1.12-5.83-3.17l.07,2.59c0,.11-.11,.22-.22,.22h-2.88c-.11,0-.22-.11-.22-.22l.07-13.61-.07-11.16c0-.11,.11-.22,.22-.22h2.88c.11,0,.22,.11,.22,.22l-.04,9.29c1.26-2.02,3.24-3.2,5.87-3.2,5,0,7.67,4.18,7.67,9.58Zm-13.68-.14c-.04,4.68,1.84,7.38,5.11,7.38,3.53,.04,5.22-2.88,5.22-7.02,0-4.39-1.66-7.38-5.15-7.34-3.2,0-5.18,2.34-5.18,6.98Zm28.33,3.02h2.74c.11,0,.22,.11,.18,.22-.54,3.85-3.31,6.66-8.14,6.66-5.76,0-8.86-4-8.86-9.65s3.31-9.76,8.68-9.76,8.57,3.74,8.64,9.94c0,.11-.11,.22-.22,.22h-13.82c.11,4.46,1.98,6.84,5.62,6.84,2.74,0,4.43-1.48,4.93-4.25,.04-.11,.14-.22,.25-.22Zm-.29-4.68c-.11-2.95-1.8-5.47-5.08-5.47-3.06,0-4.86,1.98-5.33,5.47h10.4Zm7.71,11.12h-2.84c-.11,0-.22-.11-.22-.22l.11-9.25-.11-8.86c0-.11,.11-.22,.22-.22h2.84c.11,0,.22,.11,.22,.22l-.11,3.17c1.3-2.3,3.71-3.56,6.3-3.56,.4,0,.83,.04,1.15,.11,.11,.04,.22,.18,.22,.29v2.23c0,.11-.11,.18-.22,.14-.29-.04-.68-.07-1.08-.07-3.2,0-6.01,1.98-6.3,6.16l.04,9.65c0,.11-.11,.22-.22,.22Zm13.07-9h-7.63c-.11,0-.22-.11-.22-.22v-2.12c0-.11,.11-.22,.22-.22h7.63c.11,0,.22,.11,.22,.22v2.12c0,.11-.11,.22-.22,.22Zm13.48-2.48c0-3.46-1.62-4.9-3.85-4.9-2.41,0-4.46,1.94-5.26,5.26l.11,10.91c0,.11-.11,.22-.22,.22h-2.84c-.11,0-.22-.11-.22-.22l.11-12.56-.11-12.2c0-.11,.11-.22,.22-.22h2.84c.11,0,.22,.11,.22,.22l-.07,9.43c1.15-1.91,3.13-3.42,6.01-3.42,3.92,0,6.34,2.41,6.3,7.74v3.74l.04,7.27c0,.11-.11,.22-.22,.22h-2.88c-.11,0-.22-.11-.22-.22l.04-7.24v-4.03Zm7.55,2.02c0,4.43,1.66,7.42,5.15,7.42,3.2,0,5.15-2.38,5.18-7.06,.04-4.54-1.73-7.2-4.79-7.38h-.54c-3.42,.07-5,2.92-5,7.02Zm13.25,9.47h-2.84c-.11,0-.22-.11-.22-.22l.07-2.74c-1.26,2.09-3.28,3.31-5.94,3.31-5,0-7.67-4.21-7.67-9.58s2.84-9.68,7.74-9.68c2.63,0,4.61,1.12,5.83,3.2l-.07-2.63c0-.11,.11-.22,.22-.22h2.88c.11,0,.22,.11,.22,.22l-.07,8.89,.07,9.22c0,.11-.11,.22-.22,.22Zm4.93,0h-2.84c-.11,0-.22-.11-.22-.22l.11-9.25-.11-8.86c0-.11,.11-.22,.22-.22h2.84c.11,0,.22,.11,.22,.22l-.11,3.17c1.3-2.3,3.71-3.56,6.3-3.56,.4,0,.83,.04,1.15,.11,.11,.04,.22,.18,.22,.29v2.23c0,.11-.11,.18-.22,.14-.29-.04-.68-.07-1.08-.07-3.2,0-6.01,1.98-6.3,6.16l.04,9.65c0,.11-.11,.22-.22,.22Zm23.44-6.77c-.36,4.18-3.31,7.2-8.14,7.2-5.54,0-8.68-3.82-8.68-9.65s3.13-9.76,8.75-9.76c4.64,0,7.45,2.66,7.85,6.62,0,.11-.11,.22-.22,.22h-2.63c-.11,0-.22-.11-.25-.22-.43-2.66-2.12-4.18-4.75-4.18-3.67,0-5.4,2.66-5.4,7.27s1.73,7.24,5.4,7.27c2.92,0,4.72-1.8,4.97-4.79,0-.11,.11-.22,.22-.22h2.66c.11,0,.22,.11,.22,.22Zm13.23-14.62l-.58,1.3c-.04,.11-.18,.18-.29,.14l-8.14-2.88c-.11-.04-.18-.18-.14-.29l.79-2.2c.04-.11,.18-.18,.25-.11l7.99,3.71c.07,.07,.14,.22,.11,.32Zm1.26,14.94h2.74c.11,0,.22,.11,.18,.22-.54,3.85-3.31,6.66-8.14,6.66-5.76,0-8.86-4-8.86-9.65s3.31-9.76,8.68-9.76,8.57,3.74,8.64,9.94c0,.11-.11,.22-.22,.22h-13.82c.11,4.46,1.98,6.84,5.62,6.84,2.74,0,4.43-1.48,4.93-4.25,.04-.11,.14-.22,.25-.22Zm-.29-4.68c-.11-2.95-1.8-5.47-5.08-5.47-3.06,0-4.86,1.98-5.33,5.47h10.4Zm7.89,11.12h-2.84c-.11,0-.22-.11-.22-.22l.11-12.53-.11-12.24c0-.11,.11-.22,.22-.22h2.84c.11,0,.22,.11,.22,.22l-.11,12.2,.11,12.56c0,.11-.11,.22-.22,.22Zm15.6-6.44h2.74c.11,0,.22,.11,.18,.22-.54,3.85-3.31,6.66-8.14,6.66-5.76,0-8.86-4-8.86-9.65s3.31-9.76,8.68-9.76,8.57,3.74,8.64,9.94c0,.11-.11,.22-.22,.22h-13.82c.11,4.46,1.98,6.84,5.62,6.84,2.74,0,4.43-1.48,4.93-4.25,.04-.11,.14-.22,.25-.22Zm-.29-4.68c-.11-2.95-1.8-5.47-5.08-5.47-3.06,0-4.86,1.98-5.33,5.47h10.4Zm7.96,.4v3.49l.07,7.02c0,.11-.11,.22-.22,.22h-2.95c-.11,0-.22-.11-.22-.22l.07-7.02-.04-11.09c0-.11,.11-.22,.22-.22h2.77c.11,0,.22,.11,.22,.22l-.07,2.92c1.15-1.94,2.95-3.56,5.72-3.56,2.63,0,4.54,1.22,5.33,3.89,1.33-2.52,3.24-3.89,5.83-3.89,3.64,0,5.8,2.3,5.8,7.34v4.39l.07,7.02c0,.11-.11,.22-.22,.22h-2.92c-.11,0-.22-.11-.22-.22l.07-7.02v-4.25c0-3.46-1.4-4.86-3.56-4.86-1.98,0-3.6,1.76-4.39,4.82v4.28l.04,7.02c0,.11-.11,.22-.22,.22h-2.88c-.11,0-.22-.11-.22-.22l.04-7.02v-4.25c0-3.46-1.37-4.86-3.53-4.86s-3.89,2.05-4.61,5.62Zm37.61,4.28h2.74c.11,0,.22,.11,.18,.22-.54,3.85-3.31,6.66-8.14,6.66-5.76,0-8.86-4-8.86-9.65s3.31-9.76,8.68-9.76,8.57,3.74,8.64,9.94c0,.11-.11,.22-.22,.22h-13.82c.11,4.46,1.98,6.84,5.62,6.84,2.74,0,4.43-1.48,4.93-4.25,.04-.11,.14-.22,.25-.22Zm-.29-4.68c-.11-2.95-1.8-5.47-5.08-5.47-3.06,0-4.86,1.98-5.33,5.47h10.4Zm7.82,11.12h-2.95c-.11,0-.22-.11-.22-.22l.07-8.24-.04-9.86c0-.11,.11-.22,.22-.22h2.77c.11,0,.22,.11,.22,.22l-.07,2.92c1.12-1.87,3.2-3.56,6.16-3.56,3.82,0,6.23,2.52,6.23,7.34v3.71l.07,7.7c0,.11-.11,.22-.22,.22h-2.92c-.11,0-.22-.11-.22-.22l.07-7.7v-3.56c0-3.35-1.58-4.86-3.92-4.86s-4.39,1.94-5.11,5.62v2.81l.07,7.7c0,.11-.11,.22-.22,.22Zm23.1-2.38v1.94c0,.11-.11,.25-.22,.29-.76,.22-1.69,.47-2.59,.47-2.7,0-5-1.4-5-5.44l.04-10.91h-2.2c-.11,0-.22-.11-.22-.22v-2.09c0-.11,.11-.22,.22-.22h2.2l-.04-4.43c0-.11,.11-.22,.22-.22h2.84c.11,0,.22,.11,.22,.22l-.04,4.43h4.39c.11,0,.22,.11,.22,.22v2.09c0,.11-.11,.22-.22,.22h-4.39l.04,10.84c0,2.23,.76,2.92,2.3,2.92,.76,0,1.51-.11,2.02-.25,.11-.04,.22,.04,.22,.14Zm22.59-4.39c-.36,4.18-3.31,7.2-8.14,7.2-5.54,0-8.68-3.82-8.68-9.65s3.13-9.76,8.75-9.76c4.64,0,7.45,2.66,7.85,6.62,0,.11-.11,.22-.22,.22h-2.63c-.11,0-.22-.11-.25-.22-.43-2.66-2.12-4.18-4.75-4.18-3.67,0-5.4,2.66-5.4,7.27s1.73,7.24,5.4,7.27c2.92,0,4.72-1.8,4.97-4.79,0-.11,.11-.22,.22-.22h2.66c.11,0,.22,.11,.22,.22Zm18.02-2.52c0,5.83-3.13,9.72-8.78,9.72s-8.78-3.82-8.78-9.65,3.17-9.76,8.78-9.76,8.78,3.85,8.78,9.68Zm-14.26,.07c0,4.64,1.84,7.24,5.47,7.24s5.44-2.59,5.44-7.24-1.8-7.34-5.44-7.34c-3.67,.04-5.47,2.7-5.47,7.34Zm18.68-1.51v3.49l.07,7.02c0,.11-.11,.22-.22,.22h-2.95c-.11,0-.22-.11-.22-.22l.07-7.02-.04-11.09c0-.11,.11-.22,.22-.22h2.77c.11,0,.22,.11,.22,.22l-.07,2.92c1.15-1.94,2.95-3.56,5.72-3.56,2.63,0,4.54,1.22,5.33,3.89,1.33-2.52,3.24-3.89,5.83-3.89,3.64,0,5.8,2.3,5.8,7.34v4.39l.07,7.02c0,.11-.11,.22-.22,.22h-2.92c-.11,0-.22-.11-.22-.22l.07-7.02v-4.25c0-3.46-1.4-4.86-3.56-4.86-1.98,0-3.6,1.76-4.39,4.82v4.28l.04,7.02c0,.11-.11,.22-.22,.22h-2.88c-.11,0-.22-.11-.22-.22l.04-7.02v-4.25c0-3.46-1.37-4.86-3.53-4.86s-3.89,2.05-4.61,5.62Zm27.39,0v3.49l.07,7.02c0,.11-.11,.22-.22,.22h-2.95c-.11,0-.22-.11-.22-.22l.07-7.02-.04-11.09c0-.11,.11-.22,.22-.22h2.77c.11,0,.22,.11,.22,.22l-.07,2.92c1.15-1.94,2.95-3.56,5.72-3.56,2.63,0,4.54,1.22,5.33,3.89,1.33-2.52,3.24-3.89,5.83-3.89,3.64,0,5.8,2.3,5.8,7.34v4.39l.07,7.02c0,.11-.11,.22-.22,.22h-2.92c-.11,0-.22-.11-.22-.22l.07-7.02v-4.25c0-3.46-1.4-4.86-3.56-4.86-1.98,0-3.6,1.76-4.39,4.82v4.28l.04,7.02c0,.11-.11,.22-.22,.22h-2.88c-.11,0-.22-.11-.22-.22l.04-7.02v-4.25c0-3.46-1.37-4.86-3.53-4.86s-3.89,2.05-4.61,5.62Zm37.61,4.28h2.74c.11,0,.22,.11,.18,.22-.54,3.85-3.31,6.66-8.14,6.66-5.76,0-8.86-4-8.86-9.65s3.31-9.76,8.68-9.76,8.57,3.74,8.64,9.94c0,.11-.11,.22-.22,.22h-13.82c.11,4.46,1.98,6.84,5.62,6.84,2.74,0,4.43-1.48,4.93-4.25,.04-.11,.14-.22,.25-.22Zm-.29-4.68c-.11-2.95-1.8-5.47-5.08-5.47-3.06,0-4.86,1.98-5.33,5.47h10.4Zm12.52,1.66c0,4.43,1.66,7.42,5.15,7.42,3.2,0,5.15-2.38,5.18-7.06,.04-4.54-1.73-7.2-4.79-7.38h-.54c-3.42,.07-5,2.92-5,7.02Zm13.25,9.47h-2.84c-.11,0-.22-.11-.22-.22l.07-2.74c-1.26,2.09-3.28,3.31-5.94,3.31-5,0-7.67-4.21-7.67-9.58s2.84-9.68,7.74-9.68c2.63,0,4.61,1.12,5.83,3.2l-.07-2.63c0-.11,.11-.22,.22-.22h2.88c.11,0,.22,.11,.22,.22l-.07,8.89,.07,9.22c0,.11-.11,.22-.22,.22Zm18.15-6.77c-.36,4.18-3.31,7.2-8.14,7.2-5.54,0-8.68-3.82-8.68-9.65s3.13-9.76,8.75-9.76c4.64,0,7.45,2.66,7.85,6.62,0,.11-.11,.22-.22,.22h-2.63c-.11,0-.22-.11-.25-.22-.43-2.66-2.12-4.18-4.75-4.18-3.67,0-5.4,2.66-5.4,7.27s1.73,7.24,5.4,7.27c2.92,0,4.72-1.8,4.97-4.79,0-.11,.11-.22,.22-.22h2.66c.11,0,.22,.11,.22,.22Zm17.23,0c-.36,4.18-3.31,7.2-8.14,7.2-5.54,0-8.68-3.82-8.68-9.65s3.13-9.76,8.75-9.76c4.64,0,7.45,2.66,7.85,6.62,0,.11-.11,.22-.22,.22h-2.63c-.11,0-.22-.11-.25-.22-.43-2.66-2.12-4.18-4.75-4.18-3.67,0-5.4,2.66-5.4,7.27s1.73,7.24,5.4,7.27c2.92,0,4.72-1.8,4.97-4.79,0-.11,.11-.22,.22-.22h2.66c.11,0,.22,.11,.22,.22Zm14.49,.32h2.74c.11,0,.22,.11,.18,.22-.54,3.85-3.31,6.66-8.14,6.66-5.76,0-8.86-4-8.86-9.65s3.31-9.76,8.68-9.76,8.57,3.74,8.64,9.94c0,.11-.11,.22-.22,.22h-13.82c.11,4.46,1.98,6.84,5.62,6.84,2.74,0,4.43-1.48,4.93-4.25,.04-.11,.14-.22,.25-.22Zm-.29-4.68c-.11-2.95-1.8-5.47-5.08-5.47-3.06,0-4.86,1.98-5.33,5.47h10.4Zm7.78,1.69c-.04,4.68,1.84,7.38,5.11,7.38,3.56,0,5.22-2.88,5.22-7.02,0-4.43-1.66-7.42-5.15-7.42-3.2,0-5.15,2.41-5.18,7.06Zm13.68,.11c0,5.36-2.84,9.68-7.74,9.68-2.56,0-4.54-1.08-5.8-3.1l.07,8.64c0,.11-.11,.22-.22,.22h-2.92c-.11,0-.22-.11-.22-.22l.07-13.97-.07-10.26c0-.11,.11-.22,.22-.22h2.88c.11,0,.22,.11,.22,.22l-.07,2.74c1.26-2.05,3.28-3.31,5.9-3.31,5,0,7.67,4.18,7.67,9.58Zm10.06,6.95v1.94c0,.11-.11,.25-.22,.29-.76,.22-1.69,.47-2.59,.47-2.7,0-5.01-1.4-5.01-5.44l.04-10.91h-2.2c-.11,0-.22-.11-.22-.22v-2.09c0-.11,.11-.22,.22-.22h2.2l-.04-4.43c0-.11,.11-.22,.22-.22h2.84c.11,0,.22,.11,.22,.22l-.04,4.43h4.4c.1,0,.21,.11,.21,.22v2.09c0,.11-.11,.22-.21,.22h-4.4l.04,10.84c0,2.23,.76,2.92,2.3,2.92,.76,0,1.52-.11,2.02-.25,.11-.04,.22,.04,.22,.14Zm2.93-7.09c0,4.43,1.66,7.42,5.15,7.42,3.21,0,5.15-2.38,5.19-7.06,.03-4.54-1.73-7.2-4.79-7.38h-.54c-3.42,.07-5.01,2.92-5.01,7.02Zm13.25,9.47h-2.84c-.11,0-.22-.11-.22-.22l.07-2.74c-1.26,2.09-3.27,3.31-5.94,3.31-5,0-7.66-4.21-7.66-9.58s2.84-9.68,7.74-9.68c2.62,0,4.6,1.12,5.83,3.2l-.07-2.63c0-.11,.1-.22,.21-.22h2.88c.11,0,.22,.11,.22,.22l-.07,8.89,.07,9.22c0,.11-.11,.22-.22,.22Zm18.69-9.32c0,5.36-2.85,9.68-7.74,9.68-2.63,0-4.61-1.12-5.83-3.17l.07,2.59c0,.11-.11,.22-.22,.22h-2.88c-.11,0-.21-.11-.21-.22l.07-13.61-.07-11.16c0-.11,.1-.22,.21-.22h2.88c.11,0,.22,.11,.22,.22l-.04,9.29c1.26-2.02,3.24-3.2,5.87-3.2,5,0,7.67,4.18,7.67,9.58Zm-13.68-.14c-.04,4.68,1.83,7.38,5.11,7.38,3.53,.04,5.22-2.88,5.22-7.02,0-4.39-1.66-7.38-5.15-7.34-3.2,0-5.18,2.34-5.18,6.98Zm18.04,9.47h-2.85c-.11,0-.21-.11-.21-.22l.1-12.53-.1-12.24c0-.11,.1-.22,.21-.22h2.85c.1,0,.21,.11,.21,.22l-.11,12.2,.11,12.56c0,.11-.11,.22-.21,.22Zm15.6-6.44h2.74c.1,0,.21,.11,.18,.22-.54,3.85-3.32,6.66-8.14,6.66-5.76,0-8.86-4-8.86-9.65s3.32-9.76,8.68-9.76,8.57,3.74,8.64,9.94c0,.11-.11,.22-.22,.22h-13.82c.11,4.46,1.98,6.84,5.62,6.84,2.73,0,4.42-1.48,4.93-4.25,.03-.11,.14-.22,.25-.22Zm-.29-4.68c-.11-2.95-1.8-5.47-5.07-5.47-3.06,0-4.86,1.98-5.33,5.47h10.4Zm7.18,11.12h-3.2c-.11,0-.22-.11-.22-.22v-3.35c0-.11,.11-.22,.22-.22h3.2c.11,0,.22,.11,.22,.22v3.35c0,.11-.11,.22-.22,.22Zm17.16-19.33l-.76,1.69c-.03,.07-.18,.14-.25,.07l-3.42-1.98,.14,3.82c0,.11-.1,.22-.21,.22h-1.69c-.11,0-.22-.11-.22-.22l.11-3.85-3.31,2.09c-.11,.04-.22,.04-.29-.07l-.87-1.51c-.07-.11,0-.22,.08-.29l3.34-1.76-3.38-1.69c-.07-.07-.14-.22-.07-.29l.75-1.66c.08-.07,.22-.14,.29-.07l3.46,1.98-.15-3.92c0-.11,.11-.22,.22-.22h1.66c.1,0,.21,.11,.21,.22l-.14,3.92,3.45-2.16c.11-.04,.22,0,.29,.07l.83,1.51c.07,.11,0,.22-.07,.29l-3.46,1.87,3.35,1.66c.11,.07,.14,.22,.11,.29Z"/>
  <path class="cls-5" d="M266.47,232.23c-.13,.64-.51,1.02-1.15,1.02h-25.6c-.64,0-1.15-.38-1.02-1.15,3.58-24.7,10.62-51.58,21.76-68.99h-33.79c-.64,0-1.02-.38-1.02-1.02v-17.66c0-.64,.38-1.02,1.02-1.02h62.34c.64,0,1.02,.38,1.02,1.02v18.82c0,.38-.13,.77-.26,1.15-9.98,19.2-19.84,41.73-23.3,67.84Zm68.88,0c-.13,.64-.51,1.02-1.15,1.02h-25.6c-.64,0-1.15-.38-1.02-1.15,3.58-24.7,10.62-51.58,21.76-68.99h-33.79c-.64,0-1.02-.38-1.02-1.02v-17.66c0-.64,.38-1.02,1.02-1.02h62.34c.64,0,1.02,.38,1.02,1.02v18.82c0,.38-.13,.77-.26,1.15-9.98,19.2-19.84,41.73-23.3,67.84Zm55.63-41.47c-17.02,0-28.29-7.3-28.29-23.68s11.01-24.96,28.29-24.96,28.03,8.58,28.03,24.83-10.88,23.81-28.03,23.81Zm78.34-47.36c.77,0,1.15,.64,.64,1.28l-72.32,87.68c-.26,.38-.77,.64-1.28,.64h-19.33c-.77,0-1.15-.64-.64-1.28l72.32-87.68c.26-.38,.77-.64,1.28-.64h19.33Zm-78.34,32.26c4.22,0,5.76-1.79,5.76-8.7,0-7.68-2.05-9.86-5.89-9.86s-5.76,2.18-5.76,9.86c0,6.53,1.66,8.7,5.89,8.7Zm64.13,58.62c-17.15,0-28.16-8.58-28.16-24.83s11.01-23.81,28.03-23.81,28.29,7.3,28.29,23.68-10.88,24.96-28.16,24.96Zm.13-15.1c3.84,0,5.76-2.18,5.76-9.86,0-6.53-1.66-8.7-5.89-8.7s-5.76,1.79-5.76,8.7c0,7.68,2.05,9.86,5.89,9.86Z"/>
</svg>