<?xml version="1.0" encoding="utf-8"?>
<!-- Generator: Adobe Illustrator 27.0.1, SVG Export Plug-In . SVG Version: 6.00 Build 0)  -->
<svg version="1.1" id="svg5" xmlns:svg="http://www.w3.org/2000/svg"
	 xmlns="http://www.w3.org/2000/svg" xmlns:xlink="http://www.w3.org/1999/xlink" x="0px" y="0px" viewBox="0 0 388.3 257.9"
	 style="enable-background:new 0 0 388.3 257.9;" xml:space="preserve">
<style type="text/css">
	.st0{fill:#1C2B33;}
</style>
<g id="layer1" transform="translate(1809.6205,-3011.4315)">
	<g id="g2714" transform="matrix(0.25199933,0,0,0.25199933,-1353.5974,2252.5528)">
		<path id="Logo0" class="st0" d="M-1643.2,3686.3c0,58.8,12.9,104,29.8,131.3c22.1,35.8,55.1,51,88.8,51
			c43.4,0,83.1-10.8,159.6-116.6c61.3-84.8,133.5-203.9,182.1-278.5l82.3-126.4c57.2-87.8,123.3-185.4,199.2-251.6
			c61.9-54,128.8-84,196-84c112.9,0,220.4,65.4,302.7,188.1c90.1,134.4,133.8,303.6,133.8,478.3c0,103.8-20.5,180.1-55.3,240.4
			c-33.6,58.3-99.2,116.5-209.6,116.5v-166.2c94.5,0,118-86.8,118-186.1c0-141.6-33-298.7-105.7-410.9
			c-51.6-79.6-118.5-128.3-192-128.3c-79.6,0-143.6,60-215.6,167c-38.3,56.8-77.5,126.1-121.6,204.3l-48.5,86
			c-97.5,172.9-122.2,212.3-171,277.3c-85.5,113.8-158.4,156.9-254.5,156.9c-114,0-186-49.3-230.7-123.7
			c-36.4-60.6-54.3-140.1-54.3-230.7L-1643.2,3686.3z"/>
		<path id="Logo1" class="st0" d="M-1678.4,3211.3c76.3-117.6,186.4-199.9,312.7-199.9c73.1,0,145.8,21.6,221.8,83.6
			c83,67.8,171.6,179.4,282,363.3l39.6,66c95.6,159.2,150,241.2,181.8,279.8c40.9,49.6,69.6,64.4,106.8,64.4
			c94.5,0,118-86.8,118-186.1l146.8-4.6c0,103.8-20.5,180.1-55.3,240.4c-33.6,58.3-99.2,116.5-209.6,116.5
			c-68.6,0-129.3-14.9-196.5-78.3c-51.7-48.7-112-135.1-158.5-212.8l-138.2-230.8c-69.3-115.8-132.9-202.2-169.7-241.3
			c-39.6-42.1-90.5-92.9-171.7-92.9c-65.7,0-121.6,46.1-168.3,116.7L-1678.4,3211.3z"/>
		<path id="Logo2" class="st0" d="M-1368.4,3178.8c-65.7,0-121.6,46.1-168.3,116.7c-66.1,99.7-106.5,248.2-106.5,390.9
			c0,58.8,12.9,104,29.8,131.3l-141.9,93.4c-36.4-60.6-54.3-140.1-54.3-230.7c0-164.8,45.2-336.5,131.2-469.1
			c76.3-117.6,186.4-199.9,312.7-199.9L-1368.4,3178.8z"/>
	</g>
</g>
</svg>
